<svg version="1.1" id="Layer_1" xmlns="http://www.w3.org/2000/svg" xmlns:xlink="http://www.w3.org/1999/xlink" x="0px" y="0px"
	 width="100%" viewBox="0 0 259 194" enable-background="new 0 0 259 194" xml:space="preserve">
<path fill="#F2F2F2" opacity="1.000000" stroke="none" 
	d="
M179.000000,195.000000 
	C120.666672,195.000000 62.833248,194.961426 5.000238,195.097046 
	C1.575305,195.105072 0.896115,194.424606 0.903255,190.999817 
	C1.035293,127.666763 1.000000,64.333351 1.000000,1.000011 
	C85.999992,1.000000 171.000015,1.026413 255.999832,0.904084 
	C259.424042,0.899156 260.104126,1.575289 260.096802,5.000170 
	C259.963959,66.999886 259.963989,129.000031 260.096802,190.999741 
	C260.104156,194.424438 259.427948,195.125610 255.999329,195.100662 
	C230.500656,194.915146 205.000015,195.000000 179.000000,195.000000 
z"/>
<path fill="#F3F5F5" opacity="1.000000" stroke="none" 
	d="
M91.997864,82.000748 
	C92.479607,74.416481 90.886978,67.225029 93.375687,60.235542 
	C96.518280,51.409622 105.623001,43.959457 115.376869,44.212250 
	C124.467720,44.447865 132.141602,48.716278 136.067047,57.427826 
	C138.100647,61.940845 140.102112,64.509430 145.764252,64.145966 
	C161.180573,63.156368 168.906433,73.986801 169.770233,87.649635 
	C170.755325,103.230759 170.132645,118.923660 169.947571,134.564896 
	C169.833374,144.216766 161.999176,151.870926 152.285980,151.963486 
	C137.475998,152.104645 122.663147,152.076050 107.852547,151.972107 
	C99.362434,151.912537 92.057030,144.481750 92.020950,135.921204 
	C91.945885,118.114601 91.998009,100.307465 91.997864,82.000748 
z"/>
<path fill="#0A3135" opacity="1.000000" stroke="none" 
	d="
M155.205658,148.964172 
	C138.949219,150.054199 122.835495,149.866638 106.748878,149.336014 
	C99.114403,149.084183 94.264885,143.070831 94.021278,135.324722 
	C93.911636,131.838287 94.006996,128.345383 94.007805,124.385101 
	C95.763802,122.341881 97.945114,122.360893 100.090797,122.357025 
	C106.034950,122.346298 111.980110,122.224434 118.338364,122.480331 
	C119.017105,122.550774 119.280624,122.589455 119.921265,122.709991 
	C121.847481,123.225845 123.363411,124.037857 125.323051,123.043060 
	C130.402710,119.961166 135.690689,117.815895 139.579178,113.401337 
	C139.373154,113.001450 139.246933,112.861450 138.901306,112.521156 
	C138.540756,112.170013 138.399612,112.019165 138.063599,111.616951 
	C133.932251,107.526230 128.744888,105.618637 124.003632,102.413895 
	C123.532066,102.133392 123.349983,102.014053 122.911423,101.700508 
	C122.019753,100.961670 121.354080,100.466087 120.244705,100.088150 
	C119.534538,99.805832 119.158623,99.579277 118.592484,99.045471 
	C117.556602,97.262123 117.786713,95.560570 117.525360,93.944138 
	C117.076912,91.170662 115.771690,90.072395 112.812325,91.962265 
	C111.625069,92.616142 110.698746,92.502876 109.432419,92.222839 
	C108.886345,92.035347 108.675804,91.941322 108.183205,91.650162 
	C107.599236,91.114304 107.355804,90.738670 107.091476,90.005753 
	C106.962677,89.483963 106.926743,89.274033 106.861603,88.751862 
	C106.820419,88.234474 106.808441,88.029320 106.776947,87.521210 
	C106.701843,86.619110 106.616570,86.025398 106.333260,85.156265 
	C106.174812,84.660545 106.117592,84.457924 105.998245,83.939011 
	C105.912727,83.404922 105.889320,83.187134 105.860458,82.636093 
	C105.888451,81.620155 106.027077,80.959602 106.440041,80.022346 
	C107.470871,78.800529 108.440094,78.415146 109.840347,79.312729 
	C110.243423,79.720711 110.325111,79.970695 110.299179,80.251266 
	C110.843887,80.096306 110.401291,79.596771 110.811966,79.063416 
	C111.254303,78.586945 111.603897,78.247086 111.821754,78.336777 
	C115.534584,79.865349 119.487968,77.627747 123.530869,79.250565 
	C124.738983,80.029549 125.173981,80.947014 125.758881,82.210922 
	C127.728516,85.970444 126.690971,88.524597 123.336891,90.697891 
	C122.616570,92.119171 123.242241,92.845016 124.093155,93.432961 
	C127.460075,95.759323 130.930405,97.918358 134.594025,99.751595 
	C135.650650,100.280304 136.731705,100.725250 137.814850,99.178680 
	C142.219589,95.810356 147.143875,97.394310 151.637405,97.321732 
	C160.283478,97.182091 159.747955,97.866127 158.685379,106.263702 
	C158.520355,107.567848 158.359940,108.879990 157.894440,110.498901 
	C157.549011,111.281883 157.263672,111.679703 156.641144,112.284210 
	C155.265732,113.199898 154.067368,113.494705 152.442291,113.530205 
	C146.547272,110.948784 146.547272,110.948784 146.017456,119.574371 
	C145.683472,120.564972 145.280502,121.108383 144.462677,121.728287 
	C144.005753,122.007500 143.820358,122.105461 143.358917,122.326782 
	C142.914474,122.515816 142.746078,122.581490 142.360306,122.721741 
	C142.142944,122.796318 141.819855,122.906853 141.819855,122.906853 
	C141.819855,122.906853 141.810349,123.236252 142.029358,123.235420 
	C147.407867,121.626923 149.904205,116.332550 155.063293,114.188576 
	C155.898056,114.169327 156.361130,114.272453 157.100403,114.657669 
	C159.196396,117.149017 159.199112,119.569984 157.706573,122.306290 
	C160.329834,122.973564 163.011353,122.156013 165.669952,123.569290 
	C167.142670,128.539047 166.138290,133.355026 166.631104,138.532623 
	C165.631714,143.996277 162.305939,147.032852 157.355240,148.938263 
	C156.519791,148.482040 155.961456,148.474350 155.205658,148.964172 
z"/>
<path fill="#689BB1" opacity="1.000000" stroke="none" 
	d="
M121.494873,123.848991 
	C112.344002,123.742584 103.540512,124.642067 94.394821,123.595512 
	C94.014038,120.545761 94.021797,117.176750 94.406784,113.622002 
	C95.355194,112.789474 95.506248,111.966293 95.847076,110.777084 
	C94.061150,109.687279 94.778938,108.260590 95.339752,106.743408 
	C96.246956,104.194786 98.339722,104.497635 99.952431,104.161705 
	C103.596909,103.402534 107.303154,102.953529 111.291183,102.051834 
	C111.897507,102.064163 112.138916,102.093857 112.728439,102.231049 
	C119.008057,107.472633 125.640778,111.665627 132.090179,116.673820 
	C130.614029,122.010887 125.783081,122.259537 121.494873,123.848991 
z"/>
<path fill="#1B3338" opacity="1.000000" stroke="none" 
	d="
M94.548080,66.066360 
	C95.175323,57.767681 99.429939,51.878326 106.942932,48.525219 
	C118.095345,43.547806 130.803986,48.880497 135.164017,60.553391 
	C135.032181,61.071903 134.846649,61.229839 134.301956,61.450455 
	C132.655792,61.351608 132.004745,60.375309 131.269867,59.474350 
	C120.921867,46.787868 109.717384,46.852650 99.591347,59.955627 
	C98.645447,61.703239 98.130318,63.274632 97.000511,64.927719 
	C96.248817,65.720215 95.628403,66.051300 94.548080,66.066360 
z"/>
<path fill="#00141B" opacity="1.000000" stroke="none" 
	d="
M166.859772,138.495911 
	C164.915131,134.277344 166.875763,129.304749 165.298615,124.294540 
	C163.131546,121.977242 163.288498,119.436172 163.283661,116.973213 
	C163.266129,108.056404 163.189972,99.139259 163.358582,89.764526 
	C163.500259,88.719749 163.597733,88.130592 163.755905,87.112389 
	C164.271988,85.336205 164.771255,84.022110 166.371475,83.082764 
	C167.466583,101.379051 167.083344,119.712410 166.859772,138.495911 
z"/>
<path fill="#5C8093" opacity="1.000000" stroke="none" 
	d="
M112.136902,102.660751 
	C107.012779,105.050270 101.560127,104.887901 96.049103,106.377693 
	C92.817657,106.412201 94.202301,104.309319 94.357681,102.654556 
	C94.791138,102.128883 94.863983,101.904808 95.162567,101.407845 
	C96.891472,99.981453 98.666328,99.332520 100.648315,98.325554 
	C102.761627,97.617294 104.435844,96.664978 106.715553,96.597420 
	C109.204346,98.179108 111.557854,99.500092 112.136902,102.660751 
z"/>
<path fill="#0A3135" opacity="1.000000" stroke="none" 
	d="
M96.372963,101.633705 
	C96.008324,102.169159 95.779167,102.332352 95.134155,102.424255 
	C93.084641,97.719376 94.206398,92.941956 94.066566,88.239548 
	C93.855286,81.134277 94.034027,74.017403 94.124367,66.439957 
	C94.621468,65.717369 95.041229,65.460289 95.687973,65.107300 
	C98.370514,67.923569 97.220802,71.448608 97.524185,75.090439 
	C97.442421,76.185356 97.416725,76.909859 97.453125,77.983315 
	C97.723206,79.694664 97.880142,81.061607 97.571930,82.776871 
	C97.482155,83.333725 97.457550,83.558014 97.411018,84.119850 
	C97.358368,85.360779 97.275055,86.262772 97.330765,87.515793 
	C97.350319,88.097633 97.356766,88.331749 97.369812,88.921249 
	C97.379166,89.516296 97.381912,89.755966 97.386215,90.358162 
	C97.379097,91.950462 97.360863,93.180244 97.398331,94.789314 
	C97.417763,96.196716 97.490875,97.225204 97.348984,98.644928 
	C97.174606,99.826050 96.844292,100.544746 96.372963,101.633705 
z"/>
<path fill="#133238" opacity="1.000000" stroke="none" 
	d="
M166.810913,82.686119 
	C166.423340,83.894714 166.060135,84.739922 165.516998,85.806564 
	C164.884064,85.923996 164.530457,85.682404 164.163635,84.972397 
	C163.913818,84.253502 163.819000,83.833084 163.700073,83.100174 
	C163.506927,81.790672 163.176376,80.850899 162.553558,79.699303 
	C162.308609,79.265305 162.210403,79.091759 161.961121,78.660187 
	C161.507629,77.886047 161.186218,77.382103 160.666901,76.647903 
	C160.161362,75.903877 159.861023,75.385063 159.312500,74.674973 
	C158.703247,74.010582 158.268112,73.596573 157.503662,73.088860 
	C156.693451,72.581276 156.161636,72.218704 155.312943,71.723083 
	C153.971664,71.000450 152.927933,70.439301 151.349396,70.165894 
	C147.417542,68.799858 143.745575,69.745689 140.137878,69.480164 
	C134.249069,69.046745 133.169220,67.901176 133.550171,61.416035 
	C134.030609,61.030807 134.267914,61.006298 134.861465,60.947884 
	C137.072983,62.211433 135.355438,64.328842 136.691925,65.986359 
	C140.421341,66.904510 143.843674,66.369278 147.608429,66.306656 
	C157.879089,67.317436 164.130447,72.751801 166.810913,82.686119 
z"/>
<path fill="#00141B" opacity="1.000000" stroke="none" 
	d="
M147.519165,66.080994 
	C144.603836,67.862305 141.100677,66.979095 137.334015,66.420135 
	C140.382034,66.102837 143.724976,66.057999 147.519165,66.080994 
z"/>
<path fill="#002228" opacity="1.000000" stroke="none" 
	d="
M95.353691,110.307198 
	C95.862846,111.298424 95.764847,112.217697 95.225418,113.286621 
	C93.799652,112.380638 93.925224,111.312012 95.353691,110.307198 
z"/>
<path fill="#365054" opacity="1.000000" stroke="none" 
	d="
M155.379669,149.290039 
	C155.376450,148.486725 155.890793,148.260742 156.815887,148.802917 
	C156.574860,149.095810 156.144257,149.229050 155.379669,149.290039 
z"/>
<path fill="#F2DDAF" opacity="1.000000" stroke="none" 
	d="
M124.338936,80.039581 
	C121.363136,80.014595 118.581429,79.469131 116.163696,80.173294 
	C114.060585,80.785843 113.303116,77.230247 111.140320,79.534866 
	C110.837326,80.072556 110.726845,80.283676 110.307762,80.314499 
	C109.168549,79.875229 108.445312,78.464905 107.177513,80.038895 
	C104.967064,81.302444 103.636452,79.631660 101.762009,78.976822 
	C101.298264,78.673973 101.125092,78.533287 100.767380,78.112183 
	C100.525864,77.615379 100.468903,77.398994 100.393692,76.848785 
	C100.622307,73.993896 99.163391,71.838585 98.810272,69.094284 
	C98.688934,67.809784 98.779930,66.875801 98.974655,65.587799 
	C99.186630,64.517632 99.476822,63.838890 99.604446,62.734669 
	C99.758583,61.589417 99.986473,60.853199 100.520508,59.805935 
	C101.933960,58.084759 103.379059,56.963528 104.761932,55.780582 
	C109.883301,51.399632 115.718437,50.035164 121.843735,52.978077 
	C128.212357,56.037888 132.320618,61.002617 132.001724,68.967079 
	C130.322586,71.514519 130.925735,74.312096 129.669922,76.935944 
	C128.107513,78.554642 126.611946,79.667969 124.338936,80.039581 
z"/>
<path fill="#6899B0" opacity="1.000000" stroke="none" 
	d="
M164.827820,87.845612 
	C165.107513,99.753616 165.140335,111.412758 165.091736,123.534302 
	C161.594818,123.996696 158.179321,123.996696 154.179047,123.996696 
	C155.839508,121.162918 159.084824,119.226250 157.090775,115.367371 
	C156.185516,114.039032 156.026855,112.985268 156.696136,111.441864 
	C156.318100,107.565414 157.907608,104.302429 157.908051,100.881149 
	C157.908218,99.633125 156.720703,97.392624 156.312592,98.342896 
	C154.428925,102.729012 149.134583,94.351891 148.405762,100.742638 
	C148.049454,100.479729 147.619049,100.275299 147.354462,99.940010 
	C146.971924,99.455223 146.627930,98.376755 146.408310,98.412666 
	C143.822235,98.835548 141.375214,100.209641 138.454865,99.780510 
	C133.272217,100.389931 129.956818,97.393684 126.690811,93.782242 
	C126.644127,92.945351 126.771523,92.484993 127.199722,91.754761 
	C128.834839,89.843346 130.635056,88.712456 132.795181,87.485458 
	C133.590378,87.245964 134.060852,87.203506 134.885117,87.271492 
	C137.264725,88.032051 139.162048,87.593315 140.921738,86.529068 
	C145.472305,83.776924 150.522430,83.206657 156.024414,82.985733 
	C157.331833,82.819489 158.281769,82.846497 159.550980,83.241760 
	C161.447998,84.784714 163.169388,86.018402 164.827820,87.845612 
z"/>
<path fill="#0C3035" opacity="1.000000" stroke="none" 
	d="
M135.257202,87.610687 
	C134.511734,87.854866 134.104095,87.965286 133.393890,88.171158 
	C132.366196,88.044182 131.722473,87.681969 130.994080,86.973999 
	C130.562042,86.597778 130.437286,86.498520 130.437286,86.498520 
	C130.139175,86.445099 129.990570,86.495262 129.991470,86.649033 
	C129.992096,86.756081 130.143143,86.809608 130.463364,87.084061 
	C130.060608,88.978722 127.982025,89.524757 127.910995,91.669983 
	C127.677505,92.288620 127.422462,92.595451 126.960327,93.121834 
	C124.736435,94.036079 123.480804,92.863762 122.146881,91.183197 
	C122.110237,89.649895 122.567070,88.541161 123.763618,88.249168 
	C126.842377,87.497879 125.693390,85.610489 125.048813,83.476295 
	C125.536858,80.885422 127.556389,80.221756 129.205460,79.166199 
	C129.589035,78.920685 130.173630,79.045387 130.406387,78.517929 
	C129.687653,78.548294 129.129303,78.275665 128.798462,77.314545 
	C130.583710,74.937614 128.071930,71.991783 130.631317,69.942268 
	C136.006699,67.851837 139.066071,68.541435 141.337830,72.611618 
	C141.401138,74.258263 141.401566,75.452682 140.985321,77.027679 
	C140.681641,77.661560 140.526276,77.894157 140.033264,78.364746 
	C139.202972,78.797264 138.692703,78.906120 137.801300,78.891052 
	C135.301971,77.894096 134.251770,78.713943 133.976471,81.223671 
	C133.846191,81.903168 133.923660,82.249542 134.455536,82.647087 
	C135.361542,82.881554 135.968231,83.069244 136.807800,83.578323 
	C137.705597,85.474312 136.689499,86.491394 135.257202,87.610687 
z"/>
<path fill="#EEDDAF" opacity="1.000000" stroke="none" 
	d="
M121.148148,123.893440 
	C124.620987,121.866974 128.114349,119.918831 131.843781,117.748627 
	C131.809250,115.172646 134.772751,115.489639 135.221085,113.769455 
	C131.084763,110.404778 125.158623,109.513977 122.442146,103.935753 
	C122.556732,103.360184 122.655151,103.141808 123.053230,102.723099 
	C129.015076,104.498352 133.855515,107.875267 138.785065,111.746552 
	C138.991043,112.041641 139.133636,112.158943 139.207367,112.103394 
	C139.443771,112.158142 139.606430,112.268448 140.032333,112.245987 
	C142.105759,112.384766 144.051392,112.503944 141.224380,114.612038 
	C136.596924,118.062714 131.622986,120.922813 126.259766,123.819618 
	C124.654243,124.826263 123.202530,124.392509 121.411072,124.243027 
	C121.027077,124.050377 121.168678,123.971764 121.148148,123.893440 
z"/>
<path fill="#E2D2A6" opacity="1.000000" stroke="none" 
	d="
M109.191910,135.567383 
	C106.378235,138.211868 103.265160,136.975693 100.398422,137.206055 
	C98.641434,137.347229 98.585114,136.059052 98.910072,134.885971 
	C99.517525,132.693069 97.289001,129.286926 100.153580,128.451599 
	C102.516861,127.762444 106.108276,126.643448 108.106064,130.592407 
	C109.579750,132.121750 110.176483,133.503067 109.191910,135.567383 
z"/>
<path fill="#E2D2A6" opacity="1.000000" stroke="none" 
	d="
M132.833008,136.703217 
	C129.035065,139.180984 125.652031,135.852753 122.105804,137.024063 
	C120.264420,137.632263 120.834358,135.061600 121.000793,134.031860 
	C121.312340,132.104385 119.400032,129.491882 122.083557,128.331039 
	C124.003815,127.500381 125.169868,128.558533 124.886604,130.868500 
	C124.673180,132.609009 124.974854,134.592819 127.049858,134.671524 
	C129.424622,134.761612 129.223846,132.556458 129.042572,130.987549 
	C128.663605,127.708031 130.541061,127.935028 132.943665,128.707733 
	C134.932037,131.494461 134.578262,134.004333 132.833008,136.703217 
z"/>
<path fill="#DECEA4" opacity="1.000000" stroke="none" 
	d="
M151.208008,136.601196 
	C149.162521,138.067841 147.903839,136.799271 146.527725,135.954880 
	C145.846008,135.536591 145.069534,134.811279 144.414291,134.888626 
	C140.980804,135.293930 140.989517,135.367767 140.906906,131.447906 
	C140.720657,130.846451 140.609299,130.681839 140.631958,130.250946 
	C140.863174,128.930756 141.533615,127.596054 142.416168,128.270538 
	C145.225601,130.417694 147.861252,129.193115 150.812653,128.727386 
	C152.198883,131.344864 152.215576,133.747177 151.208008,136.601196 
z"/>
<path fill="#E2D2A6" opacity="1.000000" stroke="none" 
	d="
M151.842056,131.504395 
	C157.028915,126.757080 159.902786,126.737541 161.977921,131.525360 
	C160.854462,132.617325 159.537781,131.549637 158.246185,132.344040 
	C159.399948,132.852341 160.458435,131.952576 161.710327,132.692810 
	C163.241714,137.225342 162.101715,138.339493 156.942429,137.544846 
	C155.305649,137.292725 153.720459,136.653656 152.395203,134.986572 
	C151.149994,133.937225 151.605652,132.829666 151.842056,131.504395 
z"/>
<path fill="#E2D2A6" opacity="1.000000" stroke="none" 
	d="
M109.723389,129.444916 
	C111.557625,127.293594 113.664680,128.432175 115.552505,128.185486 
	C116.466934,128.066010 117.691750,127.864754 118.098160,129.114777 
	C118.700378,130.967056 116.866570,130.463806 116.205750,131.097870 
	C115.283318,131.982956 115.888840,133.953003 114.325806,134.474304 
	C115.522125,136.727875 118.712959,132.236923 118.766014,135.660049 
	C118.810257,138.514801 115.601440,136.797607 113.879463,137.200592 
	C112.936211,137.421341 111.891411,137.208160 110.450623,137.094574 
	C109.185623,134.664368 109.140388,132.280228 109.723389,129.444916 
z"/>
<path fill="#0C3035" opacity="1.000000" stroke="none" 
	d="
M112.193970,103.031921 
	C111.026047,100.617371 108.557625,99.695183 106.935318,97.550446 
	C106.737923,97.055458 106.611855,96.887276 106.322533,96.447861 
	C106.021431,95.775024 105.922371,95.363907 105.808014,94.628525 
	C105.731499,94.099304 105.703400,93.886192 105.636765,93.349968 
	C105.551949,92.586594 105.557426,92.146599 105.734337,91.395279 
	C106.367104,90.539276 106.977348,90.364151 107.946594,90.782455 
	C108.199760,91.008583 108.577530,90.995827 108.766449,90.990555 
	C111.426178,93.460365 114.415161,95.444138 116.335419,98.959999 
	C117.037804,101.802643 117.058189,103.907112 113.147675,103.263870 
	C112.772003,103.083542 112.384415,103.068611 112.193970,103.031921 
z"/>
<path fill="#E5D6AB" opacity="1.000000" stroke="none" 
	d="
M121.676743,90.914391 
	C123.369110,91.616936 124.738182,92.390762 126.430237,93.252991 
	C129.926178,96.319382 133.971756,97.852455 137.984558,100.028526 
	C138.573807,101.159271 138.549194,102.574425 137.169022,101.971031 
	C131.113983,99.323822 125.332733,96.151489 120.365829,91.692795 
	C120.328285,91.659096 120.400215,91.400627 120.480659,91.356949 
	C120.757263,91.206795 121.060410,91.105553 121.676743,90.914391 
z"/>
<path fill="#E3CBA2" opacity="1.000000" stroke="none" 
	d="
M151.628113,113.377831 
	C153.032639,113.002327 154.095154,112.630966 155.503159,112.263145 
	C157.052460,113.335236 156.140762,113.979828 155.011261,114.773491 
	C151.714249,117.512413 148.826950,120.190727 145.815033,122.720695 
	C144.518097,123.810112 143.203964,125.181305 140.989777,124.353905 
	C140.524765,123.290192 140.938721,122.813278 141.721924,122.158501 
	C141.959427,121.926758 142.012238,121.972786 141.981308,121.958710 
	C142.276520,121.687424 142.607132,121.436119 143.230652,121.072998 
	C143.860794,120.770981 144.202515,120.586670 144.676178,120.259842 
	C146.564209,117.484352 148.137390,114.675491 151.628113,113.377831 
z"/>
<path fill="#E63234" opacity="1.000000" stroke="none" 
	d="
M151.805542,113.039597 
	C149.799164,115.531921 147.628235,117.690170 145.132721,119.982864 
	C144.803696,118.307114 144.826050,116.496330 144.787369,114.686859 
	C144.747009,112.798744 144.862122,110.899986 146.967682,110.198006 
	C149.264572,109.432213 150.721436,110.674576 151.805542,113.039597 
z"/>
<path fill="#D83234" opacity="1.000000" stroke="none" 
	d="
M111.865356,92.265572 
	C112.778099,89.842857 114.032120,88.339653 116.463409,89.069473 
	C118.586372,89.706726 118.830315,91.600319 118.823746,93.514534 
	C118.818611,95.007797 118.843689,96.501160 118.883362,98.425369 
	C114.916458,98.604271 113.438911,95.452209 111.865356,92.265572 
z"/>
<path fill="#E63234" opacity="1.000000" stroke="none" 
	d="
M139.074585,111.662704 
	C133.943359,109.006767 128.895676,105.971886 123.492821,102.900513 
	C122.774025,102.560165 122.604729,102.171638 122.802048,101.407761 
	C128.647491,104.062645 135.031006,105.877289 139.074585,111.662704 
z"/>
<path fill="#EEDDAF" opacity="1.000000" stroke="none" 
	d="
M122.916939,101.054642 
	C123.007965,101.505493 123.041527,101.893898 123.106369,102.573158 
	C123.002541,103.006470 122.867424,103.148941 122.530350,103.505783 
	C118.690468,104.416122 117.612831,101.117661 115.294922,99.114090 
	C112.968422,96.466698 110.888268,94.075081 108.881737,91.334373 
	C109.784950,91.197159 110.614548,91.409050 111.736267,91.776749 
	C114.110771,94.206177 116.193153,96.479790 118.593452,98.804825 
	C119.365128,98.901398 119.818878,98.946548 120.614426,99.009048 
	C121.504707,99.417702 122.083015,99.772186 122.726120,100.566689 
	C122.928307,100.837082 122.859467,100.992210 122.916939,101.054642 
z"/>
<path fill="#E5D6AB" opacity="1.000000" stroke="none" 
	d="
M134.440460,129.431854 
	C135.814163,127.651550 137.282333,128.199738 138.926117,128.727936 
	C139.997314,131.380600 139.292877,133.802231 139.242050,136.599518 
	C137.696869,137.241867 136.342346,137.515198 134.873352,136.400848 
	C133.662994,134.030136 133.968903,131.938065 134.440460,129.431854 
z"/>
<path fill="#EE6E6E" opacity="1.000000" stroke="none" 
	d="
M96.575592,88.260803 
	C96.192757,86.902878 96.148911,85.866577 96.170815,84.445747 
	C99.362442,81.765785 102.710701,82.371468 106.443138,83.611130 
	C106.890274,84.088249 106.978470,84.260658 107.180069,84.700485 
	C107.031227,85.366043 106.677460,85.660934 106.226997,85.806061 
	C105.688690,85.979500 105.116875,85.941818 104.561600,86.012421 
	C105.180740,86.020538 105.801781,86.006012 106.411026,86.146240 
	C106.711342,86.215370 106.990089,86.345032 107.480476,86.758568 
	C107.738914,87.177788 107.766731,87.362480 107.712296,87.815002 
	C104.152206,90.265045 100.546272,89.700012 96.575592,88.260803 
z"/>
<path fill="#E3CBA2" opacity="1.000000" stroke="none" 
	d="
M128.513611,77.034515 
	C129.160889,78.506020 130.898453,77.508156 131.660141,78.680962 
	C129.630875,80.040718 127.605354,81.397972 125.289856,82.939255 
	C123.776886,82.667274 124.208435,81.590935 124.042374,80.367546 
	C125.387856,79.040283 126.788963,78.063278 128.513611,77.034515 
z"/>
<path fill="#E54646" opacity="1.000000" stroke="none" 
	d="
M108.017006,90.688202 
	C107.712494,91.149544 107.225235,91.290504 106.585960,91.634239 
	C104.242523,94.228500 101.436081,93.252350 98.381622,93.106277 
	C97.429909,92.726021 97.002243,92.354088 96.612068,91.452377 
	C96.569473,90.776085 96.596603,90.507469 96.854935,89.913757 
	C99.766014,88.437675 102.590073,89.264153 105.705017,88.968300 
	C106.321999,88.919525 106.567665,88.889832 107.183289,88.890305 
	C107.646912,89.402908 107.740578,89.885368 108.017006,90.688202 
z"/>
<path fill="#EA7877" opacity="1.000000" stroke="none" 
	d="
M101.039001,78.058319 
	C103.617165,77.212616 104.466637,79.659706 106.572021,80.090340 
	C106.905991,80.893242 106.913963,81.605858 106.849075,82.669945 
	C106.081085,83.579338 105.267708,83.482933 104.081009,83.299240 
	C101.838524,82.049713 99.451988,81.264870 101.039001,78.058319 
z"/>
<path fill="#1B3338" opacity="1.000000" stroke="none" 
	d="
M162.001556,132.616119 
	C161.213089,133.025757 160.366180,133.081131 159.642090,133.408310 
	C158.803482,133.787247 159.618805,136.671387 157.377747,134.983963 
	C156.282333,134.159164 155.557312,132.909607 156.196762,131.521667 
	C156.942886,129.902176 158.323593,130.366318 159.571213,130.900330 
	C160.170273,131.156738 160.714600,131.541092 161.623016,131.891296 
	C161.962326,131.915085 161.997437,132.382019 162.001556,132.616119 
z"/>
<path fill="#E54646" opacity="1.000000" stroke="none" 
	d="
M107.799347,86.715393 
	C105.108803,86.631310 102.267105,87.751877 99.887016,85.009125 
	C102.056519,85.009125 104.226028,85.009125 106.844505,84.988518 
	C107.491516,85.457848 107.689552,85.947777 107.799347,86.715393 
z"/>
<path fill="#873336" opacity="1.000000" stroke="none" 
	d="
M122.048004,141.325851 
	C123.445625,141.704880 124.501602,142.158569 125.984085,142.795502 
	C124.604294,144.088257 123.139465,145.474503 121.635330,144.956223 
	C120.606888,144.601852 120.943214,142.618851 122.048004,141.325851 
z"/>
<path fill="#002228" opacity="1.000000" stroke="none" 
	d="
M134.381531,129.032959 
	C134.722702,131.068390 134.826675,133.119980 134.815033,135.599396 
	C134.130951,136.286499 133.562500,136.545776 132.681366,136.842255 
	C133.401443,134.621841 132.761414,132.209534 133.105042,129.446625 
	C133.510544,129.034363 133.827271,129.046280 134.381531,129.032959 
z"/>
<path fill="#EB2C2D" opacity="1.000000" stroke="none" 
	d="
M107.635803,88.716858 
	C107.553238,88.920456 107.243233,88.975784 107.089737,89.010834 
	C104.201492,89.969841 101.380211,89.270775 98.186478,89.487648 
	C97.484566,89.468246 97.204079,89.451141 96.573059,89.199921 
	C96.191147,88.794334 96.159752,88.622871 96.182480,88.195297 
	C99.747025,87.969421 103.257439,87.999664 107.198959,88.056366 
	C107.630051,88.082832 107.718369,88.513268 107.635803,88.716858 
z"/>
<path fill="#EB2C2D" opacity="1.000000" stroke="none" 
	d="
M103.621735,82.628464 
	C104.706184,82.908432 105.395805,82.952469 106.430817,83.008957 
	C106.776207,83.021416 106.883133,83.466637 106.842606,83.691238 
	C103.572685,83.954269 100.343292,83.992706 96.675232,84.046181 
	C96.198997,83.871109 96.161430,83.680984 96.162498,83.202751 
	C98.431160,81.234947 100.813637,81.606590 103.621735,82.628464 
z"/>
<path fill="#002228" opacity="1.000000" stroke="none" 
	d="
M109.679222,129.175537 
	C109.948898,131.385788 110.001572,133.748581 110.031548,136.554932 
	C109.731056,136.775269 109.453262,136.552032 109.042404,136.093140 
	C109.322937,134.302307 108.389679,133.052856 108.069435,131.336487 
	C108.604721,130.432388 109.033470,129.880219 109.679222,129.175537 
z"/>
<path fill="#002228" opacity="1.000000" stroke="none" 
	d="
M139.299927,136.750153 
	C139.026123,134.638062 139.003250,132.266846 139.063416,129.458618 
	C139.547272,129.268753 139.948105,129.515915 140.557434,129.873871 
	C140.819885,130.152969 140.873810,130.321274 140.879868,130.750336 
	C139.275208,132.573608 140.609879,134.812134 139.299927,136.750153 
z"/>
<path fill="#002228" opacity="1.000000" stroke="none" 
	d="
M152.053101,130.887268 
	C152.092682,132.161697 152.081863,133.120514 152.086884,134.439240 
	C151.899826,135.403931 151.696960,136.008728 151.238556,136.811035 
	C150.937271,134.632324 150.891525,132.256073 150.940002,129.443024 
	C151.357071,129.528030 151.679886,130.049850 152.053101,130.887268 
z"/>
<path fill="#D83234" opacity="1.000000" stroke="none" 
	d="
M141.664185,121.757629 
	C141.658295,122.444305 141.357147,122.961845 140.930511,123.765236 
	C140.186844,123.905014 139.029831,123.745399 139.033112,123.614983 
	C139.069382,122.174095 140.487717,122.173622 141.664185,121.757629 
z"/>
<path fill="#002228" opacity="1.000000" stroke="none" 
	d="
M121.260834,124.306335 
	C122.406181,124.030167 123.785286,124.009956 125.578865,124.017960 
	C124.634201,125.442345 123.082413,125.159309 121.260834,124.306335 
z"/>
<path fill="#002228" opacity="1.000000" stroke="none" 
	d="
M155.041443,114.923485 
	C155.020996,114.213074 155.389923,113.531914 155.803741,112.558716 
	C156.037415,111.962936 156.226196,111.659195 156.636383,111.201981 
	C156.931015,112.102295 157.004242,113.156082 157.034576,114.604553 
	C156.471405,114.983734 155.951126,114.968239 155.041443,114.923485 
z"/>
<path fill="#0C3035" opacity="1.000000" stroke="none" 
	d="
M122.897385,100.531723 
	C122.336662,100.410294 121.745026,99.983498 121.054802,99.291550 
	C121.812637,99.076683 122.578171,99.271652 122.897385,100.531723 
z"/>
<path fill="#0C3035" opacity="1.000000" stroke="none" 
	d="
M110.002945,80.425934 
	C109.999153,80.134201 110.468346,79.979958 110.708084,79.920700 
	C110.835472,80.585068 111.338928,81.440887 110.487511,82.005882 
	C110.327255,81.576477 110.166992,81.147064 110.002945,80.425934 
z"/>
<path fill="#D83234" opacity="1.000000" stroke="none" 
	d="
M143.129242,120.869324 
	C143.217789,121.270821 142.916473,121.586349 142.282776,121.923248 
	C142.213379,121.557533 142.476379,121.170448 143.129242,120.869324 
z"/>
<path fill="#0C3035" opacity="1.000000" stroke="none" 
	d="
M140.042725,112.084656 
	C140.061981,112.521622 139.791061,112.825302 139.283691,112.260437 
	C139.450714,112.050598 139.620300,112.053352 140.042725,112.084656 
z"/>
<path fill="#0A2F35" opacity="1.000000" stroke="none" 
	d="
M115.166092,99.204674 
	C117.928848,99.414146 119.040161,102.569847 122.029472,103.562439 
	C126.996819,107.644440 132.293945,110.574600 137.704544,113.499214 
	C136.674347,115.522156 134.506378,116.145477 132.426804,117.419724 
	C125.454056,113.331230 118.819748,109.147583 112.956062,103.371765 
	C115.240097,103.065598 116.694725,102.327087 115.166092,99.204674 
z"/>
<path fill="#EA7877" opacity="1.000000" stroke="none" 
	d="
M140.468063,74.290100 
	C140.504395,71.369530 139.914429,69.672142 136.685394,70.053337 
	C135.102768,70.240158 133.471222,70.012466 131.410400,69.903839 
	C130.887482,61.802628 127.517647,56.288315 120.654625,53.796158 
	C113.943985,51.359329 108.269127,53.352566 103.623627,58.625729 
	C103.190201,59.117722 102.631798,59.499619 101.824257,60.023201 
	C100.693916,60.543095 99.848289,60.828526 98.549530,60.244911 
	C101.758461,52.979015 107.346390,49.004204 115.302345,48.932495 
	C123.800247,48.855907 129.667175,53.068535 133.556396,60.823921 
	C134.031250,66.032791 135.612091,69.142769 141.630112,68.183464 
	C145.094360,67.631248 148.816620,67.591011 152.653366,69.224564 
	C150.952225,71.535431 148.475662,70.140282 146.142975,70.385696 
	C147.779297,70.542679 149.446182,70.474953 151.474030,70.616142 
	C152.501495,71.402527 152.247314,72.124947 151.620911,73.176224 
	C150.734177,74.086685 149.981995,74.469620 148.802216,74.959122 
	C145.829163,75.397842 143.250732,75.873001 140.468063,74.290100 
z"/>
<path fill="#EE6E6E" opacity="1.000000" stroke="none" 
	d="
M97.996506,60.261909 
	C99.017799,59.997925 99.846603,60.026653 101.096252,60.084576 
	C101.324593,60.833172 101.132103,61.552574 100.830597,62.626251 
	C100.428482,63.437119 100.118248,63.884979 99.943443,64.692062 
	C99.908653,66.036324 99.916901,67.112267 99.875229,68.588890 
	C98.494965,71.287407 101.772636,73.847519 99.134613,76.299698 
	C98.142197,76.786774 97.445930,76.772469 96.504570,76.186378 
	C96.185471,72.572495 96.121758,69.216080 95.986496,65.435524 
	C96.544647,63.525799 97.174332,62.040211 97.996506,60.261909 
z"/>
<path fill="#E54646" opacity="1.000000" stroke="none" 
	d="
M165.132233,87.750931 
	C162.900009,87.705345 160.967682,86.939987 159.873886,84.431129 
	C160.982620,82.704948 162.421051,82.687988 164.336426,83.531097 
	C164.838226,84.303116 164.978745,84.795227 165.228165,85.657677 
	C165.287964,86.487801 165.238861,86.947601 165.132233,87.750931 
z"/>
<path fill="#E63234" opacity="1.000000" stroke="none" 
	d="
M106.547180,95.745316 
	C106.887939,96.218231 106.911118,96.418732 106.899139,96.921432 
	C105.410393,98.335503 103.834297,99.151909 101.617798,99.279060 
	C101.048149,99.155106 100.823463,99.007797 100.434059,98.490501 
	C100.126396,97.277351 100.277626,96.495995 101.090408,95.529922 
	C103.055511,94.562775 104.663818,94.499855 106.547180,95.745316 
z"/>
<path fill="#E63234" opacity="1.000000" stroke="none" 
	d="
M96.529434,101.882996 
	C96.187233,101.248749 96.136986,100.491524 96.157822,99.360123 
	C97.429474,97.795586 98.789192,97.750771 100.599785,98.688629 
	C100.950432,98.949806 101.111572,99.124596 101.192207,99.213501 
	C99.789017,100.121613 98.305199,100.940819 96.529434,101.882996 
z"/>
<path fill="#EE6E6E" opacity="1.000000" stroke="none" 
	d="
M103.934311,82.529144 
	C101.698837,82.891563 99.381111,82.918747 96.632256,82.930283 
	C96.489540,81.818535 97.681015,80.727455 96.211243,79.307243 
	C97.083138,76.962090 98.622437,76.759590 100.851486,77.676414 
	C101.219475,77.903389 101.302582,77.850540 101.351852,77.856026 
	C100.057281,80.528069 103.033073,80.750900 103.934311,82.529144 
z"/>
<path fill="#EB2C2D" opacity="1.000000" stroke="none" 
	d="
M100.970413,98.589920 
	C99.639236,98.962624 98.328041,98.975433 96.622879,98.987099 
	C96.184349,97.921196 96.139793,96.856438 96.162178,95.396271 
	C96.400185,94.849464 96.571251,94.698074 97.076431,94.464691 
	C98.603256,94.386337 99.668221,94.758018 100.800003,95.777924 
	C100.991890,96.785767 100.991142,97.507889 100.970413,98.589920 
z"/>
<path fill="#E85A5A" opacity="1.000000" stroke="none" 
	d="
M101.328735,77.764893 
	C99.749680,78.073784 98.195412,77.751854 96.527023,78.822891 
	C96.170792,78.224930 96.138527,77.456993 96.177719,76.308990 
	C96.943184,75.943306 97.637192,75.957695 98.678177,75.964851 
	C99.936371,75.355324 100.706955,75.536560 101.396774,76.825089 
	C101.434265,77.273605 101.438004,77.626404 101.328735,77.764893 
z"/>
<path fill="#E63234" opacity="1.000000" stroke="none" 
	d="
M97.254280,94.779236 
	C97.038361,94.985596 96.633789,94.996490 96.431458,94.998672 
	C96.180153,93.624687 96.131180,92.248520 96.147133,90.463272 
	C96.335945,89.885841 96.459846,89.717491 96.757805,89.809929 
	C96.943489,90.486122 96.955124,90.901527 96.968109,91.628616 
	C97.115982,92.073334 97.262512,92.206360 97.559784,92.596512 
	C97.742622,93.050224 97.774727,93.246819 97.770294,93.740128 
	C97.645920,94.215523 97.558060,94.394203 97.254280,94.779236 
z"/>
<path fill="#E54646" opacity="1.000000" stroke="none" 
	d="
M96.956284,90.045364 
	C96.931862,90.070724 96.572243,90.049789 96.392151,90.051987 
	C96.177765,89.872581 96.143478,89.690971 96.165863,89.237579 
	C96.222534,88.965805 96.652359,89.007675 96.866104,89.038239 
	C97.224106,89.227394 97.368347,89.385994 97.271347,89.757202 
	C97.030106,89.969826 96.980713,90.020012 96.956284,90.045364 
z"/>
<path fill="#E54646" opacity="1.000000" stroke="none" 
	d="
M162.327789,78.713676 
	C163.583435,79.696136 164.056061,80.587944 164.534973,81.787560 
	C161.448654,83.876892 158.042084,82.555557 154.412720,82.997620 
	C153.751160,82.798302 153.499069,82.680229 152.957535,82.261337 
	C152.461472,81.432106 152.423111,80.892097 152.774719,79.995270 
	C155.681915,77.962395 158.678421,78.834396 162.327789,78.713676 
z"/>
<path fill="#E54646" opacity="1.000000" stroke="none" 
	d="
M158.976868,73.817230 
	C160.290176,74.399284 160.733124,74.854652 161.312958,75.602547 
	C159.457977,78.281303 156.533432,76.937515 153.727203,77.848137 
	C151.273819,78.380112 149.308624,77.846016 146.894897,77.478180 
	C144.751511,77.240952 142.799789,77.562943 141.584717,74.629112 
	C147.357483,74.985062 152.599579,73.103073 158.976868,73.817230 
z"/>
<path fill="#EE6E6E" opacity="1.000000" stroke="none" 
	d="
M153.103088,82.199905 
	C156.807968,81.974617 160.250992,82.016029 164.117645,82.076401 
	C164.616409,82.474792 164.691559,82.854233 164.732208,83.522331 
	C163.342590,83.878014 161.987473,83.945023 160.223694,84.046280 
	C158.791473,84.049545 157.767914,84.018570 156.360077,83.970634 
	C154.763123,83.811729 153.439880,83.902885 153.103088,82.199905 
z"/>
<path fill="#E85A5A" opacity="1.000000" stroke="none" 
	d="
M152.868011,77.405136 
	C155.288025,75.094856 158.025909,76.454552 160.984650,75.933876 
	C161.865189,76.406303 162.280533,76.917534 162.734283,77.677368 
	C160.081818,79.861084 157.068420,78.749802 153.768463,78.667450 
	C153.155533,78.278648 152.955917,78.057976 152.868011,77.405136 
z"/>
<path fill="#E54646" opacity="1.000000" stroke="none" 
	d="
M152.285339,71.425064 
	C149.674896,71.149887 147.430923,71.149887 145.186951,71.149887 
	C145.177292,70.863701 145.167633,70.577507 145.157974,70.291321 
	C147.552246,70.111626 149.946518,69.931931 152.693268,69.572937 
	C153.926529,69.771141 154.807312,70.148659 155.855591,70.769913 
	C155.058807,72.025665 153.909180,72.127487 152.285339,71.425064 
z"/>
<path fill="#EE6E6E" opacity="1.000000" stroke="none" 
	d="
M151.823914,71.376785 
	C153.013641,71.115356 154.108429,71.080833 155.613129,71.029984 
	C156.522675,71.288269 157.022278,71.562889 157.730804,72.042511 
	C156.349243,75.210922 153.856018,73.740234 151.298492,73.210587 
	C151.227493,72.459290 151.478241,72.031494 151.823914,71.376785 
z"/>
<path fill="#E63234" opacity="1.000000" stroke="none" 
	d="
M150.703369,72.940605 
	C153.089340,72.819450 155.201950,72.751816 157.627136,72.465851 
	C158.515793,72.646683 159.091858,73.045853 159.757584,73.694473 
	C159.847244,73.943924 159.807205,74.023087 159.788635,74.063370 
	C156.504288,74.914726 153.193954,74.344933 149.534363,74.163010 
	C149.586166,73.600609 150.008087,73.297371 150.703369,72.940605 
z"/>
<path fill="#EB2C2D" opacity="1.000000" stroke="none" 
	d="
M153.048248,78.399963 
	C156.157959,78.013474 159.036545,77.995224 162.343903,77.951485 
	C162.772675,77.925987 163.032410,78.331123 163.071594,78.567726 
	C163.110794,78.804329 162.989914,78.922058 162.936478,78.987350 
	C160.052017,79.939064 157.145035,79.300117 153.845917,79.441292 
	C153.214325,79.190414 153.015717,78.979309 153.048248,78.399963 
z"/>
<path fill="#717764" opacity="1.000000" stroke="none" 
	d="
M115.135666,63.036808 
	C115.327721,66.132126 113.848221,66.345650 110.785179,65.416222 
	C115.371262,64.547714 110.411598,59.768860 114.937141,58.861206 
	C115.005341,60.147877 115.071571,61.397182 115.135666,63.036808 
z"/>
<path fill="#EA7877" opacity="1.000000" stroke="none" 
	d="
M101.620224,76.974472 
	C100.862030,76.874168 100.289795,76.474739 99.371353,76.016464 
	C100.991142,73.734879 97.020355,71.329147 99.530701,69.051842 
	C100.216125,71.620956 101.969681,73.901108 101.620224,76.974472 
z"/>
<path fill="#0A2F35" opacity="1.000000" stroke="none" 
	d="
M116.382980,72.422707 
	C115.802269,73.221252 116.493164,74.890572 114.885239,74.331848 
	C114.620331,73.863022 114.526230,73.695717 114.477005,73.244011 
	C114.397125,72.807320 114.272354,72.655037 114.294907,72.246826 
	C114.883797,71.615181 115.392799,71.449295 116.304138,71.256317 
	C116.475311,71.319824 116.313591,71.626442 116.382980,72.422707 
z"/>
<path fill="#DECEA4" opacity="1.000000" stroke="none" 
	d="
M116.740067,73.282158 
	C116.614075,72.912354 116.665413,72.930840 116.635880,72.899651 
	C117.543655,73.080994 118.634148,73.002281 119.138557,74.065475 
	C119.210136,74.216339 118.969452,74.703140 118.794327,74.752113 
	C117.820900,75.024368 117.289055,74.409531 116.740067,73.282158 
z"/>
<path fill="#EA7877" opacity="1.000000" stroke="none" 
	d="
M100.139778,64.793983 
	C98.988487,64.165924 99.131531,63.545933 100.466408,63.030678 
	C100.607437,63.529545 100.493294,64.078560 100.139778,64.793983 
z"/>
<path fill="#DECEA4" opacity="1.000000" stroke="none" 
	d="
M116.640289,71.050583 
	C116.796379,71.941963 116.420059,72.247917 114.988289,71.976250 
	C114.442230,71.990891 114.501183,72.000031 114.529427,72.009613 
	C114.294930,71.891373 114.032196,71.763550 113.896759,71.216843 
	C114.580612,70.567741 115.149483,70.531601 116.138634,70.845757 
	C116.546600,71.001740 116.643555,71.087952 116.640289,71.050583 
z"/>
<path fill="#365054" opacity="1.000000" stroke="none" 
	d="
M114.347504,70.852608 
	C114.154106,71.339615 114.176704,71.504883 114.378487,71.844673 
	C112.523773,72.634804 112.923569,71.366364 113.581268,70.110962 
	C114.186096,70.177956 114.374802,70.354408 114.347504,70.852608 
z"/>
<path fill="#717764" opacity="1.000000" stroke="none" 
	d="
M114.534698,71.150360 
	C114.120483,70.977585 114.109467,70.780823 114.047920,70.292778 
	C114.749901,70.097458 115.502411,70.193405 116.400757,70.645554 
	C116.010368,71.043282 115.474129,71.084824 114.534698,71.150360 
z"/>
<path fill="#365054" opacity="1.000000" stroke="none" 
	d="
M114.307045,73.786034 
	C112.965668,73.714005 113.117043,73.135529 114.283737,72.690720 
	C114.558624,73.121880 114.487381,73.311874 114.307045,73.786034 
z"/>
<path fill="#DECEA4" opacity="1.000000" stroke="none" 
	d="
M114.328110,74.073586 
	C114.208443,73.857521 114.218925,73.644859 114.429642,73.182037 
	C114.629868,72.931892 114.581985,72.977585 114.551941,72.968597 
	C114.627769,73.124786 114.733643,73.289978 114.776978,73.742752 
	C114.714439,74.030334 114.458260,74.076981 114.328110,74.073586 
z"/>
<path fill="#537D90" opacity="1.000000" stroke="none" 
	d="
M153.254654,81.893906 
	C154.124985,82.449333 154.885040,82.965462 155.810440,83.717636 
	C149.877365,84.738243 143.828613,85.676376 138.546967,89.193260 
	C137.188217,90.098000 136.056076,89.740860 135.054596,88.073631 
	C135.649872,86.699310 136.380386,85.654182 137.272720,84.320557 
	C137.707245,80.025589 141.196655,80.169716 144.153046,79.031967 
	C145.064148,78.859009 145.590363,78.825836 146.509247,78.864563 
	C148.861313,79.386925 151.001572,79.449478 152.694061,81.472069 
	C152.923279,81.777458 153.144363,81.854599 153.254654,81.893906 
z"/>
<path fill="#0A3135" opacity="1.000000" stroke="none" 
	d="
M128.249573,91.898361 
	C123.775612,88.457764 129.734833,88.637817 129.941910,86.334961 
	C131.235626,86.043762 132.543823,85.943253 133.023102,87.903152 
	C131.583084,89.449379 130.074844,90.632156 128.249573,91.898361 
z"/>
<path fill="#F38180" opacity="1.000000" stroke="none" 
	d="
M146.882416,79.717644 
	C146.447311,79.894913 146.208176,79.541611 146.208176,79.541611 
	C146.208176,79.541611 145.781036,79.547401 145.667267,79.727432 
	C143.982727,79.114784 142.028000,79.729431 140.325928,78.255997 
	C139.994659,76.893074 139.901306,75.820221 139.974121,74.378174 
	C142.841629,73.992813 145.542984,73.976646 148.704285,73.932159 
	C152.409683,73.950478 155.655106,73.997116 159.335297,74.073708 
	C154.366821,76.194664 148.641144,74.181404 143.063156,75.362480 
	C144.063843,76.468971 145.290680,75.745499 146.715179,76.027359 
	C147.999405,77.164642 148.035080,78.328453 146.882416,79.717644 
z"/>
<path fill="#0A3135" opacity="1.000000" stroke="none" 
	d="
M139.812561,77.977234 
	C141.909409,78.177200 143.952133,77.339188 145.500488,79.501907 
	C142.870010,80.865440 140.058807,81.562363 137.679047,83.836426 
	C136.509003,84.005203 135.583466,83.978340 134.201416,83.918106 
	C133.501602,83.529907 133.371140,83.139343 133.484192,82.416397 
	C133.704361,81.951233 133.812302,81.776878 134.148041,81.401428 
	C135.026825,80.772858 135.734695,80.434700 136.567474,79.772842 
	C137.084259,79.377968 137.394409,79.178299 137.954391,78.866577 
	C138.330597,78.619270 138.472595,78.508354 138.800293,78.201096 
	C139.169693,77.999352 139.353409,77.993950 139.812561,77.977234 
z"/>
<path fill="#D83234" opacity="1.000000" stroke="none" 
	d="
M133.221436,82.194138 
	C132.994995,76.206421 132.994995,76.206421 136.894592,77.844246 
	C137.260178,80.069801 135.786484,80.780220 134.264923,81.871490 
	C134.042145,82.122650 134.041504,82.042740 134.078979,82.056633 
	C133.910904,82.183380 133.705368,82.296227 133.221436,82.194138 
z"/>
<path fill="#E3CBA2" opacity="1.000000" stroke="none" 
	d="
M134.319366,82.374619 
	C134.303207,80.448730 135.934509,79.889717 136.944397,78.423897 
	C137.499512,78.074097 137.922760,78.018173 138.665985,77.983498 
	C138.985992,78.004753 139.025009,78.469963 138.999222,78.701958 
	C138.751801,79.174026 138.530548,79.414444 138.126404,79.817902 
	C136.827637,80.862610 135.712112,81.744598 134.319366,82.374619 
z"/>
<path fill="#E3CBA2" opacity="1.000000" stroke="none" 
	d="
M132.794205,82.120453 
	C133.140854,81.964897 133.338669,81.950584 133.826447,82.003403 
	C134.215668,82.331009 134.356476,82.585701 134.394012,82.854790 
	C134.409393,82.965073 134.201828,83.106461 133.920288,83.559219 
	C133.071335,83.551735 131.410355,83.887665 132.794205,82.120453 
z"/>
<path fill="#0A3135" opacity="1.000000" stroke="none" 
	d="
M129.991318,86.006546 
	C129.874496,85.875771 129.765884,85.738602 129.657272,85.601433 
	C129.737366,85.645844 129.817459,85.690247 129.954865,85.859299 
	C130.012192,85.983948 129.999527,86.000153 129.991318,86.006546 
z"/>
<path fill="#E85A5A" opacity="1.000000" stroke="none" 
	d="
M97.352150,95.132629 
	C97.038361,94.985596 97.016457,94.514839 97.015678,94.279205 
	C99.966347,92.292000 103.079803,92.970596 106.574326,93.692276 
	C106.992233,94.414314 107.014626,94.876709 106.950890,95.678406 
	C105.187340,96.018951 103.509918,96.020187 101.412567,96.042526 
	C99.883736,95.802315 98.774841,95.540993 97.352150,95.132629 
z"/>
<path fill="#EA7877" opacity="1.000000" stroke="none" 
	d="
M97.412491,93.232094 
	C96.975098,92.846931 96.953903,92.666313 96.951080,92.212997 
	C99.801720,91.933189 102.633972,91.926079 105.950089,91.877983 
	C106.657242,92.065361 106.880539,92.293716 107.050919,92.769516 
	C103.980545,94.008591 100.885086,93.296082 97.412491,93.232094 
z"/>
<path fill="#EB2C2D" opacity="1.000000" stroke="none" 
	d="
M96.999748,93.281586 
	C100.027550,93.026077 103.058792,93.024590 106.544022,93.020035 
	C106.998009,93.016960 107.103394,93.488487 107.036613,93.720207 
	C103.952553,93.969810 100.935272,93.987694 97.466446,94.024582 
	C97.011002,93.874260 97.007095,93.704933 96.999748,93.281586 
z"/>
<path fill="#EE6E6E" opacity="1.000000" stroke="none" 
	d="
M97.473091,89.970215 
	C97.030106,89.969826 97.033951,89.517586 97.056900,89.293198 
	C100.067902,89.048462 103.055946,89.028114 106.490112,89.026825 
	C104.106575,91.081245 100.910408,89.541512 97.473091,89.970215 
z"/>
<path fill="#0A3135" opacity="1.000000" stroke="none" 
	d="
M146.754303,80.139229 
	C146.630981,78.877655 146.814651,77.860397 147.046661,76.449730 
	C148.971298,75.444740 150.407715,77.238152 152.598343,76.983078 
	C153.030014,77.149200 153.080307,77.325424 153.205002,77.766678 
	C153.279388,78.031715 153.127792,78.479164 153.151505,78.714188 
	C153.308746,79.127975 153.442261,79.306725 153.367676,79.747559 
	C153.107147,80.402855 153.054718,80.796043 152.962799,81.483353 
	C150.969284,81.312820 149.015305,80.848183 146.754303,80.139229 
z"/>
<path fill="#EA7877" opacity="1.000000" stroke="none" 
	d="
M153.593781,80.011345 
	C153.112122,79.832352 153.064697,79.655045 153.096237,79.213478 
	C156.118759,78.976059 159.062317,79.002892 162.444458,79.041191 
	C160.096130,80.892029 156.968735,79.591843 153.593781,80.011345 
z"/>
<path fill="#0C3035" opacity="1.000000" stroke="none" 
	d="
M138.170547,79.867233 
	C138.122162,79.690903 138.301163,79.401176 138.726807,79.022705 
	C138.781601,79.207245 138.589752,79.480530 138.170547,79.867233 
z"/>
</svg>