<svg version="1.1" id="Layer_1" xmlns="http://www.w3.org/2000/svg" xmlns:xlink="http://www.w3.org/1999/xlink" x="0px" y="0px"
	 width="100%" viewBox="0 0 225 225" enable-background="new 0 0 225 225" xml:space="preserve">
<path fill="#FFFFFF" opacity="1.000000" stroke="none" 
	d="
M155.000000,226.000000 
	C103.333336,226.000000 52.166672,226.000000 1.000007,226.000000 
	C1.000005,151.000000 1.000005,76.000015 1.000002,1.000017 
	C75.999992,1.000011 150.999985,1.000011 225.999969,1.000006 
	C225.999985,75.999985 225.999985,150.999969 226.000000,225.999969 
	C202.500000,226.000000 179.000000,226.000000 155.000000,226.000000 
M186.893616,153.541779 
	C187.265472,151.096680 187.950806,148.652802 187.960159,146.206314 
	C188.043915,124.307144 188.081543,102.406967 187.919113,80.508682 
	C187.898041,77.668526 186.663757,74.837357 185.839554,71.338226 
	C183.901947,69.558220 182.208344,67.360565 179.988510,66.063629 
	C160.482483,54.667221 140.882065,43.432388 121.311096,32.147095 
	C116.084633,29.133341 110.926270,29.267212 105.717842,32.280075 
	C86.451614,43.424801 67.191628,54.581059 47.859367,65.610413 
	C42.255707,68.807388 39.527370,73.259903 39.563213,79.786469 
	C39.686562,102.247047 39.527462,124.709435 39.716831,147.169098 
	C39.741974,150.151138 41.156750,153.121429 42.179943,156.726974 
	C43.977665,158.175140 45.623734,159.884216 47.596626,161.031036 
	C66.829803,172.211227 86.137665,183.262909 105.377281,194.432098 
	C110.943527,197.663452 116.268639,197.638947 121.841309,194.409470 
	C141.233643,183.171234 160.741562,172.131104 180.058624,160.765945 
	C182.592026,159.275436 184.271530,156.333603 186.893616,153.541779 
z"/>
<path fill="#9A4993" opacity="1.000000" stroke="none" 
	d="
M41.927963,156.097168 
	C41.156750,153.121429 39.741974,150.151138 39.716831,147.169098 
	C39.527462,124.709435 39.686562,102.247047 39.563213,79.786469 
	C39.527370,73.259903 42.255707,68.807388 47.859367,65.610413 
	C67.191628,54.581059 86.451614,43.424801 105.717842,32.280075 
	C110.926270,29.267212 116.084633,29.133341 121.311096,32.147095 
	C140.882065,43.432388 160.482483,54.667221 179.988510,66.063629 
	C182.208344,67.360565 183.901947,69.558220 185.561523,71.701965 
	C175.584946,77.385666 165.886383,82.705635 155.968063,87.759216 
	C155.085693,86.538879 154.441727,85.571342 153.757721,84.632988 
	C141.718460,68.116837 121.094139,60.454216 101.815689,65.328812 
	C82.257942,70.274033 68.039848,86.344490 64.812767,106.555611 
	C63.054951,117.564850 66.030151,127.552765 70.011841,137.776855 
	C64.615860,141.232971 59.292801,144.221161 54.158352,147.504303 
	C49.964706,150.185852 45.996258,153.219574 41.927963,156.097168 
z"/>
<path fill="#6B1677" opacity="1.000000" stroke="none" 
	d="
M42.053955,156.412079 
	C45.996258,153.219574 49.964706,150.185852 54.158352,147.504303 
	C59.292801,144.221161 64.615860,141.232971 70.304451,137.984421 
	C72.076859,139.766281 73.287003,141.773972 74.745628,143.581085 
	C87.008942,158.774414 103.460289,165.562286 122.179749,162.445282 
	C136.241547,160.103821 148.178772,151.766785 156.429688,139.003876 
	C163.126434,142.403290 169.411972,145.879852 175.787872,149.181976 
	C179.227585,150.963425 182.821930,152.446350 186.346527,154.063965 
	C184.271530,156.333603 182.592026,159.275436 180.058624,160.765945 
	C160.741562,172.131104 141.233643,183.171234 121.841309,194.409470 
	C116.268639,197.638947 110.943527,197.663452 105.377281,194.432098 
	C86.137665,183.262909 66.829803,172.211227 47.596626,161.031036 
	C45.623734,159.884216 43.977665,158.175140 42.053955,156.412079 
z"/>
<path fill="#823185" opacity="1.000000" stroke="none" 
	d="
M186.620056,153.802856 
	C182.821930,152.446350 179.227585,150.963425 175.787872,149.181976 
	C169.411972,145.879852 163.126434,142.403290 156.414917,138.639954 
	C149.811249,134.430389 143.621063,130.538284 137.351227,126.778984 
	C136.492416,126.264053 135.237183,126.410255 134.008713,125.923767 
	C132.279938,124.418648 130.765778,123.151741 129.125000,122.078346 
	C124.445229,119.016861 119.713936,116.034119 115.191940,112.740463 
	C121.645386,108.502777 127.909798,104.545013 134.514633,100.645065 
	C141.965973,96.477112 149.076904,92.251350 156.187836,88.025589 
	C165.886383,82.705635 175.584946,77.385666 185.637466,72.033867 
	C186.663757,74.837357 187.898041,77.668526 187.919113,80.508682 
	C188.081543,102.406967 188.043915,124.307144 187.960159,146.206314 
	C187.950806,148.652802 187.265472,151.096680 186.620056,153.802856 
M173.383423,105.137848 
	C172.536987,104.002403 171.690536,102.866951 170.844116,101.731514 
	C169.852219,102.484795 168.579849,103.051018 167.926788,104.030266 
	C166.565048,106.072128 163.552002,106.182243 162.112259,104.172951 
	C161.418076,103.204147 159.704224,101.698746 159.466827,101.867104 
	C157.246979,103.441444 154.990097,105.122795 153.322449,107.230820 
	C152.732635,107.976372 153.728836,109.983742 154.028610,111.409218 
	C154.047668,111.499847 154.301987,111.555801 154.454773,111.601341 
	C159.535172,113.115593 157.060867,114.397591 154.564758,116.393288 
	C148.590714,121.169640 159.008636,120.841682 157.250610,124.448204 
	C158.751556,124.594795 160.252106,124.746048 161.755020,124.868423 
	C161.807144,124.872673 161.843338,124.545166 161.953323,124.445572 
	C163.433350,123.105392 164.925186,121.778252 167.172791,119.769958 
	C167.824615,122.660378 168.103043,123.895081 168.349121,124.986237 
	C172.001480,126.600594 172.306915,123.590683 174.038605,121.912292 
	C175.316238,120.673981 177.768814,120.455406 176.839432,118.043861 
	C176.402878,116.911118 174.584808,116.310806 173.162262,115.306458 
	C173.162262,114.185661 173.162262,112.722351 173.162262,112.182663 
	C174.800217,110.567680 176.269577,109.639824 176.804794,108.330200 
	C177.013641,107.819168 175.120972,106.449265 173.383423,105.137848 
z"/>
<path fill="#FEFDFE" opacity="1.000000" stroke="none" 
	d="
M155.968063,87.759209 
	C149.076904,92.251350 141.965973,96.477112 134.459045,100.322212 
	C126.804390,87.756973 110.312469,86.362762 100.206017,92.834129 
	C88.963730,100.032806 85.913437,114.230789 93.007080,126.438019 
	C104.393318,141.903229 124.874680,141.648758 134.165497,126.250351 
	C135.237183,126.410255 136.492416,126.264053 137.351227,126.778984 
	C143.621063,130.538284 149.811249,134.430389 156.041351,138.644455 
	C148.178772,151.766785 136.241547,160.103821 122.179749,162.445282 
	C103.460289,165.562286 87.008942,158.774414 74.745628,143.581085 
	C73.287003,141.773972 72.076859,139.766281 70.458923,137.644012 
	C66.030151,127.552765 63.054951,117.564850 64.812767,106.555611 
	C68.039848,86.344490 82.257942,70.274033 101.815689,65.328812 
	C121.094139,60.454216 141.718460,68.116837 153.757721,84.632988 
	C154.441727,85.571342 155.085693,86.538879 155.968063,87.759209 
z"/>
<path fill="#9A4993" opacity="1.000000" stroke="none" 
	d="
M92.908852,126.115509 
	C85.913437,114.230789 88.963730,100.032806 100.206017,92.834129 
	C110.312469,86.362762 126.804390,87.756973 134.118622,100.264404 
	C127.909798,104.545013 121.645386,108.502777 114.835815,112.773972 
	C107.163391,117.430107 100.036118,121.772812 92.908852,126.115509 
z"/>
<path fill="#6B1778" opacity="1.000000" stroke="none" 
	d="
M93.007080,126.438011 
	C100.036118,121.772812 107.163391,117.430107 114.646790,113.053894 
	C119.713936,116.034119 124.445229,119.016861 129.125000,122.078346 
	C130.765778,123.151741 132.279938,124.418648 134.008713,125.923767 
	C124.874680,141.648758 104.393318,141.903229 93.007080,126.438011 
z"/>
<path fill="#F9F6F9" opacity="1.000000" stroke="none" 
	d="
M173.784454,105.304199 
	C175.120972,106.449265 177.013641,107.819168 176.804794,108.330200 
	C176.269577,109.639824 174.800217,110.567680 173.162262,112.182663 
	C173.162262,112.722351 173.162262,114.185661 173.162262,115.306458 
	C174.584808,116.310806 176.402878,116.911118 176.839432,118.043861 
	C177.768814,120.455406 175.316238,120.673981 174.038605,121.912292 
	C172.306915,123.590683 172.001480,126.600594 168.349121,124.986237 
	C168.103043,123.895081 167.824615,122.660378 167.172791,119.769958 
	C164.925186,121.778252 163.433350,123.105392 161.953323,124.445572 
	C161.843338,124.545166 161.807144,124.872673 161.755020,124.868423 
	C160.252106,124.746048 158.751556,124.594795 157.250610,124.448204 
	C159.008636,120.841682 148.590714,121.169640 154.564758,116.393288 
	C157.060867,114.397591 159.535172,113.115593 154.454773,111.601341 
	C154.301987,111.555801 154.047668,111.499847 154.028610,111.409218 
	C153.728836,109.983742 152.732635,107.976372 153.322449,107.230820 
	C154.990097,105.122795 157.246979,103.441444 159.466827,101.867104 
	C159.704224,101.698746 161.418076,103.204147 162.112259,104.172951 
	C163.552002,106.182243 166.565048,106.072128 167.926788,104.030266 
	C168.579849,103.051018 169.852219,102.484795 170.844116,101.731506 
	C171.690536,102.866951 172.536987,104.002403 173.784454,105.304199 
M162.144135,112.584763 
	C161.745285,117.908981 165.090775,116.124985 168.076920,115.934868 
	C167.967941,113.978508 167.880768,112.413376 167.760239,110.249489 
	C165.554550,110.821869 163.894882,111.252548 162.144135,112.584763 
z"/>
<path fill="#802983" opacity="1.000000" stroke="none" 
	d="
M162.189667,112.133995 
	C163.894882,111.252548 165.554550,110.821869 167.760239,110.249489 
	C167.880768,112.413376 167.967941,113.978508 168.076920,115.934868 
	C165.090775,116.124985 161.745285,117.908981 162.189667,112.133995 
z"/>
</svg>