<svg version="1.1" id="Layer_1" xmlns="http://www.w3.org/2000/svg" xmlns:xlink="http://www.w3.org/1999/xlink" x="0px" y="0px"
	 width="100%" viewBox="0 0 225 225" enable-background="new 0 0 225 225" xml:space="preserve">
<path fill="#FEFEFE" opacity="1.000000" stroke="none" 
	d="
M128.000000,226.000000 
	C86.500000,226.000000 45.499882,225.959579 4.500261,226.083755 
	C1.516912,226.092789 0.913466,225.482285 0.917787,222.499893 
	C1.023051,149.833374 1.023047,77.166656 0.917792,4.500140 
	C0.913472,1.517828 1.517667,0.913462 4.500098,0.917783 
	C77.166611,1.023050 149.833344,1.023045 222.499847,0.917795 
	C225.482132,0.913475 226.086548,1.517622 226.082230,4.500084 
	C225.976959,77.166595 225.976959,149.833328 226.082199,222.499832 
	C226.086517,225.482071 225.484024,226.097839 222.499680,226.084778 
	C191.166931,225.947586 159.833344,226.000000 128.000000,226.000000 
z"/>
<path fill="#070707" opacity="1.000000" stroke="none" 
	d="
M44.944481,118.043091 
	C31.809963,98.942772 31.386250,74.435043 43.726532,58.520145 
	C59.945694,37.602757 90.685493,34.218098 111.217331,51.284473 
	C113.924004,53.534306 115.611954,53.766563 118.711723,51.905468 
	C145.936615,35.559666 178.736938,45.794395 189.144730,74.018295 
	C195.302872,90.718010 192.567383,106.370941 181.639053,120.475349 
	C180.002350,122.587715 178.646072,124.610413 177.985825,127.355446 
	C176.658401,132.874176 172.760803,136.180878 167.140854,136.946655 
	C165.071869,137.228577 164.446655,137.807617 164.139084,139.859192 
	C163.161377,146.380692 159.243347,150.263702 152.669983,151.082703 
	C150.757965,151.320938 150.358063,152.015030 150.017517,153.788055 
	C148.510178,161.635941 144.115082,165.226913 136.246185,165.378433 
	C134.864136,165.405029 133.697906,164.787735 132.877365,167.006973 
	C129.981522,174.839066 123.521751,179.950089 117.147583,184.564377 
	C109.588226,190.036682 99.165932,185.099838 97.207710,175.580338 
	C96.717896,173.199188 96.214783,172.405228 93.746559,172.044556 
	C87.856445,171.183823 84.136345,167.373276 83.148949,161.640045 
	C82.680496,158.920044 81.808289,158.364227 79.308548,157.873886 
	C73.570000,156.748230 69.850487,153.075058 68.968185,147.170212 
	C68.643242,144.995499 68.058952,144.291153 65.765266,143.857483 
	C58.757721,142.532516 55.015209,138.226151 54.594913,131.198517 
	C54.461918,128.974701 53.694809,127.543457 52.210358,126.064232 
	C49.740814,123.603416 47.484596,120.928513 44.944481,118.043091 
z"/>
<path fill="#FBFBFB" opacity="1.000000" stroke="none" 
	d="
M58.783653,53.664486 
	C74.890182,44.311661 92.024330,44.988792 105.464203,55.060722 
	C108.682114,57.472256 109.804909,58.936981 106.113235,62.350040 
	C97.311142,70.487846 89.177261,79.344490 80.484772,87.607056 
	C77.733818,90.221931 78.370399,91.473656 80.753311,93.622742 
	C90.206329,102.148125 104.065956,101.943810 113.737831,92.813560 
	C118.218910,88.583405 122.554771,84.191948 126.808540,79.732521 
	C128.292618,78.176682 129.147980,78.115715 130.692459,79.675949 
	C143.586456,92.701477 156.568069,105.640251 169.514542,118.613892 
	C172.576004,121.681793 173.010468,124.997597 170.035294,128.325180 
	C167.286179,131.399918 163.457718,131.290817 159.973083,127.885231 
	C151.277084,119.386497 142.743729,110.721222 134.037018,102.233650 
	C132.099442,100.344833 130.085541,96.262207 126.863609,99.474472 
	C123.472473,102.855438 127.576599,105.040497 129.605698,107.105354 
	C138.130173,115.780014 146.839157,124.273468 155.356613,132.954880 
	C159.485611,137.163330 157.808395,143.285797 152.369797,144.557175 
	C149.352753,145.262466 147.302643,143.595169 145.375809,141.668396 
	C137.129456,133.422241 128.890060,125.169113 120.647118,116.919563 
	C119.940529,116.212410 119.178421,115.554443 118.525078,114.801605 
	C116.844719,112.865341 114.735840,111.389221 112.560745,113.427673 
	C109.991356,115.835648 112.081566,117.880173 113.931953,119.696068 
	C115.834625,121.563286 117.706367,123.462029 119.591728,125.346893 
	C126.543968,132.297256 133.535522,139.208893 140.433594,146.212616 
	C144.487503,150.328629 144.711197,153.842422 141.359360,157.007706 
	C138.274460,159.920898 134.747421,159.497513 130.852951,155.739685 
	C130.614655,155.509750 130.407028,155.246277 130.197937,154.988037 
	C127.483536,151.635269 122.721191,151.811310 119.954811,149.639404 
	C117.636253,147.819077 118.151001,142.629669 115.187660,139.831589 
	C112.389542,137.189514 107.840881,137.462845 105.645325,135.292038 
	C103.619637,133.289185 103.946541,128.805542 101.452423,126.115929 
	C98.692230,123.139389 93.893272,123.414291 91.597664,121.190796 
	C89.311333,118.976280 89.656746,114.084267 86.636093,111.316528 
	C81.518364,106.627319 73.833344,106.463150 68.530464,111.228027 
	C65.438988,114.005867 62.576878,117.043167 59.672562,120.023178 
	C58.401836,121.327034 57.614773,121.971336 55.809513,120.292313 
	C37.090675,102.882416 35.077969,69.073669 58.783653,53.664486 
z"/>
<path fill="#FCFCFC" opacity="1.000000" stroke="none" 
	d="
M166.585236,56.278778 
	C187.408691,70.279671 191.770950,96.367561 176.719116,115.769402 
	C175.147552,115.527458 174.508453,114.048782 173.539795,113.084663 
	C160.326340,99.933075 147.161316,86.732841 133.979568,73.549393 
	C128.944366,68.513550 128.530212,68.511978 123.633118,73.396561 
	C118.683594,78.333435 113.823563,83.364075 108.764618,88.186096 
	C103.454979,93.247070 97.204521,94.335365 90.322517,91.870132 
	C88.272430,91.135765 87.180855,90.372559 89.364716,88.239098 
	C98.174706,79.632370 106.547302,70.554619 115.650917,62.277142 
	C129.522842,49.664059 149.334976,47.519135 166.585236,56.278778 
z"/>
<path fill="#F7F7F7" opacity="1.000000" stroke="none" 
	d="
M99.975235,145.780975 
	C104.564369,142.047653 107.824280,141.873474 110.680969,144.939667 
	C113.589966,148.062012 113.187737,151.413467 109.364174,155.326355 
	C106.813354,157.936752 104.254463,160.543427 101.604813,163.052109 
	C97.932137,166.529373 94.579300,166.758270 91.568771,163.880936 
	C88.460144,160.909851 88.691772,157.308640 92.352524,153.465073 
	C94.754753,150.942902 97.268402,148.526840 99.975235,145.780975 
z"/>
<path fill="#F7F7F7" opacity="1.000000" stroke="none" 
	d="
M110.609085,163.610138 
	C112.517174,161.730942 114.049095,159.950943 115.851784,158.509583 
	C118.894203,156.076981 122.028343,156.362671 124.766731,159.050797 
	C127.399086,161.634827 127.705338,164.805115 125.299538,167.515808 
	C121.785606,171.475037 118.043304,175.286514 114.024300,178.723587 
	C111.256332,181.090744 108.018524,180.386902 105.543015,177.800735 
	C103.203606,175.356750 102.930038,172.372894 104.923439,169.644043 
	C106.471466,167.524902 108.525513,165.775406 110.609085,163.610138 
z"/>
<path fill="#F8F8F8" opacity="1.000000" stroke="none" 
	d="
M88.815895,129.153168 
	C92.895149,127.819725 95.891975,129.005783 97.583382,132.316635 
	C99.184479,135.450684 98.159279,138.365616 95.579887,140.806335 
	C92.575119,143.649551 89.800812,146.740692 86.741692,149.520920 
	C83.517212,152.451416 79.648483,152.343643 77.086647,149.355103 
	C74.393105,146.212936 74.596039,143.004486 77.488022,140.081421 
	C81.091728,136.438995 84.784302,132.884491 88.815895,129.153168 
z"/>
<path fill="#FBFBFB" opacity="1.000000" stroke="none" 
	d="
M78.971985,128.932770 
	C76.725334,131.175476 74.800926,133.240082 72.721786,135.134933 
	C69.465950,138.102219 65.699341,138.174149 63.038921,135.305298 
	C60.187393,132.230362 60.398056,128.987915 63.162086,126.016861 
	C66.093758,122.865616 69.153610,119.825829 72.274399,116.860397 
	C75.821877,113.489510 79.408974,113.370674 82.259666,116.563499 
	C85.225601,119.885376 84.644630,123.167358 81.683853,126.218262 
	C80.876434,127.050255 80.045174,127.859100 78.971985,128.932770 
z"/>
</svg>