<svg version="1.1" id="Layer_1" xmlns="http://www.w3.org/2000/svg" xmlns:xlink="http://www.w3.org/1999/xlink" x="0px" y="0px"
	 width="100%" viewBox="0 0 225 225" enable-background="new 0 0 225 225" xml:space="preserve">
<path fill="#FEFEFE" opacity="1.000000" stroke="none" 
	d="
M149.000000,226.000000 
	C99.333336,226.000000 50.166672,226.000000 1.000007,226.000000 
	C1.000004,151.000000 1.000004,76.000015 1.000002,1.000011 
	C74.666656,1.000000 148.333359,1.030416 221.999802,0.903709 
	C225.424225,0.897819 226.102371,1.575538 226.096344,5.000134 
	C225.969025,77.333244 225.969055,149.666687 226.096359,221.999786 
	C226.102386,225.424210 225.428284,226.127930 221.999252,226.100952 
	C197.834061,225.910782 173.666687,226.000000 149.000000,226.000000 
z"/>
<path fill="#FDB941" opacity="1.000000" stroke="none" 
	d="
M144.860245,55.019829 
	C147.686279,55.724358 148.328522,53.380466 149.426193,52.196236 
	C159.689163,41.124073 169.862183,29.968527 180.565109,18.287151 
	C183.878159,31.207106 185.229355,43.668064 184.848587,56.254337 
	C184.148468,79.396637 179.036224,101.341064 166.115997,120.994659 
	C162.356323,126.713676 158.016159,131.941269 153.397293,136.982773 
	C151.374573,139.190582 149.527069,139.890152 146.520615,139.038910 
	C138.217758,136.687988 129.808090,134.714355 121.211151,132.292877 
	C119.522369,129.592468 121.222214,127.835449 122.371071,126.136200 
	C134.447815,108.273697 141.308105,88.565948 143.463226,67.161629 
	C143.730545,64.506561 143.603729,61.848812 143.680908,58.788704 
	C143.701218,57.840061 143.767776,57.301338 143.998962,56.374054 
	C144.254715,55.741421 144.391525,55.502964 144.860245,55.019829 
z"/>
<path fill="#F98201" opacity="1.000000" stroke="none" 
	d="
M144.669250,57.822300 
	C145.005585,81.927307 138.006958,103.846130 125.324059,124.074928 
	C123.835815,126.448639 121.840019,128.517975 120.985184,131.634796 
	C112.651505,131.501343 104.944687,128.170090 96.829742,126.670967 
	C93.423882,126.041779 90.108856,124.920906 86.378357,123.911049 
	C84.655067,121.624039 86.581940,120.415123 87.535545,119.038979 
	C91.343117,113.544235 96.399399,109.125275 100.871933,104.223892 
	C114.428246,89.367737 128.136276,74.650032 141.438065,59.561390 
	C142.216736,58.678116 143.104614,57.928040 144.669250,57.822300 
z"/>
<path fill="#FEB323" opacity="1.000000" stroke="none" 
	d="
M144.996994,57.568054 
	C137.475906,66.063210 129.909073,74.173073 122.410164,82.345245 
	C117.034142,88.203918 111.697891,94.100876 106.436043,100.062080 
	C99.651817,107.748001 91.941681,114.618546 86.049515,123.464378 
	C79.770012,122.316879 73.535843,120.835220 66.564209,119.178291 
	C92.515831,90.754211 117.884224,62.968922 143.304291,35.127029 
	C144.749481,36.433567 144.573898,37.981720 144.847809,39.719032 
	C144.112000,45.043861 144.625687,50.031364 144.676743,55.393311 
	C144.880020,56.256233 144.930176,56.732834 144.996994,57.568054 
z"/>
<path fill="#1F248D" opacity="1.000000" stroke="none" 
	d="
M122.377884,141.411591 
	C109.130905,143.662323 96.671806,147.029755 85.983505,154.981522 
	C83.426765,156.883652 82.677765,155.332458 81.480141,153.604279 
	C74.051994,142.885300 65.760124,132.930313 55.458519,124.810669 
	C52.872051,122.772034 50.154598,120.899582 47.782951,118.144638 
	C74.626091,124.774330 101.469238,131.404022 128.668076,138.211517 
	C129.967590,140.459045 128.213257,140.491013 127.081467,140.815689 
	C125.673813,141.219498 124.149483,140.818802 122.377884,141.411591 
z"/>
<path fill="#646566" opacity="1.000000" stroke="none" 
	d="
M107.970497,184.856110 
	C111.127960,184.881317 113.795265,184.808044 116.449707,184.959732 
	C119.572052,185.138153 121.809082,186.853287 122.885429,189.717239 
	C123.941032,192.525970 123.942101,195.884766 121.499390,197.570023 
	C117.591042,200.266403 119.294228,202.588303 120.896393,205.349564 
	C122.046120,207.331100 123.001167,209.425598 124.199081,211.775787 
	C121.007797,212.772018 119.030045,212.252670 117.886269,209.067551 
	C117.049294,206.736786 115.728508,204.582123 114.661758,202.330780 
	C113.762436,200.432800 112.126175,200.420349 110.415535,200.609848 
	C108.195396,200.855774 108.587906,202.600800 108.548691,204.031525 
	C108.494003,206.026855 108.496407,208.025101 108.531143,210.021088 
	C108.555244,211.406784 108.101753,212.210129 106.559517,212.232193 
	C104.913048,212.255737 104.179543,211.679199 104.209724,209.904144 
	C104.339836,202.252029 104.406693,194.598114 104.404099,186.944885 
	C104.403282,184.537643 106.019684,184.911682 107.970497,184.856110 
z"/>
<path fill="#646567" opacity="1.000000" stroke="none" 
	d="
M177.772614,185.210205 
	C182.690979,184.985672 187.393631,184.934708 192.556671,184.970367 
	C193.168579,185.199646 193.320099,185.342285 193.670807,185.725235 
	C194.362488,188.042679 193.721481,189.073334 191.409729,188.934860 
	C189.269699,188.806656 187.106842,189.034592 184.970200,188.880966 
	C182.078491,188.673035 180.482224,189.161804 180.518051,192.769730 
	C180.554688,196.458633 182.360825,196.781143 185.154572,196.584427 
	C186.634033,196.480270 188.129822,196.627441 189.613419,196.558121 
	C192.123856,196.440842 192.325577,197.788376 191.350067,199.825745 
	C190.807175,199.824860 190.635727,199.710266 190.231598,199.799469 
	C188.365799,200.082916 186.695496,200.420395 185.106949,200.191193 
	C181.197433,199.627075 180.393143,201.427155 180.552917,204.933868 
	C180.673187,207.573807 181.595596,208.372040 184.070877,208.217789 
	C186.522217,208.065002 188.990982,208.207825 191.451767,208.184418 
	C192.873474,208.170898 194.136261,208.285599 193.928574,210.622986 
	C193.720627,211.206024 193.586029,211.369934 193.227783,211.760132 
	C188.307404,212.054581 183.610657,212.122742 178.456207,212.093475 
	C177.761246,211.723267 177.496628,211.480698 176.949463,211.172729 
	C175.812561,203.008820 176.450333,194.924393 176.501495,186.396790 
	C176.882294,185.658249 177.186569,185.466629 177.772614,185.210205 
z"/>
<path fill="#616264" opacity="1.000000" stroke="none" 
	d="
M59.654190,185.321564 
	C62.097778,189.054794 59.853168,193.437042 61.136021,197.517181 
	C66.923683,194.196411 67.756721,185.389206 76.386345,184.616638 
	C74.837830,188.333389 72.418892,190.572189 70.347755,192.984039 
	C68.647728,194.963715 68.622139,196.510803 70.009537,198.673737 
	C72.669968,202.821350 75.033592,207.159348 78.039360,212.307205 
	C68.736580,211.795578 70.176208,202.679214 65.375992,199.603012 
	C60.178967,201.945053 60.741947,206.827316 60.277805,211.635162 
	C59.183983,211.302231 58.268623,211.592621 57.193352,211.166809 
	C56.854923,202.968964 56.781387,194.953232 56.807236,186.478821 
	C57.624344,185.382523 58.527676,185.568451 59.654190,185.321564 
z"/>
<path fill="#5E5F61" opacity="1.000000" stroke="none" 
	d="
M82.317993,200.267365 
	C84.017593,195.695984 85.536957,191.475464 87.079285,187.263367 
	C87.540482,186.003845 87.987068,184.827393 89.768860,184.852386 
	C91.519554,184.876953 91.928543,185.960159 92.402481,187.279953 
	C95.041634,194.629242 97.744896,201.955490 100.394005,209.301239 
	C100.741676,210.265274 101.941818,211.596573 100.101501,212.127106 
	C98.701859,212.530609 97.234245,212.455170 96.453979,210.534836 
	C95.818878,208.971786 96.079231,206.476395 93.759781,206.213074 
	C91.132240,205.914764 88.431984,205.993713 85.786232,206.200943 
	C83.605316,206.371765 83.669983,208.591110 83.226379,210.029724 
	C82.553658,212.211395 81.024940,212.679672 79.412605,211.981247 
	C77.727570,211.251328 79.021904,209.702972 79.353561,208.619034 
	C80.179138,205.920914 81.202553,203.283340 82.317993,200.267365 
z"/>
<path fill="#5D5E60" opacity="1.000000" stroke="none" 
	d="
M35.040703,198.945740 
	C36.456787,194.990845 37.717869,191.394333 39.091686,187.841431 
	C39.590313,186.551895 39.686741,184.923721 41.814617,184.840164 
	C43.910049,184.757889 44.256245,186.211685 44.752388,187.564301 
	C47.375858,194.716675 49.972153,201.879257 52.520718,209.058578 
	C52.863110,210.023087 53.950977,211.417007 52.345787,212.009964 
	C51.023087,212.498566 49.491547,212.517395 48.685562,210.566025 
	C48.034763,208.990372 48.179607,206.513107 45.957031,206.219437 
	C43.348156,205.874695 40.648506,205.983856 38.008858,206.177444 
	C35.824203,206.337662 35.888897,208.559357 35.414158,209.987411 
	C34.721622,212.070633 33.311691,212.698746 31.633999,212.013687 
	C29.731268,211.236771 31.222589,209.743927 31.575136,208.669144 
	C32.606537,205.524689 33.800198,202.433472 35.040703,198.945740 
z"/>
<path fill="#5E5F61" opacity="1.000000" stroke="none" 
	d="
M151.256836,185.891327 
	C153.822693,185.513062 154.910324,186.424622 155.633911,188.519943 
	C158.019226,195.427185 160.651123,202.249100 163.059280,209.148819 
	C163.352768,209.989746 164.868179,211.358810 163.029694,212.028534 
	C161.665482,212.525528 159.645721,212.614609 159.316284,210.669937 
	C158.170975,203.908920 152.980896,206.511246 149.142166,206.127518 
	C146.534424,205.866821 146.496292,208.261902 146.007080,209.873871 
	C145.394012,211.893890 144.116669,212.693314 142.281799,212.103653 
	C139.561935,211.229599 141.803802,209.478271 142.157959,208.569534 
	C145.099442,201.022110 147.031219,193.083328 151.256836,185.891327 
z"/>
<path fill="#616263" opacity="1.000000" stroke="none" 
	d="
M198.280792,211.257904 
	C197.982162,202.981201 197.919785,194.949600 197.941025,186.455231 
	C198.182495,185.833221 198.340332,185.673950 198.742035,185.283081 
	C203.686356,184.998367 208.386826,184.945297 213.548264,184.971725 
	C214.680389,185.734741 214.394272,186.636292 214.724030,187.699890 
	C211.742767,189.956879 208.260483,188.763824 204.960938,188.796387 
	C201.959915,188.826004 201.840622,190.315765 201.929474,192.523682 
	C202.015717,194.667770 201.491653,196.722626 205.003174,196.799667 
	C207.693115,196.858658 210.881958,195.099106 213.092285,198.539810 
	C212.769730,199.195908 212.534149,199.415558 212.154770,199.833618 
	C210.189926,200.086548 208.340942,200.441833 206.587830,200.172623 
	C202.346939,199.521423 201.693802,201.626740 201.868423,205.209274 
	C201.986145,207.624268 202.798538,208.324982 205.078903,208.240524 
	C208.199417,208.124954 211.330093,208.284729 214.657928,208.690842 
	C214.299316,209.783310 214.580521,210.678818 214.190094,211.731888 
	C209.305771,212.050751 204.608749,212.115662 199.453766,212.083817 
	C198.836227,211.825699 198.676620,211.664352 198.280792,211.257904 
z"/>
<path fill="#5E5F61" opacity="1.000000" stroke="none" 
	d="
M131.866455,207.695099 
	C131.866318,202.251984 131.732254,197.267715 131.918991,192.295486 
	C132.021744,189.559326 131.270309,188.376312 128.348770,188.525986 
	C126.848312,188.602859 124.104042,189.640076 124.324715,186.543365 
	C124.532417,183.628708 127.146584,185.017990 128.660324,184.940399 
	C132.633286,184.736771 136.624008,184.839462 140.606720,184.891785 
	C141.811356,184.907608 143.437988,184.385712 143.462143,186.576843 
	C143.483170,188.483231 142.274323,188.844681 140.831879,188.579620 
	C136.191925,187.726883 135.791183,190.275513 135.992874,193.961426 
	C136.255447,198.760330 136.134598,203.586426 136.011459,208.396545 
	C135.972733,209.909424 137.154099,212.384476 133.872803,212.242981 
	C130.661285,212.104477 132.285492,209.640976 131.866455,207.695099 
z"/>
<path fill="#696A6B" opacity="1.000000" stroke="none" 
	d="
M27.025269,185.987534 
	C27.308403,192.255783 27.634531,198.388763 27.324207,204.489334 
	C26.987328,211.112000 19.579327,214.719254 14.146589,211.183517 
	C13.203370,210.569641 11.743147,209.862015 12.321158,208.618896 
	C12.807921,207.572037 13.999828,206.814850 15.610156,207.075699 
	C22.473587,208.187515 23.517353,207.197205 23.402983,200.287003 
	C23.334446,196.146011 23.366770,192.002838 23.399240,187.861023 
	C23.409081,186.606079 23.040716,185.051132 25.540310,184.962769 
	C26.275764,185.292435 26.534586,185.562561 27.025269,185.987534 
z"/>
<path fill="#0C1089" opacity="1.000000" stroke="none" 
	d="
M122.462669,141.581329 
	C123.345924,138.171875 127.126053,141.466888 128.914398,138.728241 
	C131.698380,138.976639 134.372971,139.563950 137.047577,140.151276 
	C137.044510,140.367310 137.041428,140.583344 137.038361,140.799377 
	C132.322800,141.065277 127.607224,141.331177 122.462669,141.581329 
z"/>
<path fill="#FEAF00" opacity="1.000000" stroke="none" 
	d="
M144.897369,55.520187 
	C143.126129,50.808369 144.154755,45.739124 144.550415,40.390858 
	C144.971451,44.680279 145.131332,49.280792 145.241699,54.328224 
	C145.116394,54.937012 145.040619,55.098877 144.897369,55.520187 
z"/>
<path fill="#4A4B4E" opacity="1.000000" stroke="none" 
	d="
M214.364136,211.922073 
	C214.127136,211.149399 214.251480,210.312973 214.617630,209.265869 
	C215.195572,210.007767 215.293228,210.948944 214.364136,211.922073 
z"/>
<path fill="#4A4B4E" opacity="1.000000" stroke="none" 
	d="
M214.992676,187.610016 
	C214.036118,187.434067 213.978760,186.578293 213.991684,185.376129 
	C215.555618,185.205307 215.008881,186.384842 214.992676,187.610016 
z"/>
<path fill="#4C4E50" opacity="1.000000" stroke="none" 
	d="
M59.584206,185.069794 
	C59.351841,186.012314 58.462463,186.025696 57.239830,186.029541 
	C57.144943,184.494919 58.331234,185.048187 59.584206,185.069794 
z"/>
<path fill="#4C4E50" opacity="1.000000" stroke="none" 
	d="
M57.001633,211.353882 
	C57.783924,211.108307 58.639389,211.231934 59.716061,211.595932 
	C58.965942,212.232697 58.006416,212.330780 57.001633,211.353882 
z"/>
<path fill="#4E4F51" opacity="1.000000" stroke="none" 
	d="
M177.731293,184.991623 
	C177.685440,185.316910 177.382584,185.597198 176.857391,185.910645 
	C176.462860,185.231033 176.992310,185.108810 177.731293,184.991623 
z"/>
<path fill="#4A4B4E" opacity="1.000000" stroke="none" 
	d="
M198.037460,211.299850 
	C198.370316,211.090332 198.624435,211.269501 198.901352,211.768677 
	C198.674011,211.853683 198.352188,211.720291 198.037460,211.299850 
z"/>
<path fill="#4E4F51" opacity="1.000000" stroke="none" 
	d="
M176.762634,211.383194 
	C177.036606,211.219696 177.374695,211.366943 177.855652,211.755127 
	C177.607925,211.895340 177.217346,211.794632 176.762634,211.383194 
z"/>
<path fill="#4E4F51" opacity="1.000000" stroke="none" 
	d="
M193.274200,211.994080 
	C193.075058,211.688507 193.227264,211.440521 193.658005,211.142288 
	C193.751541,211.361984 193.647888,211.681870 193.274200,211.994080 
z"/>
<path fill="#4A4B4E" opacity="1.000000" stroke="none" 
	d="
M212.299744,200.022766 
	C212.180161,199.738953 212.365005,199.462631 212.785400,199.089661 
	C212.882019,199.338760 212.743103,199.684509 212.299744,200.022766 
z"/>
<path fill="#4A4B4E" opacity="1.000000" stroke="none" 
	d="
M190.248016,200.051605 
	C190.168030,199.684845 190.274979,199.240509 190.882355,199.776978 
	C190.818130,199.992950 190.657639,200.046448 190.248016,200.051605 
z"/>
<path fill="#4A4B4E" opacity="1.000000" stroke="none" 
	d="
M198.700912,185.039917 
	C198.925003,185.383377 198.752808,185.640869 198.246979,185.908203 
	C198.155075,185.671112 198.285507,185.349747 198.700912,185.039917 
z"/>
<path fill="#4E4F51" opacity="1.000000" stroke="none" 
	d="
M193.887878,185.700226 
	C193.570267,185.892868 193.336609,185.727066 193.093048,185.262573 
	C193.313293,185.182983 193.609528,185.308945 193.887878,185.700226 
z"/>
<path fill="#4E4F51" opacity="1.000000" stroke="none" 
	d="
M27.266689,185.789337 
	C26.927582,185.943802 26.592535,185.750504 26.134048,185.292786 
	C26.430660,185.166122 26.850706,185.303864 27.266689,185.789337 
z"/>
<path fill="#F6F6F6" opacity="1.000000" stroke="none" 
	d="
M108.376907,193.747803 
	C108.752213,191.734497 107.311577,189.096634 110.073547,188.892624 
	C112.903397,188.683594 116.099640,187.689392 118.553520,190.190735 
	C119.418900,191.072845 119.402023,192.321671 119.159065,193.488205 
	C118.620422,196.074341 116.687546,197.155487 114.396729,196.816940 
	C112.261681,196.501434 108.648918,198.901443 108.376907,193.747803 
z"/>
<path fill="#EDEDED" opacity="1.000000" stroke="none" 
	d="
M91.622841,202.550827 
	C85.509880,202.557816 85.493965,202.552505 87.219482,197.388046 
	C87.886520,195.391617 88.643959,193.425400 89.789299,191.407578 
	C90.314049,195.195572 94.350105,198.135818 91.622841,202.550827 
z"/>
<path fill="#E7E7E8" opacity="1.000000" stroke="none" 
	d="
M42.602028,192.409515 
	C43.394363,194.466461 44.049023,196.181046 44.498562,197.947815 
	C44.853470,199.342697 46.392021,201.066833 45.304279,202.066620 
	C43.829136,203.422424 41.504368,202.542496 39.545650,202.569565 
	C38.576927,202.582947 37.843784,201.977859 38.293503,200.997971 
	C39.655846,198.029541 39.354332,194.290771 42.602028,192.409515 
z"/>
<path fill="#EAEAEA" opacity="1.000000" stroke="none" 
	d="
M154.872040,197.270004 
	C156.494202,202.392792 155.481781,203.501465 150.753296,202.653885 
	C148.858002,202.314148 148.678162,201.410706 149.146973,199.941010 
	C149.744110,198.068939 150.360184,196.201370 151.033737,194.355835 
	C151.405228,193.337891 151.911118,192.369003 152.565933,190.911758 
	C153.421936,193.229340 154.097458,195.058273 154.872040,197.270004 
z"/>
</svg>