<svg version="1.1" id="Layer_1" xmlns="http://www.w3.org/2000/svg" xmlns:xlink="http://www.w3.org/1999/xlink" x="0px" y="0px"
	 width="100%" viewBox="0 0 225 225" enable-background="new 0 0 225 225" xml:space="preserve">
<path fill="#080C19" opacity="1.000000" stroke="none" 
	d="
M157.000000,226.000000 
	C104.666672,226.000000 52.833340,226.000000 1.000007,226.000000 
	C1.000005,151.000000 1.000005,76.000015 1.000002,1.000017 
	C75.999992,1.000011 150.999985,1.000011 225.999969,1.000006 
	C225.999985,75.999985 225.999985,150.999969 226.000000,225.999969 
	C203.166672,226.000000 180.333328,226.000000 157.000000,226.000000 
M65.447899,212.452774 
	C65.447899,212.452774 65.549843,212.561493 65.535110,213.176712 
	C66.055634,213.436844 66.576157,213.696976 67.548752,214.012497 
	C67.548752,214.012497 67.998047,214.087158 68.259384,214.344650 
	C68.461983,214.132614 68.664581,213.920578 69.180908,213.122269 
	C71.046883,209.434387 72.912849,205.746506 75.440262,201.513779 
	C75.584366,189.188522 75.742355,176.863342 75.819878,164.537659 
	C75.822868,164.063263 75.051537,163.583984 73.824318,163.042633 
	C71.906242,163.038193 69.988167,163.033768 67.277733,163.193802 
	C66.865730,164.529327 66.101326,165.863495 66.096146,167.200607 
	C66.043190,180.854050 66.113670,194.507980 66.061302,208.079132 
	C66.061302,208.079132 66.180298,208.100891 65.629471,208.413986 
	C65.443970,208.996002 65.258476,209.578018 64.988953,210.781021 
	C64.953835,211.187775 64.918716,211.594513 64.652008,212.240860 
	C64.874870,212.285660 65.097733,212.330460 65.447899,212.452774 
M164.502625,173.678757 
	C161.959030,174.359756 161.959030,174.359756 164.787064,178.927200 
	C165.342270,178.889267 165.897491,178.851349 167.036255,178.825867 
	C167.496063,178.315979 167.955872,177.806091 168.834427,176.681335 
	C168.655945,175.798660 168.477448,174.915970 168.298965,174.033279 
	C167.636169,174.227600 166.973358,174.421906 166.009018,173.961594 
	C165.778549,173.907043 165.548065,173.852478 164.502625,173.678757 
M159.380112,203.449768 
	C159.586945,198.332550 159.965714,193.214325 159.935822,188.098495 
	C159.918015,185.052063 159.257935,182.009384 158.380066,178.513702 
	C154.933929,172.838058 149.788635,171.432037 140.859421,174.133911 
	C139.404999,174.574005 138.353592,176.346069 137.115921,177.502487 
	C138.719208,177.786713 140.499481,178.668213 141.895950,178.254471 
	C148.902069,176.178635 152.904282,178.807831 151.872757,185.303192 
	C145.585495,186.317978 137.821594,185.238113 135.605560,193.536514 
	C134.923660,196.090073 135.851700,200.416794 137.702240,202.043274 
	C142.606018,206.353302 148.165344,204.104324 153.527695,201.132324 
	C153.878494,205.102982 155.638824,205.935349 159.380112,203.449768 
M104.295174,203.471130 
	C104.466164,195.785736 104.659523,188.100586 104.748016,180.414246 
	C104.752899,179.989700 103.887329,179.555130 103.084885,178.565460 
	C99.545341,172.765625 93.384506,171.384903 84.567375,174.228531 
	C81.688347,175.157059 80.896927,176.535156 82.696945,179.079544 
	C95.984612,176.907715 97.644928,177.646652 96.635048,185.337463 
	C90.312248,186.338959 82.463333,185.107941 80.331192,193.530930 
	C79.655754,196.199234 80.810867,200.811920 82.814606,202.380112 
	C87.503235,206.049561 92.833664,204.474777 97.535393,201.192337 
	C99.750648,205.230164 99.750648,205.230164 104.295174,203.471130 
M64.453728,137.512604 
	C66.219681,142.476807 70.930481,142.927109 74.960434,143.873749 
	C92.114220,147.903229 109.485237,147.961349 127.001503,146.797943 
	C135.001984,146.266556 142.341675,144.217255 149.494095,141.040970 
	C152.375885,139.761200 154.460236,137.751526 152.477478,134.754257 
	C148.618347,136.588104 145.262650,138.962158 141.557114,139.813538 
	C121.691940,144.377762 101.715874,144.596695 81.828537,139.889008 
	C79.288300,139.287689 77.078987,137.288437 74.716370,135.936783 
	C76.215927,133.985062 77.715485,132.033340 79.369339,129.880798 
	C73.864532,130.811249 68.217903,131.428680 64.453728,137.512604 
M108.557785,50.070229 
	C105.592804,52.739697 102.426720,55.219505 99.698570,58.112324 
	C89.325821,69.111206 94.194778,86.662727 109.398994,91.592361 
	C107.996338,89.635162 106.854492,88.070595 105.742249,86.485252 
	C98.798653,76.588112 99.382492,68.678802 107.871086,60.195404 
	C111.634186,56.434612 116.015144,53.233120 119.426025,49.195221 
	C122.908401,45.072662 126.217171,40.530186 128.364258,35.629311 
	C130.539368,30.664518 130.215820,25.193548 126.305084,20.598591 
	C127.666595,29.331152 123.978561,35.969116 118.042923,41.665501 
	C115.167633,44.424889 112.079887,46.962902 108.557785,50.070229 
M110.193298,183.323105 
	C112.419342,190.421127 114.645386,197.519135 117.206818,205.686569 
	C120.035172,204.438599 124.039162,203.946991 124.772621,202.133011 
	C128.431381,193.084259 131.230972,183.688141 134.529556,173.826172 
	C131.154007,173.826172 129.352875,173.826172 127.201492,173.826172 
	C125.495804,180.838669 123.756233,187.990433 122.016663,195.142197 
	C119.145493,189.448563 117.178329,184.010681 115.899834,178.415451 
	C114.736839,173.325684 111.880280,172.980896 107.517776,174.170273 
	C108.429214,177.191559 109.233696,179.858307 110.193298,183.323105 
M80.448860,96.769974 
	C79.227386,97.671867 78.005913,98.573761 76.695839,99.541077 
	C85.992195,108.315033 130.145645,109.341553 142.571121,100.979073 
	C140.303421,100.374092 137.997086,100.005692 135.714111,100.116913 
	C124.143661,100.680618 112.584854,101.643990 101.010040,101.878143 
	C96.373955,101.971939 91.707352,100.556572 85.808861,99.633102 
	C88.081924,97.470917 89.299042,96.313171 91.525620,94.195198 
	C87.204079,95.112968 84.168892,95.757561 80.448860,96.769974 
M115.101280,78.223846 
	C118.497185,83.866447 123.256416,89.179100 118.739517,96.851891 
	C120.018471,96.541061 120.588692,96.567787 120.915558,96.298798 
	C128.460037,90.090370 129.718048,85.431915 124.745865,77.491936 
	C118.953903,68.242874 119.823196,62.983643 127.721931,55.534176 
	C129.985077,53.399754 132.518021,51.551422 134.927261,49.571903 
	C128.005386,51.350906 121.984367,54.567951 117.417068,60.007290 
	C113.015083,65.249756 111.386513,71.040298 115.101280,78.223846 
M129.922089,119.222076 
	C132.232742,118.251648 134.543411,117.281219 136.854080,116.310791 
	C134.719116,114.568672 132.470688,113.464798 130.259674,113.535271 
	C120.665100,113.841087 111.085533,114.704613 101.491409,114.887108 
	C98.468735,114.944611 93.689178,114.420929 92.719208,112.579826 
	C90.276085,107.942497 87.680702,110.477669 85.290337,111.398125 
	C82.351128,112.529945 81.854416,114.535774 84.991425,116.297318 
	C86.275856,117.018570 87.715866,117.497330 89.128983,117.949173 
	C97.709709,120.692825 106.556747,120.723839 115.424904,120.417419 
	C120.088921,120.256256 124.749382,119.992546 129.922089,119.222076 
M90.421555,131.081955 
	C103.903549,137.074905 117.335999,136.050461 130.804382,130.545181 
	C127.339081,129.019104 123.822479,128.393097 120.296806,128.337036 
	C116.506882,128.276764 112.695778,129.063507 108.917061,128.910202 
	C104.616653,128.735733 100.079674,129.371231 96.458794,125.577126 
	C95.704163,124.786407 92.470558,125.831421 90.748055,126.734039 
	C89.970154,127.141663 90.095940,129.273849 90.421555,131.081955 
M132.456512,150.133743 
	C118.129684,150.991470 103.802849,151.849213 90.061440,152.671906 
	C119.509048,157.883759 151.726700,152.570175 157.356171,143.223267 
	C149.404190,145.491119 141.368530,147.782837 132.456512,150.133743 
M148.022018,116.697029 
	C152.208817,113.550354 156.895187,110.874191 160.433792,107.117027 
	C163.605957,103.748940 162.670029,98.389671 159.647903,95.326057 
	C156.187912,91.818558 150.841049,91.095306 148.017685,92.911316 
	C150.131546,94.477837 154.153748,95.880768 154.784790,98.204575 
	C157.264221,107.335052 150.767090,112.231674 143.285004,116.944611 
	C145.337204,116.944611 146.319122,116.944611 148.022018,116.697029 
M171.489716,176.062134 
	C171.264191,176.775879 171.038651,177.489624 170.813126,178.203369 
	C171.203873,178.274536 171.594604,178.345703 171.985352,178.416870 
	C171.985352,177.809143 171.985352,177.201416 171.489716,176.062134 
M85.688385,150.464188 
	C85.874237,150.504364 86.060089,150.544540 86.245941,150.584732 
	C86.116112,150.606659 85.986275,150.628586 85.688385,150.464188 
M87.493599,153.525650 
	C87.493599,153.525650 87.495445,153.487503 87.493599,153.525650 
z"/>
<path fill="#EFEFEF" opacity="1.000000" stroke="none" 
	d="
M64.559555,137.182098 
	C68.217903,131.428680 73.864532,130.811249 79.369339,129.880798 
	C77.715485,132.033340 76.215927,133.985062 74.716370,135.936783 
	C77.078987,137.288437 79.288300,139.287689 81.828537,139.889008 
	C101.715874,144.596695 121.691940,144.377762 141.557114,139.813538 
	C145.262650,138.962158 148.618347,136.588104 152.477478,134.754257 
	C154.460236,137.751526 152.375885,139.761200 149.494095,141.040970 
	C142.341675,144.217255 135.001984,146.266556 127.001503,146.797943 
	C109.485237,147.961349 92.114220,147.903229 74.960434,143.873749 
	C70.930481,142.927109 66.219681,142.476807 64.559555,137.182098 
z"/>
<path fill="#E98C11" opacity="1.000000" stroke="none" 
	d="
M108.823059,49.835686 
	C112.079887,46.962902 115.167633,44.424889 118.042923,41.665501 
	C123.978561,35.969116 127.666595,29.331152 126.305084,20.598591 
	C130.215820,25.193548 130.539368,30.664518 128.364258,35.629311 
	C126.217171,40.530186 122.908401,45.072662 119.426025,49.195221 
	C116.015144,53.233120 111.634186,56.434612 107.871086,60.195404 
	C99.382492,68.678802 98.798653,76.588112 105.742249,86.485252 
	C106.854492,88.070595 107.996338,89.635162 109.398994,91.592361 
	C94.194778,86.662727 89.325821,69.111206 99.698570,58.112324 
	C102.426720,55.219505 105.592804,52.739697 108.823059,49.835686 
z"/>
<path fill="#F0F0F1" opacity="1.000000" stroke="none" 
	d="
M103.553215,203.884079 
	C99.750648,205.230164 99.750648,205.230164 97.535385,201.192261 
	C92.833664,204.474777 87.503235,206.049561 82.814606,202.380112 
	C80.810867,200.811920 79.655754,196.199234 80.331192,193.530930 
	C82.463333,185.107941 90.312248,186.338959 96.635048,185.337463 
	C97.644928,177.646652 95.984612,176.907715 82.696945,179.079544 
	C80.896927,176.535156 81.688347,175.157059 84.567375,174.228531 
	C93.384506,171.384903 99.545341,172.765625 103.306137,179.305328 
	C103.535995,187.991486 103.544609,195.937790 103.553215,203.884079 
M93.869911,198.866394 
	C96.211624,196.705902 98.355995,194.481705 96.460976,190.790771 
	C92.685471,191.633316 86.701149,187.941345 86.288300,195.241180 
	C86.053131,199.399414 89.478333,200.072433 93.869911,198.866394 
z"/>
<path fill="#F0F0F1" opacity="1.000000" stroke="none" 
	d="
M158.669586,203.901215 
	C155.638824,205.935349 153.878494,205.102982 153.527695,201.132324 
	C148.165344,204.104324 142.606018,206.353302 137.702240,202.043274 
	C135.851700,200.416794 134.923660,196.090073 135.605560,193.536514 
	C137.821594,185.238113 145.585495,186.317978 151.872757,185.303192 
	C152.904282,178.807831 148.902069,176.178635 141.895950,178.254471 
	C140.499481,178.668213 138.719208,177.786713 137.115921,177.502487 
	C138.353592,176.346069 139.404999,174.574005 140.859421,174.133911 
	C149.788635,171.432037 154.933929,172.838058 158.632751,179.210785 
	C158.813477,187.905655 158.741531,195.903442 158.669586,203.901215 
M143.286713,191.325348 
	C141.485046,193.474197 140.479813,196.028915 143.372467,197.620209 
	C145.191147,198.620682 148.467651,199.133148 149.888779,198.141998 
	C151.629364,196.928040 152.114349,193.913803 153.485703,190.930801 
	C149.289963,190.930801 146.699905,190.930801 143.286713,191.325348 
z"/>
<path fill="#F3F3F3" opacity="1.000000" stroke="none" 
	d="
M110.115738,182.924072 
	C109.233696,179.858307 108.429214,177.191559 107.517776,174.170273 
	C111.880280,172.980896 114.736839,173.325684 115.899834,178.415451 
	C117.178329,184.010681 119.145493,189.448563 122.016663,195.142197 
	C123.756233,187.990433 125.495804,180.838669 127.201492,173.826172 
	C129.352875,173.826172 131.154007,173.826172 134.529556,173.826172 
	C131.230972,183.688141 128.431381,193.084259 124.772621,202.133011 
	C124.039162,203.946991 120.035172,204.438599 117.206818,205.686569 
	C114.645386,197.519135 112.419342,190.421127 110.115738,182.924072 
z"/>
<path fill="#EDEDED" opacity="1.000000" stroke="none" 
	d="
M80.791290,96.586060 
	C84.168892,95.757561 87.204079,95.112968 91.525620,94.195198 
	C89.299042,96.313171 88.081924,97.470917 85.808861,99.633102 
	C91.707352,100.556572 96.373955,101.971939 101.010040,101.878143 
	C112.584854,101.643990 124.143661,100.680618 135.714111,100.116913 
	C137.997086,100.005692 140.303421,100.374092 142.571121,100.979073 
	C130.145645,109.341553 85.992195,108.315033 76.695839,99.541077 
	C78.005913,98.573761 79.227386,97.671867 80.791290,96.586060 
z"/>
<path fill="#E98C11" opacity="1.000000" stroke="none" 
	d="
M114.932922,77.873634 
	C111.386513,71.040298 113.015083,65.249756 117.417068,60.007290 
	C121.984367,54.567951 128.005386,51.350906 134.927261,49.571903 
	C132.518021,51.551422 129.985077,53.399754 127.721931,55.534176 
	C119.823196,62.983643 118.953903,68.242874 124.745865,77.491936 
	C129.718048,85.431915 128.460037,90.090370 120.915558,96.298798 
	C120.588692,96.567787 120.018471,96.541061 118.739517,96.851891 
	C123.256416,89.179100 118.497185,83.866447 114.932922,77.873634 
z"/>
<path fill="#EFF0F0" opacity="1.000000" stroke="none" 
	d="
M64.883591,212.001266 
	C64.918716,211.594513 64.953835,211.187775 65.291382,210.302765 
	C65.789299,209.249954 65.984795,208.675430 66.180298,208.100891 
	C66.180298,208.100891 66.061302,208.079132 66.391441,207.844589 
	C67.110641,204.339020 67.783340,201.072678 67.837585,197.796097 
	C68.029411,186.209076 68.009644,174.618546 68.070091,163.029343 
	C69.988167,163.033768 71.906242,163.038193 74.249680,163.536133 
	C74.709633,176.705963 74.744225,189.382278 74.778824,202.058609 
	C72.912849,205.746506 71.046883,209.434387 68.790520,213.472763 
	C68.400131,213.823257 67.998047,214.087158 67.998047,214.087158 
	C67.998047,214.087158 67.548752,214.012497 67.222206,213.732880 
	C66.447060,213.156006 65.998451,212.858749 65.549843,212.561493 
	C65.549843,212.561493 65.447899,212.452774 65.326843,212.259949 
	C65.205788,212.067123 64.883591,212.001266 64.883591,212.001266 
z"/>
<path fill="#EDEDEE" opacity="1.000000" stroke="none" 
	d="
M129.666779,119.498611 
	C124.749382,119.992546 120.088921,120.256256 115.424904,120.417419 
	C106.556747,120.723839 97.709709,120.692825 89.128983,117.949173 
	C87.715866,117.497330 86.275856,117.018570 84.991425,116.297318 
	C81.854416,114.535774 82.351128,112.529945 85.290337,111.398125 
	C87.680702,110.477669 90.276085,107.942497 92.719208,112.579826 
	C93.689178,114.420929 98.468735,114.944611 101.491409,114.887108 
	C111.085533,114.704613 120.665100,113.841087 130.259674,113.535271 
	C132.470688,113.464798 134.719116,114.568672 136.854080,116.310791 
	C134.543411,117.281219 132.232742,118.251648 129.666779,119.498611 
z"/>
<path fill="#F4F4F5" opacity="1.000000" stroke="none" 
	d="
M90.116638,130.852783 
	C90.095940,129.273849 89.970154,127.141663 90.748055,126.734039 
	C92.470558,125.831421 95.704163,124.786407 96.458794,125.577126 
	C100.079674,129.371231 104.616653,128.735733 108.917061,128.910202 
	C112.695778,129.063507 116.506882,128.276764 120.296806,128.337036 
	C123.822479,128.393097 127.339081,129.019104 130.804382,130.545181 
	C117.335999,136.050461 103.903549,137.074905 90.116638,130.852783 
z"/>
<path fill="#E9E9EA" opacity="1.000000" stroke="none" 
	d="
M132.894684,150.104156 
	C141.368530,147.782837 149.404190,145.491119 157.356171,143.223267 
	C151.726700,152.570175 119.509048,157.883759 90.061440,152.671906 
	C103.802849,151.849213 118.129684,150.991470 132.894684,150.104156 
z"/>
<path fill="#F0F0F1" opacity="1.000000" stroke="none" 
	d="
M147.661530,116.820816 
	C146.319122,116.944611 145.337204,116.944611 143.285004,116.944611 
	C150.767090,112.231674 157.264221,107.335052 154.784790,98.204575 
	C154.153748,95.880768 150.131546,94.477837 148.017685,92.911316 
	C150.841049,91.095306 156.187912,91.818558 159.647903,95.326057 
	C162.670029,98.389671 163.605957,103.748940 160.433792,107.117027 
	C156.895187,110.874191 152.208817,113.550354 147.661530,116.820816 
z"/>
<path fill="#1C1D29" opacity="1.000000" stroke="none" 
	d="
M67.673912,163.111572 
	C68.009644,174.618546 68.029411,186.209076 67.837585,197.796097 
	C67.783340,201.072678 67.110641,204.339020 66.435608,207.885910 
	C66.113670,194.507980 66.043190,180.854050 66.096146,167.200607 
	C66.101326,165.863495 66.865730,164.529327 67.673912,163.111572 
z"/>
<path fill="#040405" opacity="1.000000" stroke="none" 
	d="
M75.109543,201.786194 
	C74.744225,189.382278 74.709633,176.705963 74.658035,163.568298 
	C75.051537,163.583984 75.822868,164.063263 75.819878,164.537659 
	C75.742355,176.863342 75.584366,189.188522 75.109543,201.786194 
z"/>
<path fill="#000000" opacity="1.000000" stroke="none" 
	d="
M159.024841,203.675491 
	C158.741531,195.903442 158.813477,187.905655 158.886002,179.436462 
	C159.257935,182.009384 159.918015,185.052063 159.935822,188.098495 
	C159.965714,193.214325 159.586945,198.332550 159.024841,203.675491 
z"/>
<path fill="#000000" opacity="1.000000" stroke="none" 
	d="
M103.924194,203.677612 
	C103.544609,195.937790 103.535995,187.991486 103.477158,179.585205 
	C103.887329,179.555130 104.752899,179.989700 104.748016,180.414246 
	C104.659523,188.100586 104.466164,195.785736 103.924194,203.677612 
z"/>
<path fill="#DCDDDE" opacity="1.000000" stroke="none" 
	d="
M166.310562,174.616211 
	C166.973358,174.421906 167.636169,174.227600 168.298965,174.033295 
	C168.477448,174.915970 168.655945,175.798660 168.353455,176.879974 
	C167.490036,177.005981 167.107574,176.933365 166.639618,176.487137 
	C166.471344,175.613571 166.388580,175.113632 166.299728,174.609589 
	C166.293640,174.605499 166.310562,174.616226 166.310562,174.616211 
z"/>
<path fill="#000000" opacity="1.000000" stroke="none" 
	d="
M166.305817,174.613678 
	C166.388580,175.113632 166.471344,175.613571 166.461060,176.779968 
	C166.396225,177.902100 166.424454,178.357758 166.452698,178.813431 
	C165.897491,178.851349 165.342270,178.889267 164.504471,178.616882 
	C164.484879,177.208023 164.747879,176.109512 165.372772,175.035980 
	C165.925034,174.911880 166.115433,174.762772 166.305817,174.613678 
z"/>
<path fill="#F3F3F3" opacity="1.000000" stroke="none" 
	d="
M165.010880,175.010986 
	C164.747879,176.109512 164.484879,177.208023 164.087830,178.644882 
	C161.959030,174.359756 161.959030,174.359756 164.854721,174.046997 
	C165.141495,174.613831 165.076187,174.812408 165.010880,175.010986 
z"/>
<path fill="#C2C3C5" opacity="1.000000" stroke="none" 
	d="
M171.737534,176.327911 
	C171.985352,177.201416 171.985352,177.809143 171.985352,178.416870 
	C171.594604,178.345703 171.203873,178.274536 170.813126,178.203369 
	C171.038651,177.489624 171.264191,176.775879 171.737534,176.327911 
z"/>
<path fill="#ACADB0" opacity="1.000000" stroke="none" 
	d="
M166.744476,178.819641 
	C166.424454,178.357758 166.396225,177.902100 166.546555,177.153595 
	C167.107574,176.933365 167.490036,177.005981 168.144089,177.187393 
	C167.955872,177.806091 167.496063,178.315979 166.744476,178.819641 
z"/>
<path fill="#E9E9EA" opacity="1.000000" stroke="none" 
	d="
M85.772415,150.557343 
	C85.986275,150.628586 86.116112,150.606659 86.245941,150.584732 
	C86.060089,150.544540 85.874237,150.504364 85.772415,150.557343 
z"/>
<path fill="#1C1D29" opacity="1.000000" stroke="none" 
	d="
M65.904884,208.257446 
	C65.984795,208.675430 65.789299,209.249954 65.333389,209.992264 
	C65.258476,209.578018 65.443970,208.996002 65.904884,208.257446 
z"/>
<path fill="#1C1D29" opacity="1.000000" stroke="none" 
	d="
M65.542480,212.869110 
	C65.998451,212.858749 66.447060,213.156006 66.996170,213.705200 
	C66.576157,213.696976 66.055634,213.436844 65.542480,212.869110 
z"/>
<path fill="#6C6D73" opacity="1.000000" stroke="none" 
	d="
M165.372772,175.035980 
	C165.076187,174.812408 165.141495,174.613831 165.262192,174.106583 
	C165.548065,173.852478 165.778549,173.907043 166.159790,174.288910 
	C166.310562,174.616226 166.293640,174.605499 166.299728,174.609589 
	C166.115433,174.762772 165.925034,174.911880 165.372772,175.035980 
z"/>
<path fill="#E9E9EA" opacity="1.000000" stroke="none" 
	d="
M87.494522,153.506577 
	C87.495445,153.487503 87.493599,153.525650 87.494522,153.506577 
z"/>
<path fill="#1C1D29" opacity="1.000000" stroke="none" 
	d="
M64.767799,212.121063 
	C64.883591,212.001266 65.205788,212.067123 65.263191,212.221191 
	C65.097733,212.330460 64.874870,212.285660 64.767799,212.121063 
z"/>
<path fill="#1C1D29" opacity="1.000000" stroke="none" 
	d="
M68.128716,214.215912 
	C67.998047,214.087158 68.400131,213.823257 68.633652,213.765900 
	C68.664581,213.920578 68.461983,214.132614 68.128716,214.215912 
z"/>
<path fill="#0D111C" opacity="1.000000" stroke="none" 
	d="
M93.460480,198.978333 
	C89.478333,200.072433 86.053131,199.399414 86.288300,195.241180 
	C86.701149,187.941345 92.685471,191.633316 96.460976,190.790771 
	C98.355995,194.481705 96.211624,196.705902 93.460480,198.978333 
z"/>
<path fill="#090E1A" opacity="1.000000" stroke="none" 
	d="
M143.698273,191.128082 
	C146.699905,190.930801 149.289963,190.930801 153.485703,190.930801 
	C152.114349,193.913803 151.629364,196.928040 149.888779,198.141998 
	C148.467651,199.133148 145.191147,198.620682 143.372467,197.620209 
	C140.479813,196.028915 141.485046,193.474197 143.698273,191.128082 
z"/>
</svg>