<svg version="1.1" id="Layer_1" xmlns="http://www.w3.org/2000/svg" xmlns:xlink="http://www.w3.org/1999/xlink" x="0px" y="0px"
	 width="100%" viewBox="0 0 300 168" enable-background="new 0 0 300 168" xml:space="preserve">
<path fill="#FFFEFE" opacity="1.000000" stroke="none" 
	d="
M221.000000,169.000000 
	C148.666672,169.000000 76.833298,168.968826 5.000197,169.096375 
	C1.575720,169.102463 0.893744,168.424988 0.902677,164.999771 
	C1.041764,111.666809 1.041761,58.333263 0.902687,5.000299 
	C0.893755,1.575244 1.575850,0.900212 5.000070,0.904388 
	C102.333244,1.023106 199.666626,1.023100 296.999786,0.904407 
	C300.423737,0.900232 301.106232,1.574834 301.097321,5.000171 
	C300.958221,58.333134 300.958252,111.666672 301.097321,164.999634 
	C301.106232,168.424576 300.428162,169.126175 296.999359,169.100739 
	C271.834045,168.914093 246.666702,169.000000 221.000000,169.000000 
z"/>
<path fill="#FFD343" opacity="1.000000" stroke="none" 
	d="
M203.712555,60.718666 
	C203.006805,68.591095 201.290573,75.717216 192.913788,79.117767 
	C192.162247,79.110855 191.790146,79.252960 191.243256,79.726456 
	C179.882965,80.803154 168.728180,80.093597 157.584167,80.319656 
	C156.252670,80.346664 154.920181,80.320122 153.588425,80.338196 
	C152.386078,80.354507 151.221191,80.408920 151.110031,82.057503 
	C150.971848,84.106178 152.394287,84.049232 153.749924,84.052094 
	C160.076813,84.065430 166.410156,84.231827 172.728043,83.993942 
	C176.036514,83.869377 177.322601,84.959671 176.901840,88.225441 
	C176.754364,89.369942 176.906662,90.552818 176.918991,91.718201 
	C177.018311,101.112976 174.886276,103.931526 165.514465,106.286415 
	C155.810562,108.724762 146.052628,108.695381 136.441299,105.925735 
	C128.432556,103.617889 125.753578,99.698051 125.759369,91.399872 
	C125.764137,84.573448 125.709091,77.746513 125.774635,70.920715 
	C125.859055,62.129196 130.856918,57.082253 139.752945,56.949196 
	C147.909561,56.827198 156.069580,56.953907 164.227737,56.908451 
	C174.681427,56.850208 179.927551,51.680416 180.119186,41.325100 
	C180.146912,39.827118 180.092697,38.327419 180.129944,36.829849 
	C180.337265,28.496290 178.367737,29.173038 187.829712,29.239357 
	C194.681030,29.287376 199.288956,32.886345 201.912109,39.908844 
	C204.231842,46.119019 204.364822,52.594383 203.975525,59.570488 
	C203.788315,60.181335 203.681259,60.330750 203.712555,60.718666 
z"/>
<path fill="#3673A5" opacity="1.000000" stroke="none" 
	d="
M121.216278,80.569672 
	C120.550865,81.007843 120.095261,81.052551 119.304840,81.013031 
	C116.594994,79.999657 114.132629,80.663391 111.381439,80.689316 
	C104.877487,79.677307 101.911652,75.140770 100.178368,69.799568 
	C97.414848,61.283607 97.241882,52.563473 99.354492,43.839470 
	C101.057251,36.807949 105.242729,32.102573 112.708908,30.196341 
	C125.459808,30.871532 137.849548,30.409216 150.608124,30.167309 
	C150.968155,28.921854 150.956192,27.953695 150.949951,26.622295 
	C145.512802,24.562019 139.933075,25.690695 134.423264,25.539513 
	C126.561043,25.323780 126.555946,25.484596 126.516273,17.753496 
	C126.512886,17.092308 126.502922,16.431822 126.199989,15.377474 
	C125.875664,9.388640 129.563477,5.202583 135.416260,4.851322 
	C137.865906,4.704304 140.066391,4.129483 142.659882,3.217251 
	C143.201096,3.251591 143.358749,3.339452 143.743195,3.279407 
	C144.430588,3.073814 144.891235,3.016125 145.695038,3.027098 
	C149.769806,3.998985 153.569946,3.246940 157.713562,3.766864 
	C164.876343,3.653494 170.717056,5.605017 175.256424,11.320339 
	C165.832825,21.435770 155.693039,30.615667 146.402588,40.650028 
	C142.959808,44.368469 138.022079,46.746780 136.131134,52.309719 
	C135.799881,52.795876 135.657394,52.983536 135.250229,53.405418 
	C127.926460,54.486912 123.922562,58.662567 122.087753,65.687340 
	C120.896561,70.708107 121.819221,75.466484 121.216278,80.569672 
z"/>
<path fill="#3D74A3" opacity="1.000000" stroke="none" 
	d="
M176.384979,16.836880 
	C176.698593,24.110094 176.848541,31.086847 176.848373,38.063599 
	C176.848114,48.317703 172.001740,53.449047 161.744888,53.760635 
	C155.104034,53.962376 148.449768,53.722446 141.396057,53.581696 
	C138.312637,51.110744 136.883789,48.669819 140.360001,45.759834 
	C150.552460,37.227547 159.386276,27.289246 168.909225,18.063684 
	C171.098953,15.942343 173.116791,14.115894 176.384979,16.836880 
z"/>
<path fill="#636363" opacity="1.000000" stroke="none" 
	d="
M101.917404,144.360718 
	C98.688087,153.230087 95.078537,154.864716 84.716255,151.918442 
	C84.716255,155.643417 84.748596,159.170334 84.696625,162.696014 
	C84.680946,163.759689 85.013138,165.270691 83.226311,165.228912 
	C81.820847,165.196030 80.620827,164.622696 80.619987,162.884323 
	C80.615150,152.924896 80.595276,142.965408 80.623871,133.006073 
	C80.629433,131.071045 82.059265,130.045837 83.583565,129.350739 
	C93.191055,124.969627 101.759583,127.534119 102.047859,139.960114 
	C102.078613,141.285751 101.992500,142.614105 101.917404,144.360718 
z"/>
<path fill="#676767" opacity="1.000000" stroke="none" 
	d="
M152.752899,114.803024 
	C152.910767,119.904022 152.910767,124.827507 152.910767,129.949280 
	C168.104141,124.820198 170.176727,130.234116 169.308365,142.147293 
	C169.103424,144.958908 169.271545,147.797607 169.264877,150.623840 
	C169.261978,151.854340 169.163834,152.931824 167.475525,152.982773 
	C165.757004,153.034637 165.110535,152.295471 165.125107,150.629242 
	C165.164398,146.140884 165.151321,141.651688 165.117508,137.163147 
	C165.091370,133.692749 164.305389,130.761902 159.957764,130.806229 
	C155.732315,130.849289 153.136597,133.322815 153.104370,137.331558 
	C153.070953,141.487579 153.135727,145.644653 153.074402,149.800034 
	C153.054504,151.147385 153.652054,152.897018 151.170990,152.995056 
	C148.794708,153.088943 148.982315,151.579483 148.982483,150.060028 
	C148.983658,139.087433 148.989334,128.114807 148.975708,117.142235 
	C148.973740,115.560760 149.017044,114.073349 151.549103,113.919525 
	C152.142517,114.182426 152.348907,114.421135 152.752899,114.803024 
z"/>
<path fill="#666666" opacity="1.000000" stroke="none" 
	d="
M110.647827,146.759979 
	C112.754799,149.169464 114.293045,151.283737 117.829399,150.594299 
	C121.827805,149.814789 124.139069,148.413147 123.713326,143.789734 
	C123.333649,139.666672 123.595993,135.480453 123.654083,131.323212 
	C123.675179,129.813690 122.988411,127.825287 125.844193,127.925285 
	C128.260391,128.009888 127.860092,129.631104 127.857712,131.062408 
	C127.845261,138.546265 128.013412,146.038712 127.709702,153.511520 
	C127.397163,161.201599 124.407455,164.352051 117.077217,165.552399 
	C115.903465,165.744614 114.261116,166.700424 113.947983,164.527969 
	C113.682121,162.683533 115.322159,163.140121 116.338966,162.858765 
	C122.997200,161.016251 124.252953,159.120941 123.443024,151.990921 
	C118.090538,152.808884 112.441193,155.402130 107.930527,149.599487 
	C107.628960,148.740005 107.509521,148.196930 107.722778,147.218735 
	C108.628487,146.271393 109.438789,146.205322 110.647827,146.759979 
z"/>
<path fill="#676767" opacity="1.000000" stroke="none" 
	d="
M179.406006,151.666992 
	C170.948853,145.609985 171.369217,132.394852 179.791031,128.386887 
	C184.488129,126.151520 190.074966,127.382927 193.318329,131.368469 
	C196.955429,135.837845 197.218994,143.819321 193.771469,148.635345 
	C192.917648,149.828094 191.698624,150.759415 190.307022,151.862808 
	C189.200851,151.656891 188.732010,151.110992 188.418518,150.006104 
	C188.632706,147.486435 189.644318,145.537979 190.093399,143.427368 
	C190.476166,141.628479 190.863800,139.834076 190.362411,138.022903 
	C189.514236,134.959152 188.788513,131.621063 184.627563,131.653702 
	C181.642380,131.677109 179.559982,134.752991 179.266785,138.943756 
	C179.028061,142.355911 179.895233,145.509659 181.315720,148.936935 
	C181.391571,150.439987 180.704849,151.089752 179.406006,151.666992 
z"/>
<path fill="#626262" opacity="1.000000" stroke="none" 
	d="
M219.661255,132.705307 
	C219.947296,138.682617 220.012222,144.389633 219.992218,150.559372 
	C219.755234,151.197723 219.603195,151.373352 219.239288,151.825684 
	C218.804810,152.830032 218.235489,152.970993 217.269592,152.896057 
	C216.807404,152.716568 216.651917,152.600876 216.316925,152.256516 
	C216.077698,146.888046 216.054520,141.747498 215.947235,136.608704 
	C215.851807,132.038147 213.649933,130.078949 209.188553,130.021378 
	C204.524307,129.961212 203.848801,132.654953 204.014877,136.477676 
	C204.209152,140.949570 204.083115,145.436554 204.046631,149.916595 
	C204.035217,151.317154 204.481796,152.974243 202.022202,152.986374 
	C199.564331,152.998489 199.980057,151.353180 199.971939,149.941345 
	C199.941406,144.631500 199.932251,139.321106 199.985229,134.011612 
	C199.994629,133.069992 200.063522,131.934235 200.573090,131.224030 
	C203.806870,126.716942 215.041519,126.689346 219.025894,131.480469 
	C219.170090,132.055725 219.305130,132.245377 219.661255,132.705307 
z"/>
<path fill="#6A6A6A" opacity="1.000000" stroke="none" 
	d="
M139.667358,127.588165 
	C140.518326,129.560516 142.380737,128.473541 143.631943,129.913010 
	C138.882416,130.520645 138.983246,133.834747 139.405029,137.238449 
	C139.962845,141.739716 137.892029,146.563324 141.084595,150.773071 
	C141.357025,151.132309 141.147720,152.237000 140.776505,152.591660 
	C140.441116,152.912064 139.493607,152.879456 138.960266,152.656906 
	C136.133469,151.477325 135.170380,149.084015 135.135056,146.233078 
	C135.085510,142.233734 136.035431,137.934753 134.858734,134.316483 
	C133.653488,130.610428 135.115158,127.567856 135.056931,124.240532 
	C135.015762,121.888985 135.627869,119.924660 138.081558,120.142326 
	C140.571350,120.363197 139.027359,122.799011 139.355759,124.216125 
	C139.576950,125.170486 139.449707,126.205574 139.667358,127.588165 
z"/>
<path fill="#3773A4" opacity="1.000000" stroke="none" 
	d="
M176.705841,16.872322 
	C173.671112,15.953767 171.578461,16.751062 169.263397,19.092794 
	C159.935104,28.528576 151.086685,38.483997 140.691559,46.806770 
	C137.765732,49.149319 140.165497,50.777798 140.966370,53.093163 
	C140.050400,53.514904 139.110168,53.546852 137.885071,53.359299 
	C137.018448,53.290974 136.427612,53.385006 135.436874,53.199711 
	C135.696274,49.377766 137.485687,46.338573 140.368652,44.232876 
	C146.812790,39.526108 151.278229,32.852970 157.218048,27.685129 
	C162.237228,23.318285 167.058701,18.804979 171.069473,13.470104 
	C171.919647,12.339257 173.222672,11.958704 174.982941,11.748545 
	C175.369080,11.650981 175.342117,11.682466 175.344803,11.702402 
	C175.306305,12.758319 175.926865,13.576180 176.398987,14.749031 
	C176.624359,15.543162 176.710144,16.077232 176.705841,16.872322 
z"/>
<path fill="#656565" opacity="1.000000" stroke="none" 
	d="
M111.018768,146.532227 
	C110.252083,147.000122 109.505257,146.999924 108.385010,146.999008 
	C107.864006,147.173431 107.716408,147.348572 107.339890,147.267548 
	C107.045059,141.641602 106.979149,136.271835 106.997826,130.439575 
	C107.321480,129.728622 107.540123,129.463364 107.828720,128.939423 
	C110.383835,126.960716 111.041367,128.035446 111.016014,130.572678 
	C110.964439,135.735901 111.024544,140.900238 111.018768,146.532227 
z"/>
<path fill="#1A679E" opacity="1.000000" stroke="none" 
	d="
M150.514923,29.938148 
	C150.378510,30.868399 149.413055,30.999187 148.394043,30.991312 
	C136.833145,30.901949 125.272240,30.810637 113.394287,30.464001 
	C125.401390,30.134199 137.725555,30.060242 150.514923,29.938148 
z"/>
<path fill="#1B679E" opacity="1.000000" stroke="none" 
	d="
M125.865959,15.442637 
	C127.747589,16.564550 127.052544,18.702234 126.929291,20.543636 
	C126.700882,23.956244 127.890129,25.092869 131.385696,25.091385 
	C137.748123,25.088682 144.149063,24.323692 150.720612,25.904921 
	C144.171127,26.224476 137.376678,25.957615 130.605774,26.245161 
	C126.738419,26.409397 125.127686,25.335920 125.705269,21.358328 
	C125.964409,19.573776 125.770142,17.723385 125.865959,15.442637 
z"/>
<path fill="#5E5E5E" opacity="1.000000" stroke="none" 
	d="
M188.564117,149.516815 
	C189.168350,150.224808 189.440842,150.784134 189.839935,151.629089 
	C186.582275,153.954407 183.137802,153.686066 179.354095,151.979568 
	C179.555695,151.245026 180.064331,150.714310 180.831482,150.075287 
	C183.434067,149.329681 185.852356,149.577286 188.564117,149.516815 
z"/>
<path fill="#1D669C" opacity="1.000000" stroke="none" 
	d="
M121.413338,80.805664 
	C121.127632,76.179420 121.248802,71.395706 121.659729,66.317383 
	C121.906387,70.897919 121.863304,75.773056 121.413338,80.805664 
z"/>
<path fill="#1A679E" opacity="1.000000" stroke="none" 
	d="
M157.873291,3.601299 
	C154.278748,3.865262 150.456207,3.759992 146.335938,3.375240 
	C149.911072,2.814915 153.782013,2.698053 157.873291,3.601299 
z"/>
<path fill="#1D669C" opacity="1.000000" stroke="none" 
	d="
M111.481033,80.938065 
	C113.426849,79.355728 115.935982,79.957123 118.702118,80.656738 
	C116.617706,80.961998 114.265404,80.995193 111.481033,80.938065 
z"/>
<path fill="#3D74A3" opacity="1.000000" stroke="none" 
	d="
M176.573944,14.705753 
	C175.069626,14.675673 174.932465,13.630388 175.245453,12.060680 
	C175.768097,12.615699 176.188690,13.509057 176.573944,14.705753 
z"/>
<path fill="#3D74A3" opacity="1.000000" stroke="none" 
	d="
M135.024078,53.142380 
	C135.613159,53.006081 136.180267,53.034695 137.173782,53.101555 
	C136.960266,53.348186 136.320358,53.556572 135.332993,53.702301 
	C134.985550,53.639641 135.002090,53.307301 135.024078,53.142380 
z"/>
<path fill="#575757" opacity="1.000000" stroke="none" 
	d="
M107.063766,147.337875 
	C107.110970,147.011353 107.560860,146.997116 107.786232,146.997711 
	C108.001747,147.496979 107.991898,147.995682 107.953629,148.869263 
	C107.244026,148.935165 106.988853,148.381134 107.063766,147.337875 
z"/>
<path fill="#575757" opacity="1.000000" stroke="none" 
	d="
M219.284302,152.018311 
	C219.098236,151.777496 219.252838,151.499161 219.699265,151.144745 
	C219.785233,151.326141 219.663193,151.630203 219.284302,152.018311 
z"/>
<path fill="#5B5B5B" opacity="1.000000" stroke="none" 
	d="
M152.925171,114.660591 
	C152.584595,114.869026 152.335571,114.663887 152.069763,114.137260 
	C152.297089,114.053146 152.618332,114.196899 152.925171,114.660591 
z"/>
<path fill="#545454" opacity="1.000000" stroke="none" 
	d="
M216.118164,152.281097 
	C216.406082,152.100128 216.621750,152.249100 216.873672,152.653503 
	C216.674896,152.732956 216.386902,152.633667 216.118164,152.281097 
z"/>
<path fill="#575757" opacity="1.000000" stroke="none" 
	d="
M219.888611,132.708771 
	C219.566025,132.849915 219.335220,132.633133 219.112534,132.095642 
	C219.321671,132.058014 219.608261,132.249969 219.888611,132.708771 
z"/>
<path fill="#575757" opacity="1.000000" stroke="none" 
	d="
M107.645737,128.801361 
	C107.787254,129.023880 107.655418,129.350159 107.302994,129.826752 
	C107.179062,129.619751 107.275719,129.262436 107.645737,128.801361 
z"/>
<path fill="#FFD137" opacity="1.000000" stroke="none" 
	d="
M191.339935,79.921310 
	C191.332870,79.681915 191.646255,79.428452 192.268021,79.124466 
	C192.271057,79.351707 191.965714,79.629463 191.339935,79.921310 
z"/>
<path fill="#FFD02B" opacity="1.000000" stroke="none" 
	d="
M203.905670,60.727943 
	C203.703293,60.796692 203.539688,60.646843 203.420685,60.467419 
	C203.394821,60.428413 203.528763,60.283428 203.742233,60.109589 
	C203.895370,60.031918 203.960434,60.498734 203.905670,60.727943 
z"/>
<path fill="#1A679E" opacity="1.000000" stroke="none" 
	d="
M143.736481,3.086433 
	C143.719849,3.239331 143.469757,3.347160 143.131531,3.309360 
	C143.043427,3.163730 143.502991,3.041363 143.736481,3.086433 
z"/>
<path fill="#FFFCF5" opacity="1.000000" stroke="none" 
	d="
M169.915527,97.077942 
	C168.254486,99.503998 166.385651,100.603363 163.802612,99.305962 
	C162.018921,98.410042 161.004532,96.949791 161.106689,94.913086 
	C161.209473,92.863632 162.410568,91.562218 164.273468,90.861397 
	C167.897919,89.497879 170.216537,91.871071 169.915527,97.077942 
z"/>
<path fill="#F8FAFB" opacity="1.000000" stroke="none" 
	d="
M140.943207,16.625584 
	C138.848099,18.937664 137.704575,23.606737 133.667526,19.113300 
	C131.709595,16.934015 131.518082,14.607258 132.627884,12.258796 
	C133.608444,10.183825 135.891815,10.870024 137.536514,11.120254 
	C140.265060,11.535382 141.232605,13.581588 140.943207,16.625584 
z"/>
<path fill="#FDFDFD" opacity="1.000000" stroke="none" 
	d="
M88.357697,130.333908 
	C94.745239,130.029724 96.414886,131.458420 97.148682,137.275589 
	C97.525269,140.260956 97.622528,143.289993 96.661842,146.111618 
	C95.532005,149.430054 93.142395,150.945480 89.362701,150.464447 
	C85.573143,149.982132 84.381599,148.106766 84.666946,144.501053 
	C84.913795,141.381790 84.873001,138.217590 84.670883,135.091888 
	C84.503136,132.497635 85.462273,131.010666 88.357697,130.333908 
z"/>
<path fill="#FAFAFA" opacity="1.000000" stroke="none" 
	d="
M189.052383,149.348419 
	C186.597473,150.778320 184.283371,151.661407 181.447784,150.058548 
	C177.528748,145.969742 177.474289,141.146027 178.129105,136.293076 
	C178.596970,132.825516 180.709564,130.415619 184.344788,130.172302 
	C187.804153,129.940765 189.935242,132.071762 190.921234,135.210724 
	C192.438293,140.040329 192.118073,144.714600 189.052383,149.348419 
z"/>
</svg>