<svg version="1.1" id="Layer_1" xmlns="http://www.w3.org/2000/svg" xmlns:xlink="http://www.w3.org/1999/xlink" x="0px" y="0px"
	 width="100%" viewBox="0 0 225 225" enable-background="new 0 0 225 225" xml:space="preserve">
<path fill="#FEFEFF" opacity="1.000000" stroke="none" 
	d="
M124.000000,226.000000 
	C84.000000,226.000000 44.499786,225.944092 5.000392,226.098526 
	C1.574284,226.111908 0.897812,225.424347 0.903703,221.999832 
	C1.030420,148.333389 1.000000,74.666679 1.000000,1.000010 
	C74.666656,1.000000 148.333359,1.030417 221.999802,0.903709 
	C225.424240,0.897818 226.102371,1.575541 226.096344,5.000135 
	C225.969025,77.333244 225.969055,149.666687 226.096359,221.999786 
	C226.102386,225.424210 225.426620,226.117035 221.999542,226.099426 
	C189.500381,225.932556 157.000015,226.000000 124.000000,226.000000 
z"/>
<path fill="#2268BA" opacity="1.000000" stroke="none" 
	d="
M168.376373,190.229431 
	C164.027679,182.921066 159.975586,175.892319 156.302170,168.670944 
	C154.886154,165.887253 153.389008,165.269104 150.498962,166.166306 
	C144.145599,168.138702 137.551834,169.037094 130.573944,170.000092 
	C128.604584,175.384033 129.686615,180.854187 129.574280,186.262070 
	C129.510010,189.357452 128.938858,190.682495 125.446251,190.570328 
	C117.148376,190.303879 108.829964,190.297958 100.532616,190.572449 
	C96.999710,190.689331 96.360931,189.315216 96.458015,186.237045 
	C96.620209,181.094681 96.614021,175.939865 96.136185,170.413132 
	C78.781876,167.571671 62.326389,163.219833 47.346096,154.377792 
	C32.351006,145.527054 20.126648,134.191223 14.611885,117.023384 
	C13.954239,114.976089 13.571627,112.840446 13.098488,110.351349 
	C13.678153,109.173317 13.516928,108.315842 13.177600,107.224533 
	C12.863061,104.945877 12.768017,102.905388 12.805969,100.444733 
	C13.937519,99.009415 13.393069,97.758530 13.331962,96.330002 
	C15.174730,82.116608 22.772490,71.415489 33.012131,62.406326 
	C46.298309,50.716721 61.969467,43.609917 79.107498,39.774002 
	C87.667801,37.857990 96.335251,36.301834 105.589005,36.000607 
	C110.739410,37.032795 115.494064,36.315712 120.600021,36.271141 
	C148.955109,37.193913 174.484543,44.995724 195.724487,64.011475 
	C205.103394,72.408272 211.490646,82.733643 213.823456,95.681740 
	C213.276840,97.221367 213.449478,98.405174 213.851410,99.805756 
	C214.163193,101.395851 214.266571,102.770103 214.249054,104.543686 
	C212.906174,106.284035 213.687912,107.892113 213.696762,109.667542 
	C211.459030,126.971565 201.393021,139.016724 188.123596,148.697556 
	C184.478622,151.356781 184.276520,153.056732 186.559616,156.712860 
	C193.250244,167.427170 199.507278,178.412231 205.991180,189.638550 
	C197.474915,191.133041 188.862183,190.216324 180.270767,190.461212 
	C176.459000,190.569855 172.639435,190.547836 168.376373,190.229431 
z"/>
<path fill="#015CB6" opacity="1.000000" stroke="none" 
	d="
M95.850998,170.500748 
	C98.363640,174.685516 96.856026,179.703049 96.851418,184.504547 
	C96.847290,188.808853 97.908958,190.332550 102.403244,190.103851 
	C109.834885,189.725723 117.302818,189.875595 124.749176,190.058746 
	C127.951698,190.137527 129.103058,189.137436 129.077225,185.838562 
	C129.037262,180.743088 128.430283,175.607803 129.831085,170.283142 
	C130.133133,175.852722 129.994797,181.676895 130.107651,187.496185 
	C130.157486,190.066132 129.762039,191.381638 126.674377,191.314987 
	C117.527420,191.117523 108.372253,191.160843 99.223038,191.296051 
	C96.635307,191.334274 95.736855,190.587891 95.820068,187.936340 
	C95.997444,182.284882 95.869728,176.623840 95.850998,170.500748 
z"/>
<path fill="#055FB7" opacity="1.000000" stroke="none" 
	d="
M168.104279,190.439987 
	C180.320526,190.014511 192.712418,190.002319 205.576248,189.988007 
	C206.708099,190.807739 206.156311,191.181931 205.457352,191.176575 
	C193.064789,191.081924 180.665192,191.739151 168.104279,190.439987 
z"/>
<path fill="#045EB7" opacity="1.000000" stroke="none" 
	d="
M120.516190,35.999016 
	C116.256897,37.918453 111.426514,36.899269 106.327942,36.364605 
	C110.705597,36.026348 115.381775,35.971584 120.516190,35.999016 
z"/>
<path fill="#075EB6" opacity="1.000000" stroke="none" 
	d="
M213.948730,109.548355 
	C212.550995,108.507607 212.798386,106.953064 213.839813,105.153999 
	C214.099167,106.341194 214.070206,107.739380 213.948730,109.548355 
z"/>
<path fill="#075EB6" opacity="1.000000" stroke="none" 
	d="
M214.113403,99.625748 
	C212.683807,99.094254 212.858887,97.847168 213.570129,96.302490 
	C213.921570,97.122162 214.044296,98.176025 214.113403,99.625748 
z"/>
<path fill="#085EB6" opacity="1.000000" stroke="none" 
	d="
M13.097624,96.445366 
	C14.283333,97.178329 14.213522,98.386597 13.208511,99.835327 
	C12.957067,98.960403 12.975167,97.896240 13.097624,96.445366 
z"/>
<path fill="#085EB6" opacity="1.000000" stroke="none" 
	d="
M12.906366,107.358337 
	C14.050025,107.626595 14.177437,108.507935 13.369057,109.760880 
	C13.041839,109.214745 12.948233,108.472534 12.906366,107.358337 
z"/>
<path fill="#FAFCFD" opacity="1.000000" stroke="none" 
	d="
M195.807495,109.341476 
	C196.113770,108.542839 196.181458,108.101959 196.147064,107.338272 
	C195.078720,105.736526 195.672714,104.269447 195.664169,102.478165 
	C193.415100,87.201767 183.159256,80.921692 169.329239,78.146820 
	C156.668472,78.880165 144.382767,78.350670 132.102188,78.465683 
	C122.135513,78.559036 112.167259,78.482826 102.199707,78.485344 
	C96.492851,78.486786 96.497459,78.489960 96.483818,84.003944 
	C96.429977,105.765465 96.596497,127.527275 96.028992,149.612503 
	C85.023392,146.952560 75.178185,142.399445 66.609413,135.314407 
	C59.371754,129.330002 54.210316,122.035950 52.184174,112.331924 
	C50.992615,109.626389 51.700878,107.147163 51.836487,104.337578 
	C57.436611,83.875359 72.997665,74.755379 90.758690,68.150932 
	C99.000885,65.086082 107.631096,63.490318 116.710114,62.397598 
	C125.392029,60.757725 133.804764,61.819576 142.573151,61.891068 
	C151.094025,63.731403 159.384842,64.406754 167.338959,66.967247 
	C176.986023,70.072716 185.917953,74.337326 192.899368,81.910362 
	C198.242233,87.705986 201.355576,94.593872 202.588196,102.731804 
	C204.274384,106.056831 203.153442,109.242432 203.128098,112.707268 
	C200.832291,125.167885 194.956741,134.666245 184.792099,141.772598 
	C180.490173,144.780182 176.666687,145.086166 172.269363,142.862091 
	C170.828094,142.133118 169.406677,141.364929 167.561356,140.397110 
	C182.231033,137.253464 193.000824,130.232010 195.862549,114.330498 
	C195.290634,112.559967 195.567764,111.121162 195.807495,109.341476 
z"/>
<path fill="#F9FAFD" opacity="1.000000" stroke="none" 
	d="
M129.885574,103.211792 
	C130.377533,102.805092 130.581482,102.612259 130.869812,102.209183 
	C137.682571,100.892380 144.424271,101.757812 151.572479,101.791634 
	C155.934494,103.281219 160.108459,104.174217 160.937790,109.326790 
	C161.934296,115.517998 159.684158,119.203529 153.196198,121.477966 
	C151.079208,123.233299 148.907425,122.191536 146.465942,122.286606 
	C145.575439,122.079727 145.111740,122.029457 144.304352,122.054565 
	C139.906509,122.867683 135.822311,122.358917 131.355408,122.167900 
	C130.857162,121.661011 130.706207,121.444672 130.338867,121.154381 
	C129.992493,120.883751 129.813278,120.721443 129.853958,120.270691 
	C130.145752,114.964294 130.217667,109.946342 130.181702,104.472923 
	C129.925919,103.831657 129.778000,103.645851 129.885574,103.211792 
z"/>
<path fill="#015DB6" opacity="1.000000" stroke="none" 
	d="
M96.024994,149.718506 
	C95.732285,127.657646 95.938377,105.377914 95.768715,83.101036 
	C95.735535,78.745186 96.747368,77.585533 101.187790,77.650154 
	C123.466263,77.974327 145.750412,77.908653 168.488373,78.080917 
	C167.365417,79.591919 165.442078,78.966660 163.678177,78.970520 
	C143.199524,79.015335 122.719711,79.106262 102.242851,78.909576 
	C98.108681,78.869865 96.867432,80.029572 96.910309,84.208755 
	C97.115288,104.185921 97.016541,124.166374 96.977524,144.145569 
	C96.974037,145.932587 97.477074,147.815979 96.024994,149.718506 
z"/>
<path fill="#F5F7FB" opacity="1.000000" stroke="none" 
	d="
M130.649979,154.244232 
	C130.590546,151.556824 128.080887,148.065735 132.043701,147.034622 
	C138.165817,145.441635 145.762817,148.384674 146.803955,152.157242 
	C147.346466,154.123032 145.894348,153.899261 144.822906,153.950439 
	C140.215393,154.170517 135.605148,154.333618 130.649979,154.244232 
z"/>
<path fill="#025CB6" opacity="1.000000" stroke="none" 
	d="
M142.707855,61.851582 
	C134.627457,62.212505 126.296501,62.234657 117.500786,62.212746 
	C118.728668,60.082752 121.078583,61.018940 123.095871,61.060120 
	C129.549271,61.191856 136.029892,60.366314 142.707855,61.851582 
z"/>
<path fill="#015AB5" opacity="1.000000" stroke="none" 
	d="
M151.713577,101.707939 
	C145.310104,102.036552 138.617218,102.062561 131.455536,102.060944 
	C137.741089,99.932518 144.596588,101.123238 151.713577,101.707939 
z"/>
<path fill="#025CB6" opacity="1.000000" stroke="none" 
	d="
M131.236542,122.225571 
	C134.988052,121.942406 139.017212,121.973099 143.503525,122.066879 
	C139.860641,123.750000 135.685104,123.074501 131.236542,122.225571 
z"/>
<path fill="#055EB7" opacity="1.000000" stroke="none" 
	d="
M203.154312,112.815453 
	C202.793411,110.035851 202.755341,106.991730 202.759186,103.496498 
	C205.096313,106.066696 203.919830,109.334908 203.154312,112.815453 
z"/>
<path fill="#045EB7" opacity="1.000000" stroke="none" 
	d="
M51.794224,104.210861 
	C52.101982,106.342857 52.104263,108.728691 52.058556,111.558243 
	C50.220402,109.601448 50.924297,107.028244 51.794224,104.210861 
z"/>
<path fill="#025CB6" opacity="1.000000" stroke="none" 
	d="
M146.314850,122.391853 
	C148.051147,121.992416 150.063156,121.854828 152.507172,121.712921 
	C151.112610,123.969185 148.790894,122.903732 146.314850,122.391853 
z"/>
<path fill="#045DB6" opacity="1.000000" stroke="none" 
	d="
M195.769363,109.197220 
	C196.037491,110.368156 196.028915,111.752602 195.924591,113.542969 
	C194.565430,112.521461 194.822357,110.981400 195.769363,109.197220 
z"/>
<path fill="#045DB6" opacity="1.000000" stroke="none" 
	d="
M195.550720,102.324326 
	C195.919296,103.443504 196.057693,104.819786 196.120544,106.605766 
	C194.470230,105.755287 194.937698,104.161438 195.550720,102.324326 
z"/>
<path fill="#0E60B7" opacity="1.000000" stroke="none" 
	d="
M129.894287,120.085205 
	C130.125549,120.156273 130.177277,120.330284 130.200348,120.775185 
	C129.835144,120.858238 129.320663,120.765167 129.894287,120.085205 
z"/>
<path fill="#0E60B7" opacity="1.000000" stroke="none" 
	d="
M129.955719,103.053009 
	C130.168564,103.141670 130.196060,103.319801 130.148682,103.757690 
	C129.889938,103.832977 129.694138,103.657661 129.536392,103.453018 
	C129.515411,103.425797 129.687607,103.249649 129.955719,103.053009 
z"/>
</svg>