<svg version="1.1" id="Layer_1" xmlns="http://www.w3.org/2000/svg" xmlns:xlink="http://www.w3.org/1999/xlink" x="0px" y="0px"
	 width="100%" viewBox="0 0 268 188" enable-background="new 0 0 268 188" xml:space="preserve">
<path fill="#FFFFFF" opacity="1.000000" stroke="none" 
	d="
M197.000000,189.000000 
	C132.666672,189.000000 68.833282,188.964981 5.000223,189.096725 
	C1.575529,189.103790 0.895423,188.424759 0.903080,184.999817 
	C1.037216,125.000122 1.037212,64.999954 0.903090,5.000262 
	C0.895435,1.575480 1.575731,0.899308 5.000089,0.904120 
	C91.666565,1.025916 178.333282,1.025909 264.999786,0.904139 
	C268.423859,0.899328 269.104584,1.575080 269.096924,5.000138 
	C268.962769,64.999825 268.962830,124.999985 269.096924,184.999680 
	C269.104584,188.424332 268.428955,189.131332 264.999207,189.101334 
	C242.500900,188.904663 220.000031,189.000000 197.000000,189.000000 
z"/>
<path fill="#0485C5" opacity="1.000000" stroke="none" 
	d="
M179.532394,101.248848 
	C179.887726,119.726395 179.840668,138.047150 180.064682,156.364609 
	C180.109375,160.018707 178.221893,159.788391 175.723206,159.886078 
	C173.026474,159.991516 171.917084,159.336227 171.956284,156.332245 
	C172.119263,143.842102 171.931000,131.347397 172.089966,118.857140 
	C172.130051,115.708138 171.406326,114.375381 167.997162,114.616341 
	C163.853745,114.909180 159.664688,114.855591 155.512924,114.629417 
	C152.560867,114.468605 151.929626,115.664665 151.956055,118.367638 
	C152.074951,130.525620 151.874420,142.687775 152.087097,154.843201 
	C152.152283,158.569229 151.421417,159.992447 147.263138,159.932953 
	C129.611008,159.680420 111.951477,159.696136 94.298729,159.926285 
	C90.386986,159.977295 89.642708,158.721924 89.681206,155.119934 
	C89.868073,137.632721 89.780090,120.142586 89.861641,102.169495 
	C92.946861,100.488853 95.848839,99.109093 98.468521,96.617020 
	C99.133232,96.519157 99.547157,96.491386 99.731430,96.706863 
	C103.661011,101.301804 107.850098,101.185921 112.596298,97.371033 
	C114.004501,97.272232 114.776413,97.928741 115.615211,98.456276 
	C120.640335,101.616638 121.812218,101.470604 126.633621,96.969116 
	C127.424232,96.695007 127.910095,96.787262 128.315430,97.083305 
	C134.809418,101.826378 134.807892,101.828461 141.637909,96.765121 
	C147.616745,101.747673 147.616745,101.747673 155.727661,97.485428 
	C163.551163,101.907799 163.620743,101.904419 170.641159,96.762444 
	C173.311432,99.002205 175.821060,100.896217 179.532394,101.248848 
z"/>
<path fill="#0C86C6" opacity="1.000000" stroke="none" 
	d="
M100.238083,66.872627 
	C103.150703,65.626823 102.835365,63.089336 102.846634,60.593845 
	C102.918900,44.593517 114.035347,32.141735 129.953934,30.171688 
	C146.548477,28.117979 161.200912,37.395370 165.388229,52.514912 
	C166.430389,56.277916 166.144760,60.082077 166.166946,64.334091 
	C166.407837,66.606850 165.118851,66.580177 163.506607,66.521255 
	C160.839767,64.076286 162.061798,61.047234 161.321518,58.024071 
	C159.698639,42.361248 147.275772,34.764912 135.532303,34.495052 
	C121.008484,34.161304 109.921715,43.604080 108.000870,55.496277 
	C107.101700,58.288677 107.143265,60.785423 107.584862,63.618843 
	C108.214394,64.976418 108.862312,65.939301 109.363434,66.985527 
	C109.650093,67.583977 109.945984,67.811394 109.562202,67.267418 
	C109.505020,67.186348 109.648911,66.963409 109.855347,66.535782 
	C110.305168,65.934113 110.648582,65.663200 111.357849,65.310333 
	C112.644562,64.953316 113.588699,64.981522 114.822395,65.520264 
	C116.355698,68.390160 114.698051,71.150085 115.118843,74.141708 
	C111.909225,75.874146 108.688866,74.482979 105.234299,75.228790 
	C103.340714,75.177811 101.991135,74.751656 100.486740,73.530457 
	C98.679771,71.050011 98.149727,68.842560 100.238083,66.872627 
z"/>
<path fill="#128AC8" opacity="1.000000" stroke="none" 
	d="
M162.508041,65.708557 
	C163.776688,65.956055 164.805573,66.123619 165.898224,65.086349 
	C166.945755,65.409874 167.769180,66.038078 168.794632,66.904388 
	C169.888748,67.905029 170.071716,68.948380 170.129364,70.434746 
	C169.943283,72.216896 169.306030,73.315590 167.790527,74.262398 
	C166.982513,74.603958 166.496399,74.689194 165.641754,74.610435 
	C163.852829,74.012047 163.141998,72.122711 161.011963,72.580841 
	C160.571106,72.879471 160.394592,73.002777 159.910156,73.233749 
	C157.431213,72.587837 155.849274,73.910759 153.807861,74.999893 
	C149.855087,75.619865 146.237381,75.234428 142.201141,75.459167 
	C138.183319,75.548447 134.599762,75.462868 130.563370,75.507126 
	C125.863159,75.207458 121.601677,75.588127 116.905640,75.108994 
	C116.178223,74.863808 115.901703,74.725029 115.310974,74.244713 
	C113.218597,71.673149 112.969391,69.436066 114.979950,66.854843 
	C116.262703,64.119843 118.628922,64.496651 120.672943,64.487190 
	C131.095428,64.438980 141.519745,64.240234 152.338486,64.634521 
	C154.952194,64.047325 155.435028,68.330170 158.270996,66.320831 
	C159.194107,65.450432 160.082733,65.431236 161.279907,65.345215 
	C161.821777,65.401039 162.034348,65.454811 162.508041,65.708557 
z"/>
<path fill="#DC0505" opacity="1.000000" stroke="none" 
	d="
M85.559158,94.305420 
	C87.082802,88.231522 88.947151,82.463722 90.922424,76.344078 
	C95.026749,73.576950 99.282570,74.742607 103.909149,75.179901 
	C106.623703,76.774780 105.571503,78.806473 105.004951,80.569008 
	C103.601624,84.934761 102.340508,89.350723 100.411781,93.983994 
	C99.889053,94.494530 99.636368,94.653755 98.959213,94.966927 
	C94.300407,95.514702 90.058914,96.085571 85.559158,94.305420 
z"/>
<path fill="#DC0505" opacity="1.000000" stroke="none" 
	d="
M177.630524,75.610138 
	C180.317337,81.667290 182.618301,87.459953 184.883896,93.626633 
	C180.895370,96.573311 176.533508,95.199097 171.874283,95.206818 
	C171.138809,95.010956 170.853180,94.905807 170.189453,94.547981 
	C167.900787,88.404274 166.258820,82.466133 166.936890,75.831772 
	C170.557251,74.159790 173.894638,74.312248 177.630524,75.610138 
z"/>
<path fill="#B70609" opacity="1.000000" stroke="none" 
	d="
M170.773193,94.324150 
	C175.322037,94.013176 179.630478,94.006660 184.393738,94.000397 
	C185.130692,97.477768 183.056183,99.466751 180.110077,101.241501 
	C175.876419,102.376457 172.792175,101.318810 170.721786,97.195999 
	C170.185226,96.121628 170.192307,95.376472 170.773193,94.324150 
z"/>
<path fill="#B70609" opacity="1.000000" stroke="none" 
	d="
M85.115662,94.359711 
	C89.481361,93.990395 93.744263,93.981483 98.464989,93.951843 
	C99.556786,94.314331 99.571457,94.865692 99.103165,95.667023 
	C97.297935,99.405701 95.158035,102.162201 90.325012,101.706581 
	C87.082062,100.219574 85.035667,98.184662 85.115662,94.359711 
z"/>
<path fill="#168BC8" opacity="1.000000" stroke="none" 
	d="
M169.435959,71.739265 
	C169.144012,70.295563 169.070450,69.149963 168.996765,67.573425 
	C170.670593,66.260498 172.479797,66.315376 174.298782,66.324821 
	C180.362167,66.356316 181.360748,68.050896 178.352478,74.031418 
	C174.919632,74.602882 171.233749,77.434029 169.435959,71.739265 
z"/>
<path fill="#0485C5" opacity="1.000000" stroke="none" 
	d="
M91.383118,74.300293 
	C88.287186,67.446060 89.166443,66.448845 98.215240,66.344498 
	C99.771774,68.813866 99.004570,71.459694 98.925789,74.301819 
	C96.311867,75.177605 94.027168,75.216652 91.383118,74.300293 
z"/>
<path fill="#DFDEE1" opacity="1.000000" stroke="none" 
	d="
M91.020859,74.379089 
	C93.365555,74.029419 95.711021,74.002678 98.496384,73.978889 
	C99.398781,73.513077 99.762260,72.926743 100.747803,72.845490 
	C102.170143,73.456894 103.285507,73.937302 104.735039,74.573814 
	C105.313545,75.059395 105.382317,75.425705 105.074295,76.013718 
	C100.550415,76.110619 96.251022,76.017792 91.492485,75.958588 
	C91.029449,75.562149 91.025551,75.132080 91.020859,74.379089 
z"/>
<path fill="#DFDEE1" opacity="1.000000" stroke="none" 
	d="
M169.147736,71.734634 
	C170.988846,74.981018 174.303406,73.805107 177.573792,74.105515 
	C178.002548,74.550201 178.014008,74.928673 178.020935,75.590897 
	C174.666016,75.893951 171.315643,75.913277 167.513718,75.991486 
	C166.724533,75.685493 166.568405,75.254799 166.818375,74.477936 
	C167.721420,73.474388 168.399643,72.751244 169.147736,71.734634 
z"/>
<path fill="#A6CFE8" opacity="1.000000" stroke="none" 
	d="
M100.911789,72.655869 
	C100.544846,73.275955 100.034920,73.575417 99.230637,73.928360 
	C98.662262,71.669670 97.411377,69.398331 98.638039,66.672531 
	C98.975357,66.414322 99.319923,66.506676 100.109924,66.896164 
	C100.036095,68.931786 99.634247,70.665398 100.911789,72.655869 
z"/>
<path fill="#FAFCFE" opacity="1.000000" stroke="none" 
	d="
M125.933273,117.207596 
	C125.586761,121.767097 127.768906,127.179840 125.005386,129.561478 
	C122.673203,131.571396 117.429512,130.207291 113.474190,130.326035 
	C112.645752,130.350891 111.815948,130.329666 110.986771,130.329666 
	C98.200592,130.329666 98.225716,130.332001 99.394066,117.678452 
	C99.546394,116.028618 99.686401,114.760666 101.796486,114.774803 
	C109.258598,114.824837 116.721184,114.802315 124.183525,114.824448 
	C125.407433,114.828079 125.940613,115.548027 125.933273,117.207596 
z"/>
<path fill="#DFDEE1" opacity="1.000000" stroke="none" 
	d="
M170.889465,93.972466 
	C170.900330,94.731117 170.787094,95.442558 170.612366,96.508881 
	C166.201111,103.395981 161.164536,103.807541 156.242462,97.766846 
	C155.030701,96.380791 155.089798,95.201546 156.192932,93.684494 
	C160.928055,92.077461 165.290131,91.858780 170.068909,93.689072 
	C170.502441,93.887589 170.765350,93.925247 170.889465,93.972466 
z"/>
<path fill="#DFDEE1" opacity="1.000000" stroke="none" 
	d="
M142.103470,96.916946 
	C136.711349,103.354507 132.299072,103.465012 127.423882,97.380508 
	C126.355247,96.649048 126.093498,95.824921 125.961945,94.490250 
	C126.106110,93.148102 126.450897,92.364426 127.675537,91.770172 
	C132.449738,93.325058 137.220657,91.721581 141.878204,93.762161 
	C142.718185,94.865379 142.760773,95.715309 142.103470,96.916946 
z"/>
<path fill="#B60407" opacity="1.000000" stroke="none" 
	d="
M141.946350,97.535950 
	C141.831741,96.411171 141.871765,95.585472 142.146912,94.068710 
	C146.205643,92.065979 150.122574,92.721375 154.426514,92.920113 
	C155.096802,93.132095 155.353973,93.249809 155.917480,93.660995 
	C156.149826,94.906754 156.075836,95.859039 155.980270,97.167618 
	C150.825500,103.122025 146.819321,103.211975 141.946350,97.535950 
z"/>
<path fill="#B4070C" opacity="1.000000" stroke="none" 
	d="
M126.646538,93.764572 
	C127.038994,94.814255 127.086853,95.596420 127.154823,96.774551 
	C122.513565,103.369247 117.871033,103.383797 113.378647,96.896072 
	C112.147583,95.706268 112.255478,94.740562 113.217079,93.489120 
	C113.812798,93.142120 114.072456,93.036575 114.746201,92.834068 
	C118.895760,92.673828 122.682381,91.860748 126.646538,93.764572 
z"/>
<path fill="#DEE1E4" opacity="1.000000" stroke="none" 
	d="
M112.592003,93.625717 
	C113.029732,94.662621 113.081657,95.371117 113.129120,96.329399 
	C108.215851,103.749504 103.520012,103.757774 99.064758,96.227440 
	C98.924088,95.372269 98.985939,94.893257 98.985306,94.172676 
	C98.922813,93.931114 99.143394,93.805405 99.266312,93.773682 
	C103.603600,91.923355 107.880859,91.917244 112.592003,93.625717 
z"/>
<path fill="#FCFEFE" opacity="1.000000" stroke="none" 
	d="
M155.370361,66.863510 
	C141.974030,65.907181 128.945587,66.532921 115.458847,66.460495 
	C113.860092,66.508736 112.726036,66.496391 111.197052,66.643845 
	C110.802124,66.803642 110.508125,66.497597 110.614624,66.681122 
	C108.018639,70.891731 108.685631,64.671883 106.799484,65.336441 
	C106.879555,64.336243 107.032005,63.603313 107.376640,62.531071 
	C116.228386,45.790840 133.602661,42.460247 146.967697,48.219593 
	C153.316605,50.955505 157.798264,55.665726 161.357208,61.894932 
	C161.962997,63.179012 161.976761,64.207016 162.050018,65.564476 
	C161.188095,66.481987 160.872742,67.834854 159.210144,67.312729 
	C157.865723,67.196419 156.764297,67.525719 155.370361,66.863510 
z"/>
<path fill="#F4F9FC" opacity="1.000000" stroke="none" 
	d="
M106.695358,56.151005 
	C108.825920,42.726727 120.150940,33.439350 134.266052,33.268620 
	C148.568939,33.095619 159.735153,42.178818 162.534607,56.626476 
	C162.376953,57.169079 162.159180,57.300068 161.560944,57.444752 
	C159.986404,57.139870 159.180939,56.288357 158.448975,55.381824 
	C146.919662,41.102829 121.537918,41.367657 110.525261,55.852303 
	C109.924362,56.642651 109.237183,57.377327 108.066406,58.112652 
	C106.784340,58.034458 106.527802,57.378204 106.695358,56.151005 
z"/>
<path fill="#FEFBFB" opacity="1.000000" stroke="none" 
	d="
M113.105026,93.856583 
	C108.781075,93.939720 104.584335,93.925308 99.888412,93.826431 
	C101.162041,88.132111 102.934860,82.522263 104.778748,76.557938 
	C104.944794,75.884041 105.009369,75.558586 105.056374,74.978516 
	C107.927315,72.148293 111.158356,74.491928 114.587250,73.971725 
	C115.169655,73.960854 115.342560,74.018539 115.776840,74.156479 
	C116.851250,74.552948 117.366798,75.120522 117.536324,76.399017 
	C117.198494,82.471451 116.025238,87.976097 113.906967,93.495270 
	C113.521019,93.619736 113.232246,93.759033 113.105026,93.856583 
z"/>
<path fill="#B9D8EC" opacity="1.000000" stroke="none" 
	d="
M160.813278,57.275932 
	C161.384598,56.958553 161.626907,56.965992 162.231964,57.005760 
	C163.441483,59.684757 162.911362,62.389515 162.851379,65.489746 
	C162.769180,65.908531 162.361160,65.948067 162.156448,65.937523 
	C161.618515,65.141357 161.285278,64.355736 160.969040,63.248169 
	C160.258514,61.203850 159.688019,59.466682 160.813278,57.275932 
z"/>
<path fill="#B9D8EC" opacity="1.000000" stroke="none" 
	d="
M106.590012,56.111317 
	C107.001663,56.354130 107.185188,56.930256 107.581390,57.720509 
	C109.400566,59.126808 108.615158,60.682705 108.221603,62.551620 
	C107.755707,63.562481 107.502754,64.168358 106.929489,64.904709 
	C105.500076,62.201229 106.050606,59.319485 106.590012,56.111317 
z"/>
<path fill="#128AC8" opacity="1.000000" stroke="none" 
	d="
M110.729843,66.848824 
	C110.721123,66.864655 110.450912,66.680580 110.450912,66.680580 
	C110.450912,66.680580 110.712585,66.485542 110.757355,66.644592 
	C110.802124,66.803642 110.738556,66.832993 110.729843,66.848824 
z"/>
<path fill="#128AC8" opacity="1.000000" stroke="none" 
	d="
M110.445358,71.539864 
	C110.408791,71.479790 110.481934,71.599937 110.445358,71.539864 
z"/>
<path fill="#F8F4F5" opacity="1.000000" stroke="none" 
	d="
M170.502258,93.458664 
	C166.044647,93.920403 161.586853,93.953224 156.676453,93.970253 
	C156.223831,93.954468 156.039368,93.911812 155.967682,93.973633 
	C153.778229,90.645103 154.201462,86.689079 153.931564,83.035378 
	C153.594849,78.477394 151.686493,76.918526 147.443390,77.368813 
	C146.471741,77.471931 145.477753,77.306946 144.105957,76.999771 
	C142.870575,76.542664 142.296616,75.956032 142.024261,74.667191 
	C146.054398,74.170143 150.071381,74.102097 154.546936,73.962891 
	C156.044052,72.953217 157.324432,72.906425 158.924622,72.825027 
	C159.295944,72.484482 159.361557,72.230530 159.677185,71.672806 
	C161.845764,71.359009 162.961197,73.005402 164.793747,73.929123 
	C165.461777,74.243309 165.911636,74.251137 166.702332,74.228249 
	C167.034134,74.609901 167.025055,75.022278 167.039062,75.742508 
	C168.208801,81.710159 169.355438,87.369957 170.502258,93.458664 
z"/>
<path fill="#FFFEFE" opacity="1.000000" stroke="none" 
	d="
M141.577057,74.172195 
	C142.292786,74.667091 142.548157,75.095993 142.899719,75.755508 
	C145.675247,81.804153 143.287979,87.514702 142.359589,93.644516 
	C142.089767,94.027100 141.953262,93.875053 141.857697,93.911697 
	C137.237564,93.278259 132.404404,95.680290 127.982635,92.180283 
	C125.222771,87.083351 127.376671,82.334465 127.766342,77.180351 
	C128.064529,75.900253 128.430161,75.134384 129.579254,74.429688 
	C133.682053,74.194473 137.399384,74.150337 141.577057,74.172195 
z"/>
<path fill="#F8F4F5" opacity="1.000000" stroke="none" 
	d="
M129.508423,74.164093 
	C129.697647,74.692581 129.430573,75.146553 129.063385,75.844376 
	C125.304947,78.282097 121.521790,77.831390 117.349808,76.282318 
	C116.752426,75.520905 116.507965,75.096870 116.150856,74.454781 
	C120.376183,74.187675 124.714157,74.138618 129.508423,74.164093 
z"/>
<path fill="#0C86C6" opacity="1.000000" stroke="none" 
	d="
M155.008499,67.016357 
	C156.126831,66.693329 157.263428,66.656487 158.660431,66.970139 
	C157.611160,69.823578 156.309586,70.583626 155.008499,67.016357 
z"/>
<path fill="#0C86C6" opacity="1.000000" stroke="none" 
	d="
M164.977432,73.887985 
	C162.941864,74.584816 161.630844,73.367752 160.160583,71.683380 
	C162.950195,68.972099 163.586487,72.087997 164.977432,73.887985 
z"/>
<path fill="#0C86C6" opacity="1.000000" stroke="none" 
	d="
M159.051056,72.575829 
	C159.178528,74.067001 159.178528,74.067001 155.411575,73.958168 
	C155.636017,71.677597 156.689209,70.568825 159.051056,72.575829 
z"/>
<path fill="#DC0505" opacity="1.000000" stroke="none" 
	d="
M116.895393,76.322510 
	C120.684853,75.935005 124.372818,75.925064 128.512024,76.001678 
	C128.574860,81.025276 128.186417,85.962326 127.819580,91.340744 
	C127.619873,92.337753 127.398560,92.893402 127.084198,93.740570 
	C122.821465,93.978302 118.651787,93.924500 114.001556,93.745224 
	C114.611977,87.979851 115.702934,82.339966 116.895393,76.322510 
z"/>
<path fill="#DC0404" opacity="1.000000" stroke="none" 
	d="
M142.547867,94.019440 
	C142.361221,88.307304 142.632660,82.587502 142.950027,76.426910 
	C155.138657,75.502480 155.140717,75.502373 155.784302,87.682823 
	C155.880295,89.499596 155.946320,91.317947 155.961090,93.585510 
	C151.599319,94.027557 147.302643,94.019661 142.547867,94.019440 
z"/>
<path fill="#0F87C6" opacity="1.000000" stroke="none" 
	d="
M108.317383,62.822563 
	C107.986115,61.558437 107.963562,60.160275 107.867538,58.348370 
	C113.903725,46.948704 123.960251,43.473976 135.700455,43.561356 
	C146.131241,43.638988 154.515442,48.065639 161.009094,56.639301 
	C161.084900,58.658752 161.027512,60.366390 160.978073,62.500122 
	C151.338898,48.784698 139.991852,43.931683 125.953247,47.992611 
	C117.992989,50.295269 112.257858,55.262035 108.317383,62.822563 
z"/>
</svg>