<svg version="1.1" id="Layer_1" xmlns="http://www.w3.org/2000/svg" xmlns:xlink="http://www.w3.org/1999/xlink" x="0px" y="0px"
	 width="100%" viewBox="0 0 211 239" enable-background="new 0 0 211 239" xml:space="preserve">
<path fill="#FEFEFE" opacity="1.000000" stroke="none" 
	d="
M110.000000,240.000000 
	C73.333336,240.000000 37.166672,240.000000 1.000005,240.000000 
	C1.000003,160.333344 1.000003,80.666679 1.000002,1.000010 
	C69.999992,1.000000 139.000046,1.032440 207.999786,0.903522 
	C211.424332,0.897123 212.101746,1.575629 212.096176,5.000123 
	C211.970871,81.999916 211.970886,159.000000 212.096176,235.999802 
	C212.101746,239.424133 211.426620,240.117035 207.999542,240.099426 
	C175.500381,239.932556 143.000015,240.000000 110.000000,240.000000 
z"/>
<path fill="#034F99" opacity="1.000000" stroke="none" 
	d="
M16.979000,175.184448 
	C13.713797,174.058395 13.730483,171.398193 13.727036,168.945404 
	C13.681631,136.641159 13.702927,104.336845 13.688344,72.032555 
	C13.686770,68.546898 15.119447,66.122009 18.210119,64.341995 
	C45.985355,48.345356 73.730667,32.296467 101.435799,16.178743 
	C105.008453,14.100313 108.173615,14.211500 111.690392,16.258924 
	C139.962372,32.718472 168.279205,49.100979 196.752747,65.801025 
	C197.234787,67.837517 195.787476,68.354248 194.741791,69.010094 
	C184.660416,75.333054 174.284760,81.168304 164.151993,87.407883 
	C162.896912,88.180733 161.572556,88.980972 159.719635,88.018936 
	C157.745331,81.217148 157.745331,81.217148 149.721222,81.519730 
	C149.188797,81.682899 148.982559,81.768944 148.294205,82.338760 
	C146.837555,85.910599 147.471848,89.084053 147.337326,92.215210 
	C147.063782,98.582863 142.981277,102.220284 135.979218,101.685493 
	C134.599442,100.328796 134.055862,98.925209 133.609650,97.501602 
	C127.704712,78.662094 102.930695,76.479340 91.523819,86.168350 
	C83.581116,92.914886 82.304092,101.908623 81.359283,111.224937 
	C80.577225,118.936577 82.377953,126.408134 83.663452,134.300842 
	C79.977768,138.545624 75.685829,141.272186 70.150955,142.301117 
	C68.653351,139.081192 70.821213,136.722961 71.604340,133.711227 
	C73.145004,130.615524 72.955330,127.791122 71.964134,124.604408 
	C68.982735,116.341713 63.040909,111.953575 55.230946,109.747108 
	C52.182049,108.885735 49.148582,108.011154 46.248196,106.717133 
	C40.754589,104.266151 38.294083,100.949059 38.962765,96.665123 
	C39.579086,92.716660 41.999123,90.529396 45.901932,89.874168 
	C52.123745,88.829620 56.762444,90.349579 58.515835,95.268661 
	C60.132912,99.805336 63.181927,99.746071 66.779228,99.653893 
	C69.665146,99.579948 70.454475,98.267014 69.995193,95.468788 
	C68.379173,85.623093 58.957245,79.285736 47.422073,80.499359 
	C45.104122,80.743233 42.806511,81.201202 40.556938,81.809715 
	C32.763756,83.917763 27.953226,89.695290 27.401627,97.517151 
	C26.831617,105.600060 30.830526,112.409538 38.285980,115.406380 
	C42.914871,117.267044 47.704788,118.743660 52.323956,120.639481 
	C56.171051,122.218430 59.324371,124.728607 60.060280,129.088242 
	C60.696198,132.855515 60.311935,136.736908 56.595207,138.787338 
	C52.093117,141.271042 47.264618,141.057831 42.756851,138.537476 
	C40.224117,137.121399 38.629986,134.822174 37.607929,132.021729 
	C36.362808,128.610077 32.320614,127.036682 28.581804,128.594315 
	C24.776535,130.179642 26.321451,133.398010 27.119276,135.898529 
	C29.894293,144.595901 39.747875,150.254105 50.407219,149.551300 
	C51.895878,149.453156 53.356091,148.955353 55.230656,149.362427 
	C57.039082,151.834015 54.999165,152.798141 53.656662,153.621353 
	C41.667503,160.972946 29.786369,168.512329 16.979000,175.184448 
z"/>
<path fill="#023667" opacity="1.000000" stroke="none" 
	d="
M16.643970,175.312134 
	C22.046310,170.307800 28.851562,167.483246 34.950687,163.557999 
	C41.770798,159.168732 48.758472,155.039841 55.856762,150.522675 
	C60.360817,147.453049 64.913017,145.016769 69.360832,141.896973 
	C74.517838,140.714325 78.023369,137.057968 82.796188,135.033951 
	C85.212914,134.946121 85.706635,136.785233 86.569916,138.100800 
	C90.863228,144.643433 96.760094,148.465439 104.663475,148.839645 
	C109.206993,149.054779 112.668869,151.244812 115.044556,154.848862 
	C119.217453,161.179352 125.110466,161.515686 132.155380,160.313477 
	C130.407089,156.911285 127.466835,154.982040 125.216568,152.494003 
	C121.690811,148.595688 121.568016,147.815002 125.301620,144.422485 
	C128.010117,141.961426 130.013885,138.826263 133.332550,136.543365 
	C138.968887,138.667618 144.830856,140.128754 147.224960,146.681396 
	C147.359436,147.154724 147.418976,147.334686 147.643585,147.725739 
	C148.265610,148.278366 148.776703,148.325668 149.606873,148.151245 
	C150.945892,147.909485 151.991577,147.902267 153.339264,148.264130 
	C154.121628,148.262741 154.144760,149.712128 155.179718,148.586594 
	C155.955582,148.375656 156.415039,148.414673 157.183182,148.713226 
	C163.585159,154.348953 171.092148,157.604279 177.886948,161.965576 
	C182.749771,165.086807 187.803482,167.910904 192.731720,170.934189 
	C194.259842,171.871628 196.029495,172.580750 196.545288,174.935104 
	C196.521683,175.297989 196.418457,175.438339 196.342133,175.480362 
	C195.947189,175.223236 195.661697,175.266479 195.254120,175.839767 
	C167.081528,192.333267 139.057022,208.588165 111.041153,224.857925 
	C107.430626,226.954681 104.180290,226.174606 100.748947,224.179398 
	C73.312683,208.226105 45.824566,192.361954 18.120552,176.210236 
	C17.701218,175.684433 17.477217,175.454376 16.982445,175.317276 
	C16.748117,175.374741 16.669292,175.345657 16.643970,175.312134 
z"/>
<path fill="#3E71A6" opacity="1.000000" stroke="none" 
	d="
M196.845627,175.173645 
	C189.378647,169.365494 180.835876,165.651657 173.162735,160.560059 
	C167.820786,157.015335 161.786453,154.548630 156.965393,149.839813 
	C158.230896,147.086578 160.610611,147.587570 162.658493,147.536194 
	C168.488724,147.389954 174.326431,147.601669 180.154922,147.434998 
	C183.228012,147.347122 187.363068,148.610153 187.390579,143.169205 
	C187.410233,139.281296 186.263351,138.641037 179.880859,138.500381 
	C173.894348,138.368484 167.884201,139.028763 161.489349,137.840469 
	C160.503067,137.349274 160.028534,136.936325 159.387741,136.013184 
	C157.990799,132.215942 158.434906,128.718643 158.416443,125.270927 
	C158.362518,115.200012 158.377533,105.128555 158.410599,95.057404 
	C158.417603,92.920135 158.286987,90.747078 159.644913,88.380867 
	C170.739990,81.722610 181.511032,75.435966 192.278549,69.143326 
	C193.697617,68.314011 195.098801,67.454109 196.715714,66.351692 
	C199.502213,67.785454 199.658768,70.461868 199.660660,73.119385 
	C199.683014,104.676186 199.671021,136.233017 199.682220,167.789825 
	C199.683197,170.516861 199.322311,173.084213 196.845627,175.173645 
z"/>
<path fill="#034F99" opacity="1.000000" stroke="none" 
	d="
M16.870518,175.575882 
	C17.085363,175.219177 17.387751,175.269989 17.772028,175.738556 
	C17.888777,175.949966 17.419277,175.975128 17.419277,175.975128 
	C17.419277,175.975128 16.992920,175.777023 16.870518,175.575882 
z"/>
<path fill="#3E71A6" opacity="1.000000" stroke="none" 
	d="
M195.340363,176.095673 
	C195.327393,175.832748 195.551422,175.591705 196.020645,175.436523 
	C196.157150,175.860535 195.927673,176.058929 195.340363,176.095673 
z"/>
<path fill="#F8FAFB" opacity="1.000000" stroke="none" 
	d="
M133.975159,136.345337 
	C131.146011,139.931107 128.837769,143.491409 125.307281,145.775009 
	C122.877090,147.346909 123.078392,148.476135 124.872124,150.304306 
	C128.297867,153.795837 131.580093,157.428207 135.759384,161.897797 
	C130.208038,161.897797 125.946251,161.846344 121.686432,161.915680 
	C118.791161,161.962799 117.806717,159.555069 116.411522,157.841049 
	C112.794296,153.397202 109.271736,150.095810 102.602753,149.743301 
	C93.735741,149.274597 87.510468,143.393204 83.393188,135.109665 
	C79.920784,124.381157 79.173325,113.710114 81.106674,102.874649 
	C83.709969,88.284554 93.074211,79.972641 107.690956,79.255783 
	C121.624092,78.572441 131.889496,86.253212 135.940033,100.639107 
	C140.436478,108.461449 138.333374,116.540077 137.989761,124.368263 
	C137.811432,128.430862 136.962341,132.638321 133.975159,136.345337 
z"/>
<path fill="#F8FAFC" opacity="1.000000" stroke="none" 
	d="
M69.813515,141.572083 
	C66.135002,145.815598 62.023529,148.838776 56.370621,150.063660 
	C49.898487,150.505615 43.782902,151.029907 37.837948,148.550858 
	C30.178078,145.356689 25.268862,138.566086 24.861500,130.565216 
	C24.714035,127.668884 25.639875,126.562592 28.467611,126.787270 
	C29.956957,126.905602 31.477131,126.935753 32.959625,126.779816 
	C36.350231,126.423203 38.156582,127.112885 38.826229,131.197357 
	C40.069416,138.780090 50.730034,142.213150 56.723137,137.383072 
	C60.258045,134.534149 60.595818,128.778778 57.359982,125.329887 
	C55.383682,123.223450 52.852924,121.971687 50.162514,121.006470 
	C45.785149,119.436073 41.325256,118.051300 37.066284,116.205032 
	C29.388079,112.876534 25.770021,106.275551 26.256540,97.189583 
	C26.671740,89.435585 31.279696,83.473778 38.928425,80.995674 
	C45.427967,78.889893 51.997997,78.689171 58.581364,80.669830 
	C66.443886,83.035332 71.672241,90.073463 71.679924,98.176064 
	C71.681129,99.445305 71.728783,100.633354 70.081230,100.661011 
	C66.753395,100.716858 63.419220,100.776726 60.096893,100.628227 
	C58.274025,100.546753 58.550034,98.775177 58.196835,97.567299 
	C56.332981,91.193237 49.364124,88.340889 43.517773,91.625038 
	C41.215740,92.918190 39.783955,94.802292 39.785870,97.655296 
	C39.788040,100.885155 41.314140,103.216064 44.105530,104.364433 
	C48.866737,106.323196 53.782310,107.907104 58.634899,109.643280 
	C65.411690,112.067902 70.626831,116.060280 72.710464,123.700768 
	C74.102760,127.001183 73.258415,130.129486 73.137970,133.583740 
	C71.877502,136.380722 70.893394,138.798950 69.813515,141.572083 
z"/>
<path fill="#FAFBFD" opacity="1.000000" stroke="none" 
	d="
M159.895187,87.578194 
	C159.920395,103.699013 159.870728,119.386887 159.908203,135.536560 
	C160.158981,136.163513 160.322586,136.328674 160.739624,136.733368 
	C168.786072,137.039825 176.582764,137.271606 184.370422,137.098129 
	C187.817474,137.021332 189.332275,138.028259 188.864731,141.559601 
	C188.713623,142.701004 188.726059,143.893097 188.863312,145.038071 
	C189.243164,148.206711 188.136719,149.409607 184.746002,149.331284 
	C175.792221,149.124451 166.829681,149.296158 157.408783,149.415802 
	C156.518188,149.517334 156.089447,149.520218 155.339584,149.544083 
	C154.853165,149.501694 154.687851,149.438309 154.262253,149.427612 
	C152.596130,149.445572 151.190308,149.410828 149.365143,149.427643 
	C148.501160,149.477234 148.057297,149.456818 147.317398,149.268250 
	C147.020660,149.115891 147.029999,148.998672 146.973816,148.981369 
	C143.998795,132.960480 145.338120,116.798042 145.713821,100.737221 
	C145.859665,94.502686 146.241058,88.173477 146.741058,81.427872 
	C146.919708,80.965546 146.994659,80.977013 146.973419,80.945618 
	C147.243759,80.715477 147.533203,80.513664 148.083725,80.282990 
	C149.837509,80.300087 151.327499,80.367416 152.817993,80.380768 
	C161.151443,80.455421 159.569504,79.671021 159.895187,87.578194 
z"/>
<path fill="#4675A9" opacity="1.000000" stroke="none" 
	d="
M146.610931,81.252090 
	C146.943665,103.323631 146.967621,125.681709 146.954590,148.501923 
	C146.005188,141.441513 138.600693,140.814590 133.887817,136.776031 
	C137.605972,125.209282 138.339508,113.626892 136.051773,101.408127 
	C141.609726,101.283554 145.890442,97.550667 145.974670,92.425201 
	C146.034302,88.795532 146.189575,85.167427 146.610931,81.252090 
z"/>
<path fill="#003D91" opacity="1.000000" stroke="none" 
	d="
M73.182068,133.714218 
	C72.861526,130.937531 72.861458,127.912575 72.894409,124.433548 
	C74.895714,127.033928 74.062180,130.258240 73.182068,133.714218 
z"/>
<path fill="#4675A9" opacity="1.000000" stroke="none" 
	d="
M148.053680,80.192825 
	C148.054947,80.442146 147.762634,80.626633 147.211243,80.862671 
	C147.221481,80.652145 147.490784,80.390068 148.053680,80.192825 
z"/>
<path fill="#3E71A6" opacity="1.000000" stroke="none" 
	d="
M147.096756,149.359558 
	C147.464111,149.138733 147.907547,149.161575 148.648407,149.331818 
	C148.396454,150.115631 147.798477,150.057114 147.096756,149.359558 
z"/>
<path fill="#3E71A6" opacity="1.000000" stroke="none" 
	d="
M154.075348,149.635498 
	C154.178741,149.408630 154.355499,149.336960 154.775360,149.415192 
	C154.728561,149.640274 154.438644,149.715469 154.075348,149.635498 
z"/>
<path fill="#2864A0" opacity="1.000000" stroke="none" 
	d="
M160.890717,136.752701 
	C160.658310,136.842331 160.323563,136.711761 159.992096,136.289780 
	C160.322510,136.083176 160.586853,136.261230 160.890717,136.752701 
z"/>
<path fill="#034F99" opacity="1.000000" stroke="none" 
	d="
M95.309708,127.235672 
	C92.797890,117.790077 92.718399,108.566109 95.821854,99.546089 
	C97.878792,93.567726 102.373253,90.509659 108.781830,90.492760 
	C115.249046,90.475708 119.587959,93.515854 122.022453,99.912254 
	C123.267120,103.182487 124.195679,106.551582 123.900116,110.540314 
	C119.032692,115.261070 112.986649,117.643417 107.485260,121.533340 
	C103.184189,123.352600 100.184380,126.999786 95.309708,127.235672 
z"/>
<path fill="#043868" opacity="1.000000" stroke="none" 
	d="
M94.986305,127.393135 
	C98.792320,125.020607 102.571106,123.018303 106.710953,120.967430 
	C112.822212,121.651863 116.822662,125.727776 121.745468,128.759552 
	C119.973114,135.851990 115.858635,139.122177 109.133247,139.246109 
	C101.806389,139.381104 97.785492,136.123718 94.986305,127.393135 
z"/>
<path fill="#3A6EA4" opacity="1.000000" stroke="none" 
	d="
M122.234627,128.737198 
	C116.609642,127.534401 112.476097,123.776863 107.377563,121.072113 
	C111.897629,116.766235 117.499313,113.878990 123.491180,111.010597 
	C124.291992,116.853798 124.502304,122.729515 122.234627,128.737198 
z"/>
</svg>