<svg version="1.1" id="Layer_1" xmlns="http://www.w3.org/2000/svg" xmlns:xlink="http://www.w3.org/1999/xlink" x="0px" y="0px"
	 width="100%" viewBox="0 0 225 225" enable-background="new 0 0 225 225" xml:space="preserve">
<path fill="#FFFFFF" opacity="1.000000" stroke="none" 
	d="
M124.000000,226.000000 
	C84.000000,226.000000 44.499786,225.944092 5.000392,226.098526 
	C1.574284,226.111908 0.897812,225.424347 0.903703,221.999832 
	C1.030420,148.333389 1.000000,74.666679 1.000000,1.000010 
	C74.666656,1.000000 148.333359,1.030417 221.999802,0.903709 
	C225.424240,0.897818 226.102371,1.575541 226.096344,5.000135 
	C225.969025,77.333244 225.969055,149.666687 226.096359,221.999786 
	C226.102386,225.424210 225.426620,226.117035 221.999542,226.099426 
	C189.500381,225.932556 157.000015,226.000000 124.000000,226.000000 
z"/>
<path fill="#0B0B0B" opacity="1.000000" stroke="none" 
	d="
M184.332779,99.325302 
	C148.071899,134.235703 112.064537,168.901382 76.051666,203.561340 
	C71.994843,207.465759 71.213943,207.248901 69.882576,201.867188 
	C56.062561,146.002960 42.247704,90.137444 28.433407,34.271790 
	C27.030643,28.598949 27.491365,28.149006 33.338268,29.827768 
	C88.461235,45.654671 143.580429,61.494728 198.696335,77.346207 
	C204.397018,78.985733 204.614563,79.848701 200.456726,83.856987 
	C195.179245,88.944656 189.876526,94.006134 184.332779,99.325302 
z"/>
<path fill="#FAFAFA" opacity="1.000000" stroke="none" 
	d="
M83.698044,190.697632 
	C80.637512,194.219238 77.827934,197.491730 75.018349,200.764221 
	C74.469948,200.486633 73.921555,200.209061 73.373154,199.931473 
	C70.355515,187.789764 67.337883,175.648041 64.140511,162.783142 
	C76.670319,166.368622 88.664581,169.800842 99.554703,172.917114 
	C94.586845,178.498001 89.267929,184.473251 83.698044,190.697632 
z"/>
<path fill="#F9F9F9" opacity="1.000000" stroke="none" 
	d="
M85.807861,103.221863 
	C87.723640,111.261559 89.563240,118.891754 91.557152,127.161972 
	C78.995003,123.548218 67.193268,120.153214 56.808670,117.165878 
	C64.756485,108.397934 73.063919,99.233269 82.132278,89.229156 
	C83.590431,94.731842 84.661057,98.772095 85.807861,103.221863 
z"/>
<path fill="#F9F9F9" opacity="1.000000" stroke="none" 
	d="
M162.711639,111.032021 
	C164.808578,111.459946 165.532501,111.987946 163.872345,113.574295 
	C155.367523,121.701073 146.923569,129.891571 137.954575,138.545868 
	C134.847610,125.984795 131.912445,114.118279 128.739471,101.290344 
	C140.361481,104.640137 151.346603,107.806351 162.711639,111.032021 
z"/>
<path fill="#F9F9F9" opacity="1.000000" stroke="none" 
	d="
M118.174774,134.893066 
	C111.283699,132.900040 104.790688,130.981476 99.346588,129.372849 
	C107.335281,120.480988 115.553604,111.333527 124.716568,101.134636 
	C128.105484,114.798332 131.060516,126.712585 134.205994,139.394760 
	C128.580612,137.801682 123.576721,136.384613 118.174774,134.893066 
z"/>
<path fill="#FAFAFA" opacity="1.000000" stroke="none" 
	d="
M38.906448,60.173325 
	C36.679111,51.324314 34.551552,42.874352 32.188908,33.490704 
	C44.715385,37.080494 56.539291,40.468948 66.730415,43.389484 
	C58.804367,52.162952 50.536949,61.314297 41.600388,71.206322 
	C40.532478,66.828751 39.769352,63.700562 38.906448,60.173325 
z"/>
<path fill="#FAFAFA" opacity="1.000000" stroke="none" 
	d="
M45.543514,87.433746 
	C44.619331,83.855354 43.863205,80.654999 42.901142,76.583023 
	C55.278168,80.127632 67.166519,83.532295 77.400673,86.463211 
	C69.536377,95.348900 61.416626,104.523232 52.318512,114.802994 
	C49.832508,104.646980 47.772041,96.229378 45.543514,87.433746 
z"/>
<path fill="#FAFAFA" opacity="1.000000" stroke="none" 
	d="
M187.692398,90.691940 
	C181.839951,96.324806 176.238464,101.708496 170.077515,107.629921 
	C166.969574,95.091690 164.021988,83.200302 160.877563,70.514786 
	C173.348389,74.102936 185.155823,77.500214 197.132523,80.946190 
	C193.886307,84.301003 190.914841,87.371895 187.692398,90.691940 
z"/>
<path fill="#F9F9F9" opacity="1.000000" stroke="none" 
	d="
M82.177856,138.168793 
	C75.713257,144.381042 69.505447,150.347366 62.730934,156.858353 
	C59.666637,144.520691 56.778694,132.893066 53.655937,120.320000 
	C65.904106,123.822517 77.461716,127.127556 89.657738,130.615158 
	C87.000778,133.303253 84.717720,135.613052 82.177856,138.168793 
z"/>
<path fill="#F9F9F9" opacity="1.000000" stroke="none" 
	d="
M69.651711,160.300598 
	C67.977097,159.689255 65.072784,160.067108 67.777237,157.446915 
	C75.994614,149.485535 84.236511,141.549484 93.054031,133.038773 
	C96.112793,145.375900 98.999779,157.020172 102.115662,169.587677 
	C91.058678,166.437195 80.545517,163.441666 69.651711,160.300598 
z"/>
<path fill="#FAFAFA" opacity="1.000000" stroke="none" 
	d="
M137.699615,84.699387 
	C134.460815,88.267982 131.472855,91.587311 128.484879,94.906647 
	C127.998810,94.648323 127.512733,94.389999 127.026657,94.131676 
	C124.146919,82.516060 121.267174,70.900444 118.137581,58.277035 
	C130.417923,61.771870 142.033966,65.077652 153.066605,68.217400 
	C148.068298,73.584908 143.009369,79.017517 137.699615,84.699387 
z"/>
<path fill="#FAFAFA" opacity="1.000000" stroke="none" 
	d="
M141.966583,85.963562 
	C147.021042,81.134789 151.817505,76.549210 157.129135,71.471100 
	C160.177917,83.789284 163.094025,95.571388 166.167419,107.989021 
	C153.883438,104.467468 142.240433,101.129669 130.235001,97.687973 
	C134.235123,93.685188 137.971848,89.945976 141.966583,85.963562 
z"/>
<path fill="#FAFAFA" opacity="1.000000" stroke="none" 
	d="
M50.902603,66.893761 
	C57.851948,60.228870 64.549500,53.812893 71.785507,46.881100 
	C74.811996,59.123718 77.701309,70.811394 80.803795,83.361412 
	C68.528877,79.862732 56.888958,76.545044 44.157005,72.916100 
	C46.770618,70.592422 48.710712,68.867546 50.902603,66.893761 
z"/>
<path fill="#F9F9F9" opacity="1.000000" stroke="none" 
	d="
M87.226181,89.517357 
	C98.916603,92.623703 110.339951,95.861847 120.690735,98.795952 
	C112.737129,107.598267 104.623581,116.577583 95.472847,126.704773 
	C92.288979,113.627724 89.536156,102.321091 86.780815,90.615585 
	C86.838562,90.027519 86.898834,89.838341 87.226181,89.517357 
z"/>
<path fill="#FAFAFA" opacity="1.000000" stroke="none" 
	d="
M100.000595,53.002182 
	C103.888870,54.096710 107.374802,55.135258 110.860733,56.173801 
	C110.450027,55.805649 110.039330,55.437496 109.628632,55.069344 
	C101.500229,64.115829 93.371826,73.162315 84.650970,82.868172 
	C81.497620,70.018562 78.613785,58.267185 75.578751,45.899685 
	C84.116608,48.404404 91.857430,50.675301 100.000595,53.002182 
z"/>
<path fill="#F9F9F9" opacity="1.000000" stroke="none" 
	d="
M115.304001,160.304550 
	C112.414734,163.524139 109.780479,166.498901 106.301483,170.427612 
	C102.967804,156.968979 100.056999,145.217545 96.968552,132.748962 
	C109.290016,136.306366 120.953323,139.673737 131.288147,142.657562 
	C126.230850,148.252777 120.894928,154.156265 115.304001,160.304550 
z"/>
<path fill="#FAFAFA" opacity="1.000000" stroke="none" 
	d="
M119.168518,78.791786 
	C120.554138,84.297722 121.835426,89.402588 123.367241,95.505585 
	C111.223747,92.062355 99.775383,88.816231 89.334305,85.855713 
	C97.144745,77.274170 105.277977,68.337975 114.223976,58.508774 
	C116.067108,66.079727 117.565651,72.235214 119.168518,78.791786 
z"/>
<path fill="#F9F9F9" opacity="1.000000" stroke="none" 
	d="
M86.967064,90.017548 
	C85.902359,89.592194 86.259003,89.337761 87.285126,89.303696 
	C87.380783,89.529839 87.268311,89.674110 86.967064,90.017548 
z"/>
</svg>