<svg version="1.1" id="Layer_1" xmlns="http://www.w3.org/2000/svg" xmlns:xlink="http://www.w3.org/1999/xlink" x="0px" y="0px"
	 width="100%" viewBox="0 0 225 225" enable-background="new 0 0 225 225" xml:space="preserve">
<path fill="#010101" opacity="1.000000" stroke="none" 
	d="
M101.000000,1.000000 
	C108.687576,1.000000 116.375153,1.000000 124.686462,1.379158 
	C126.632713,1.869711 127.975273,1.871307 129.274872,2.108379 
	C175.302719,10.504687 206.236374,36.512974 221.023163,81.120186 
	C223.166580,87.586197 224.364532,94.365616 226.000000,101.000000 
	C226.000000,109.354233 226.000000,117.708466 225.631165,126.672150 
	C224.920013,128.905762 224.563782,130.527130 224.237427,132.154495 
	C214.781631,179.305496 186.707413,209.273239 140.651993,222.543503 
	C135.528076,224.019897 130.221741,224.863113 125.000000,226.000000 
	C116.979103,226.000000 108.958199,226.000000 100.327835,225.631165 
	C97.929146,224.896759 96.139626,224.532745 94.350769,224.165421 
	C48.128864,214.674057 18.326183,187.266510 4.882362,142.073181 
	C3.404034,137.103592 2.285438,132.026978 1.000000,127.000000 
	C1.000000,118.312439 1.000000,109.624870 1.368844,100.327850 
	C2.079984,98.094177 2.439863,96.473450 2.762015,94.845261 
	C11.675096,49.797535 37.984421,20.108084 81.598946,5.863040 
	C87.920998,3.798179 94.525955,2.599501 101.000000,1.000000 
M72.891716,169.685135 
	C73.275284,169.793289 73.658852,169.901428 73.987907,170.011688 
	C73.987907,170.011688 73.988945,169.957138 73.943352,170.665649 
	C74.948387,171.529984 75.881813,172.499054 76.969376,173.242691 
	C89.996078,182.150101 104.052597,184.172607 118.454239,177.688522 
	C131.390808,171.864059 138.098343,160.918198 140.319489,146.596329 
	C140.335052,146.125519 140.350601,145.654694 140.686295,144.478790 
	C140.685989,143.966354 140.685699,143.453934 140.904861,142.034958 
	C140.904861,126.824554 140.904861,111.614143 140.904861,95.627869 
	C150.673584,102.311157 160.447021,105.714439 171.801193,105.908188 
	C171.801193,99.782890 171.556320,94.136719 171.882141,88.523666 
	C172.123474,84.365913 170.756271,82.571037 166.328445,83.031540 
	C166.328445,83.031540 166.080948,82.859482 166.295059,82.022438 
	C166.212967,80.767693 166.130875,79.512947 166.072754,78.624466 
	C160.758240,77.298637 155.907761,76.088577 151.010590,74.963158 
	C151.010590,74.963158 151.097397,74.920616 151.205093,74.186852 
	C150.748108,74.167671 150.291122,74.148483 149.277740,73.861397 
	C148.224945,72.627319 147.172134,71.393242 145.984619,69.522545 
	C145.670792,69.321907 145.356949,69.121277 145.015305,68.989182 
	C145.015305,68.989182 145.087158,68.971581 145.243973,68.201202 
	C143.529770,62.607517 141.815567,57.013828 140.013092,51.132065 
	C138.997971,51.184624 137.706070,51.251511 136.159866,51.128307 
	C136.159866,51.128307 135.913025,50.928604 136.001511,50.163082 
	C135.661743,48.810566 135.321976,47.458050 134.509918,45.871719 
	C134.340805,45.919228 134.171677,45.966732 133.085693,45.805626 
	C127.056465,45.875034 121.027237,45.944443 114.401321,45.961765 
	C114.281906,46.305328 114.162498,46.648895 113.845390,47.912655 
	C113.835663,75.341721 113.873260,102.770950 113.778893,130.199738 
	C113.758400,136.156387 113.705528,142.167480 109.034775,146.947815 
	C102.414085,153.723816 94.715820,153.640488 86.271309,150.531006 
	C85.856453,150.112473 85.441597,149.693939 84.963684,148.570572 
	C84.640701,148.366135 84.317711,148.161697 84.026337,147.974243 
	C84.026337,147.974243 84.041870,148.006607 84.441483,147.142715 
	C83.332481,141.137146 83.242294,135.319458 87.058136,130.032501 
	C92.048340,123.118469 99.481842,122.728806 106.961624,122.819580 
	C106.961624,114.675972 106.961624,106.977539 106.961624,99.116104 
	C105.129318,99.116104 103.657112,99.116104 102.038177,98.947716 
	C102.038177,98.947716 101.871193,98.799393 102.017914,97.980042 
	C102.854904,94.045197 100.676460,93.295517 97.336708,93.097008 
	C78.532097,91.979317 62.173450,103.808594 57.107819,122.896675 
	C53.423126,136.781174 54.923721,149.860764 65.003036,160.998398 
	C65.003036,160.998398 65.022247,160.938110 65.057487,161.499466 
	C65.343239,161.719208 65.628990,161.938950 66.174286,162.733856 
	C67.776733,164.306030 69.379181,165.878189 71.200356,168.154037 
	C71.797523,168.457138 72.394691,168.760239 72.995323,169.000900 
	C72.995323,169.000900 72.937836,169.025513 72.891716,169.685135 
z"/>
<path fill="#FDFDFD" opacity="1.000000" stroke="none" 
	d="
M226.000000,100.531342 
	C224.364532,94.365616 223.166580,87.586197 221.023163,81.120186 
	C206.236374,36.512974 175.302719,10.504687 129.274872,2.108379 
	C127.975273,1.871307 126.632713,1.869711 125.155090,1.379158 
	C158.593231,1.000000 192.186478,1.000000 226.000000,1.000000 
	C226.000000,34.020569 226.000000,67.041626 226.000000,100.531342 
z"/>
<path fill="#FDFDFD" opacity="1.000000" stroke="none" 
	d="
M125.468658,226.000000 
	C130.221741,224.863113 135.528076,224.019897 140.651993,222.543503 
	C186.707413,209.273239 214.781631,179.305496 224.237427,132.154495 
	C224.563782,130.527130 224.920013,128.905762 225.631165,127.140808 
	C226.000000,159.927658 226.000000,192.855331 226.000000,226.000000 
	C192.646088,226.000000 159.291702,226.000000 125.468658,226.000000 
z"/>
<path fill="#FDFDFD" opacity="1.000000" stroke="none" 
	d="
M100.531342,1.000000 
	C94.525955,2.599501 87.920998,3.798179 81.598946,5.863040 
	C37.984421,20.108084 11.675096,49.797535 2.762015,94.845261 
	C2.439863,96.473450 2.079984,98.094177 1.368844,99.859192 
	C1.000000,67.072693 1.000000,34.145393 1.000000,1.000000 
	C34.020573,1.000000 67.041626,1.000000 100.531342,1.000000 
z"/>
<path fill="#FDFDFD" opacity="1.000000" stroke="none" 
	d="
M1.000000,127.468658 
	C2.285438,132.026978 3.404034,137.103592 4.882362,142.073181 
	C18.326183,187.266510 48.128864,214.674057 94.350769,224.165421 
	C96.139626,224.532745 97.929146,224.896759 99.859177,225.631165 
	C67.073067,226.000000 34.146137,226.000000 1.000000,226.000000 
	C1.000000,193.312759 1.000000,160.625046 1.000000,127.468658 
z"/>
<path fill="#FEFDFD" opacity="1.000000" stroke="none" 
	d="
M146.119339,70.159164 
	C147.172134,71.393242 148.224945,72.627319 149.673462,74.257767 
	C150.411911,74.742958 150.754654,74.831787 151.097397,74.920616 
	C151.097397,74.920616 151.010590,74.963158 151.044189,75.276489 
	C156.078842,78.013039 161.079895,80.436256 166.080948,82.859482 
	C166.080948,82.859482 166.328445,83.031540 166.304962,83.554466 
	C166.281464,89.350945 166.281464,94.624504 166.281464,100.101456 
	C157.228378,100.350792 149.538910,97.485458 141.694931,93.973297 
	C139.960236,92.837013 138.486603,91.904350 136.752258,90.709518 
	C136.277954,91.209465 135.878571,91.971504 135.878235,92.733727 
	C135.871735,107.497711 135.911880,122.261719 135.776672,137.378311 
	C135.440887,138.541885 135.206436,139.345291 135.110245,140.164948 
	C132.530136,162.152832 114.354324,179.735901 89.367798,174.887161 
	C84.120224,173.868835 79.109055,171.632324 73.988945,169.957138 
	C73.988945,169.957138 73.987907,170.011688 74.036606,169.696884 
	C73.702820,169.263229 73.320328,169.144379 72.937836,169.025513 
	C72.937836,169.025513 72.995323,169.000900 72.892761,168.705338 
	C72.187347,168.089966 71.584488,167.770157 70.981628,167.450348 
	C69.379181,165.878189 67.776733,164.306030 66.084351,162.125015 
	C65.670357,161.323486 65.346298,161.130798 65.022247,160.938110 
	C65.022247,160.938110 65.003036,160.998398 65.132462,160.616486 
	C51.801971,132.726151 69.446625,97.203545 101.871193,98.799393 
	C101.871193,98.799393 102.038177,98.947716 102.029510,99.485291 
	C102.020836,105.820480 102.020836,111.618088 102.020836,116.960617 
	C98.208839,117.324585 94.830948,117.269638 91.647064,118.028618 
	C84.735306,119.676239 80.156258,124.106316 78.954308,131.180359 
	C77.885635,137.470001 77.765640,143.790619 84.041870,148.006607 
	C84.041870,148.006607 84.026337,147.974243 83.991440,148.285583 
	C84.313278,148.823074 84.670013,149.049240 85.026741,149.275406 
	C85.441597,149.693939 85.856453,150.112473 86.544174,151.064972 
	C92.613541,158.111359 100.700516,160.108017 108.346992,156.691284 
	C116.118225,153.218811 119.009956,146.751236 119.007607,138.611099 
	C118.999733,111.367836 119.011597,84.124565 119.015823,56.881302 
	C119.016098,55.111214 119.015854,53.341125 119.015854,50.928604 
	C125.032242,50.928604 130.472641,50.928604 135.913025,50.928604 
	C135.913025,50.928604 136.159866,51.128307 136.321381,51.623062 
	C137.916367,58.468143 139.748154,64.615120 145.087158,68.971581 
	C145.087158,68.971581 145.015305,68.989182 145.064789,69.255676 
	C145.449310,69.734497 145.784317,69.946831 146.119339,70.159164 
z"/>
<path fill="#01F5ED" opacity="1.000000" stroke="none" 
	d="
M135.957275,50.545845 
	C130.472641,50.928604 125.032242,50.928604 119.015854,50.928604 
	C119.015854,53.341125 119.016098,55.111214 119.015823,56.881302 
	C119.011597,84.124565 118.999733,111.367836 119.007607,138.611099 
	C119.009956,146.751236 116.118225,153.218811 108.346992,156.691284 
	C100.700516,160.108017 92.613541,158.111359 86.653481,151.259644 
	C94.715820,153.640488 102.414085,153.723816 109.034775,146.947815 
	C113.705528,142.167480 113.758400,136.156387 113.778893,130.199738 
	C113.873260,102.770950 113.835663,75.341721 114.154793,47.345531 
	C114.724075,46.580772 114.902008,46.325920 114.998009,46.013847 
	C121.027237,45.944443 127.056465,45.875034 133.625488,46.070873 
	C134.437592,46.259254 134.709900,46.182392 134.982208,46.105530 
	C135.321976,47.458050 135.661743,48.810566 135.957275,50.545845 
z"/>
<path fill="#FA034E" opacity="1.000000" stroke="none" 
	d="
M73.966148,170.311401 
	C79.109055,171.632324 84.120224,173.868835 89.367798,174.887161 
	C114.354324,179.735901 132.530136,162.152832 135.110245,140.164948 
	C135.206436,139.345291 135.440887,138.541885 136.082947,137.088364 
	C136.703552,134.656143 136.975540,132.866806 136.980942,131.076691 
	C137.021271,117.708450 137.008835,104.340042 137.012955,90.971687 
	C138.486603,91.904350 139.960236,92.837013 141.438751,94.254593 
	C140.963440,96.388084 140.083969,98.032600 140.067078,99.685913 
	C139.946548,111.495773 139.961777,123.307663 140.032349,135.118332 
	C140.047943,137.727264 140.457352,140.333832 140.685410,142.941498 
	C140.685699,143.453934 140.685989,143.966354 140.410919,145.031464 
	C140.085815,146.044754 140.036118,146.505386 139.986420,146.966019 
	C138.098343,160.918198 131.390808,171.864059 118.454239,177.688522 
	C104.052597,184.172607 89.996078,182.150101 76.969376,173.242691 
	C75.881813,172.499054 74.948387,171.529984 73.966148,170.311401 
z"/>
<path fill="#04F0E9" opacity="1.000000" stroke="none" 
	d="
M101.944550,98.389717 
	C69.446625,97.203545 51.801971,132.726151 65.163986,160.613953 
	C54.923721,149.860764 53.423126,136.781174 57.107819,122.896675 
	C62.173450,103.808594 78.532097,91.979317 97.336708,93.097008 
	C100.676460,93.295517 102.854904,94.045197 101.944550,98.389717 
z"/>
<path fill="#FB054F" opacity="1.000000" stroke="none" 
	d="
M84.241676,147.574661 
	C77.765640,143.790619 77.885635,137.470001 78.954308,131.180359 
	C80.156258,124.106316 84.735306,119.676239 91.647064,118.028618 
	C94.830948,117.269638 98.208839,117.324585 102.020836,116.960617 
	C102.020836,111.618088 102.020836,105.820480 102.102875,99.569489 
	C103.657112,99.116104 105.129318,99.116104 106.961624,99.116104 
	C106.961624,106.977539 106.961624,114.675972 106.961624,122.819580 
	C99.481842,122.728806 92.048340,123.118469 87.058136,130.032501 
	C83.242294,135.319458 83.332481,141.137146 84.241676,147.574661 
z"/>
<path fill="#F00E50" opacity="1.000000" stroke="none" 
	d="
M140.795135,142.488220 
	C140.457352,140.333832 140.047943,137.727264 140.032349,135.118332 
	C139.961777,123.307663 139.946548,111.495773 140.067078,99.685913 
	C140.083969,98.032600 140.963440,96.388084 141.699799,94.458206 
	C149.538910,97.485458 157.228378,100.350792 166.281464,100.101456 
	C166.281464,94.624504 166.281464,89.350945 166.424377,83.646393 
	C170.756271,82.571037 172.123474,84.365913 171.882141,88.523666 
	C171.556320,94.136719 171.801193,99.782890 171.801193,105.908188 
	C160.447021,105.714439 150.673584,102.311157 140.904861,95.627869 
	C140.904861,111.614143 140.904861,126.824554 140.795135,142.488220 
z"/>
<path fill="#F0084B" opacity="1.000000" stroke="none" 
	d="
M145.165558,68.586395 
	C139.748154,64.615120 137.916367,58.468143 136.448532,51.718105 
	C137.706070,51.251511 138.997971,51.184624 140.013092,51.132065 
	C141.815567,57.013828 143.529770,62.607517 145.165558,68.586395 
z"/>
<path fill="#05F2EB" opacity="1.000000" stroke="none" 
	d="
M166.188004,82.440956 
	C161.079895,80.436256 156.078842,78.013039 151.067535,75.234161 
	C155.907761,76.088577 160.758240,77.298637 166.072754,78.624466 
	C166.130875,79.512947 166.212967,80.767693 166.188004,82.440956 
z"/>
<path fill="#F00E50" opacity="1.000000" stroke="none" 
	d="
M140.152954,146.781174 
	C140.036118,146.505386 140.085815,146.044754 140.250839,145.384003 
	C140.350601,145.654694 140.335052,146.125519 140.152954,146.781174 
z"/>
<path fill="#FA034E" opacity="1.000000" stroke="none" 
	d="
M71.090988,167.802200 
	C71.584488,167.770157 72.187347,168.089966 72.891037,168.736557 
	C72.394691,168.760239 71.797523,168.457138 71.090988,167.802200 
z"/>
<path fill="#05F2EB" opacity="1.000000" stroke="none" 
	d="
M151.151245,74.553734 
	C150.754654,74.831787 150.411911,74.742958 149.951660,74.391716 
	C150.291122,74.148483 150.748108,74.167671 151.151245,74.553734 
z"/>
<path fill="#F0084B" opacity="1.000000" stroke="none" 
	d="
M146.051971,69.840851 
	C145.784317,69.946831 145.449310,69.734497 145.078705,69.221405 
	C145.356949,69.121277 145.670792,69.321907 146.051971,69.840851 
z"/>
<path fill="#00FFF9" opacity="1.000000" stroke="none" 
	d="
M134.746063,45.988625 
	C134.709900,46.182392 134.437592,46.259254 134.083923,46.175179 
	C134.171677,45.966732 134.340805,45.919228 134.746063,45.988625 
z"/>
<path fill="#00FFF9" opacity="1.000000" stroke="none" 
	d="
M114.699661,45.987808 
	C114.902008,46.325920 114.724075,46.580772 114.253647,46.885433 
	C114.162498,46.648895 114.281906,46.305328 114.699661,45.987808 
z"/>
<path fill="#FB054F" opacity="1.000000" stroke="none" 
	d="
M84.995209,148.922989 
	C84.670013,149.049240 84.313278,148.823074 83.975632,148.277084 
	C84.317711,148.161697 84.640701,148.366135 84.995209,148.922989 
z"/>
<path fill="#04F0E9" opacity="1.000000" stroke="none" 
	d="
M65.039871,161.218781 
	C65.346298,161.130798 65.670357,161.323486 65.954575,161.837433 
	C65.628990,161.938950 65.343239,161.719208 65.039871,161.218781 
z"/>
<path fill="#FA034E" opacity="1.000000" stroke="none" 
	d="
M72.914780,169.355316 
	C73.320328,169.144379 73.702820,169.263229 74.063866,169.695831 
	C73.658852,169.901428 73.275284,169.793289 72.914780,169.355316 
z"/>
<path fill="#FF0142" opacity="1.000000" stroke="none" 
	d="
M136.752258,90.709518 
	C137.008835,104.340042 137.021271,117.708450 136.980942,131.076691 
	C136.975540,132.866806 136.703552,134.656143 136.248718,136.735779 
	C135.911880,122.261719 135.871735,107.497711 135.878235,92.733727 
	C135.878571,91.971504 136.277954,91.209465 136.752258,90.709518 
z"/>
</svg>