<svg version="1.1" id="Layer_1" xmlns="http://www.w3.org/2000/svg" xmlns:xlink="http://www.w3.org/1999/xlink" x="0px" y="0px"
	 width="100%" viewBox="0 0 200 200" enable-background="new 0 0 200 200" xml:space="preserve">
<path fill="#FEFEFE" opacity="1.000000" stroke="none" 
	d="
M132.000000,201.000000 
	C88.000000,201.000000 44.500004,201.000000 1.000006,201.000000 
	C1.000004,134.333344 1.000004,67.666679 1.000002,1.000015 
	C67.666656,1.000010 134.333313,1.000010 200.999969,1.000005 
	C200.999985,67.666649 200.999985,134.333298 201.000000,200.999969 
	C178.166672,201.000000 155.333328,201.000000 132.000000,201.000000 
M44.931843,126.022339 
	C48.822495,123.785545 52.533005,121.109612 56.648655,119.421303 
	C61.987267,117.231331 63.432831,113.692932 62.986763,108.239441 
	C62.509884,102.409218 62.879284,96.509789 62.879284,89.454178 
	C72.478867,95.002808 80.858009,99.696289 89.023384,104.736122 
	C90.174316,105.446503 90.738678,107.834061 90.790283,109.470055 
	C90.989754,115.793060 90.871498,122.126076 90.871582,128.455368 
	C90.871620,131.157715 90.871590,133.860077 90.871590,137.715622 
	C83.380333,133.407166 77.261238,129.757004 70.992485,126.385071 
	C69.621346,125.647552 67.341393,125.183907 66.120529,125.821205 
	C59.949703,129.042419 53.990463,132.668991 47.392197,136.479584 
	C57.369633,142.234955 66.803581,147.740143 76.299927,153.135498 
	C84.507416,157.798584 92.785805,162.336868 101.743439,167.009842 
	C119.236649,156.934372 136.729843,146.858902 154.737747,136.487000 
	C148.681015,133.002243 143.086334,130.069717 137.817551,126.636978 
	C134.976730,124.786095 132.958633,125.032654 130.212509,126.751999 
	C124.400482,130.390900 118.325768,133.610260 111.377655,137.559326 
	C111.377655,126.597008 111.340683,116.840424 111.444908,107.085350 
	C111.453636,106.268135 112.220009,105.134773 112.959061,104.699242 
	C121.318527,99.772797 129.741425,94.953995 139.117447,89.546875 
	C139.117447,97.799316 139.043198,104.886528 139.178024,111.969765 
	C139.206070,113.444328 139.547989,115.634010 140.528183,116.251686 
	C146.638153,120.101898 152.970764,123.598824 159.879379,127.588066 
	C159.879379,107.081871 159.901215,87.491165 159.801788,67.901093 
	C159.797684,67.093422 158.656433,66.291519 158.047531,64.836548 
	C140.960648,54.846233 123.873749,44.855923 106.116203,34.473499 
	C106.116203,40.717110 106.603058,45.763859 105.992592,50.674179 
	C105.234535,56.771614 107.629440,60.073582 113.003090,62.543842 
	C118.140854,64.905670 122.853256,68.192787 128.688766,71.623581 
	C119.272064,77.075737 110.981750,81.915039 102.629410,86.644821 
	C101.875725,87.071625 100.502014,87.182823 99.787521,86.780769 
	C91.297943,82.003540 82.878922,77.100945 73.566833,71.726486 
	C75.795921,70.278023 77.087059,69.366409 78.445457,68.569420 
	C83.319458,65.709785 88.255417,62.953037 93.075722,60.006527 
	C94.224197,59.304497 95.807243,58.044060 95.842667,56.994965 
	C96.085754,49.795494 95.970306,42.583912 95.970306,34.566883 
	C78.190857,44.855999 61.243256,54.650959 44.334179,64.511971 
	C43.837681,64.801514 43.747147,65.787170 42.478333,66.698814 
	C42.388783,86.438629 42.299229,106.178436 42.136215,126.586937 
	C42.847980,126.468781 43.559746,126.350616 44.931843,126.022339 
z"/>
<path fill="#040404" opacity="1.000000" stroke="none" 
	d="
M158.044952,65.486938 
	C158.656433,66.291519 159.797684,67.093422 159.801788,67.901093 
	C159.901215,87.491165 159.879379,107.081871 159.879379,127.588066 
	C152.970764,123.598824 146.638153,120.101898 140.528183,116.251686 
	C139.547989,115.634010 139.206070,113.444328 139.178024,111.969765 
	C139.043198,104.886528 139.117447,97.799316 139.117447,89.546875 
	C129.741425,94.953995 121.318527,99.772797 112.959061,104.699242 
	C112.220009,105.134773 111.453636,106.268135 111.444908,107.085350 
	C111.340683,116.840424 111.377655,126.597008 111.377655,137.559326 
	C118.325768,133.610260 124.400482,130.390900 130.212509,126.751999 
	C132.958633,125.032654 134.976730,124.786095 137.817551,126.636978 
	C143.086334,130.069717 148.681015,133.002243 154.737747,136.487000 
	C136.729843,146.858902 119.236649,156.934372 101.368652,166.506271 
	C101.080017,143.756989 101.166168,121.511284 101.575745,99.143166 
	C119.035789,89.134064 136.186691,79.271927 153.287292,69.323303 
	C155.028000,68.310616 156.466324,66.778183 158.044952,65.486938 
z"/>
<path fill="#818181" opacity="1.000000" stroke="none" 
	d="
M158.046234,65.161743 
	C156.466324,66.778183 155.028000,68.310616 153.287292,69.323303 
	C136.186691,79.271927 119.035789,89.134064 101.210968,99.037949 
	C81.504288,88.186180 62.485806,77.317223 43.467331,66.448265 
	C43.747147,65.787170 43.837681,64.801514 44.334179,64.511971 
	C61.243256,54.650959 78.190857,44.855999 95.970306,34.566883 
	C95.970306,42.583912 96.085754,49.795494 95.842667,56.994965 
	C95.807243,58.044060 94.224197,59.304497 93.075722,60.006527 
	C88.255417,62.953037 83.319458,65.709785 78.445457,68.569420 
	C77.087059,69.366409 75.795921,70.278023 73.566833,71.726486 
	C82.878922,77.100945 91.297943,82.003540 99.787521,86.780769 
	C100.502014,87.182823 101.875725,87.071625 102.629410,86.644821 
	C110.981750,81.915039 119.272064,77.075737 128.688766,71.623581 
	C122.853256,68.192787 118.140854,64.905670 113.003090,62.543842 
	C107.629440,60.073582 105.234535,56.771614 105.992592,50.674179 
	C106.603058,45.763859 106.116203,40.717110 106.116203,34.473499 
	C123.873749,44.855923 140.960648,54.846233 158.046234,65.161743 
z"/>
<path fill="#4F4F4F" opacity="1.000000" stroke="none" 
	d="
M42.972832,66.573540 
	C62.485806,77.317223 81.504288,88.186180 100.887543,99.160355 
	C101.166168,121.511284 101.080017,143.756989 101.013367,166.466507 
	C92.785805,162.336868 84.507416,157.798584 76.299927,153.135498 
	C66.803581,147.740143 57.369633,142.234955 47.392197,136.479584 
	C53.990463,132.668991 59.949703,129.042419 66.120529,125.821205 
	C67.341393,125.183907 69.621346,125.647552 70.992485,126.385071 
	C77.261238,129.757004 83.380333,133.407166 90.871590,137.715622 
	C90.871590,133.860077 90.871620,131.157715 90.871582,128.455368 
	C90.871498,122.126076 90.989754,115.793060 90.790283,109.470055 
	C90.738678,107.834061 90.174316,105.446503 89.023384,104.736122 
	C80.858009,99.696289 72.478867,95.002808 62.879284,89.454178 
	C62.879284,96.509789 62.509884,102.409218 62.986763,108.239441 
	C63.432831,113.692932 61.987267,117.231331 56.648655,119.421303 
	C52.533005,121.109612 48.822495,123.785545 44.260162,126.057152 
	C43.128880,126.034065 42.669277,125.976158 42.209679,125.918251 
	C42.299229,106.178436 42.388783,86.438629 42.972832,66.573540 
z"/>
<path fill="#818181" opacity="1.000000" stroke="none" 
	d="
M42.172947,126.252594 
	C42.669277,125.976158 43.128880,126.034065 43.929993,126.162216 
	C43.559746,126.350616 42.847980,126.468781 42.172947,126.252594 
z"/>
</svg>